<?xml version="1.0" encoding="UTF-8" standalone="no"?><!DOCTYPE svg PUBLIC "-//W3C//DTD SVG 1.1//EN" "http://www.w3.org/Graphics/SVG/1.1/DTD/svg11.dtd"><svg width="100%" height="100%" viewBox="0 0 496 533" version="1.1" xmlns="http://www.w3.org/2000/svg" xmlns:xlink="http://www.w3.org/1999/xlink" xml:space="preserve" xmlns:serif="http://www.serif.com/" style="fill-rule:evenodd;clip-rule:evenodd;stroke-linejoin:round;stroke-miterlimit:2;"><rect id="Artboard1" x="0" y="0" width="495.786" height="532.805" style="fill:none;"/><g id="bunting"><g id="Layer5"><g><g id="bunting2"><g id="bunting_flags"><path d="M124.951,401.025l-19.104,98.361l-32.76,-19.986l-27.188,12.035l24.845,-101.545c20.287,6.491 33.5,8.66 54.207,11.135Z" style="fill:#ffc952;"/><path d="M127.405,401.502l-19.104,98.36c-0.156,0.804 -0.696,1.481 -1.445,1.811c-0.749,0.331 -1.612,0.273 -2.311,-0.153l-31.643,-19.304l-25.992,11.505c-0.871,0.386 -1.886,0.243 -2.616,-0.369c-0.731,-0.611 -1.05,-1.585 -0.824,-2.511l24.846,-101.545c0.164,-0.674 0.601,-1.248 1.206,-1.587c0.605,-0.339 1.324,-0.411 1.984,-0.2c20.112,6.436 33.213,8.58 53.742,11.034c0.689,0.083 1.314,0.448 1.723,1.01c0.409,0.561 0.566,1.267 0.434,1.949Zm-5.42,1.683c-18.527,-2.267 -31.263,-4.449 -49.447,-10.107l-23.003,94.014l22.54,-9.978c0.749,-0.332 1.614,-0.275 2.314,0.152l29.689,18.113l17.907,-92.194Z" style="fill:#34314c;"/><path d="M194.017,402.066l7.745,97.023l-35.298,-14.251l-30.421,9.853l0.695,-92.469c19.146,1.599 38.311,1.528 57.279,-0.156Z" style="fill:#ffc952;"/><path d="M196.509,401.867l7.745,97.023c0.069,0.863 -0.314,1.701 -1.012,2.214c-0.699,0.513 -1.613,0.627 -2.416,0.303c0,0 -34.456,-13.911 -34.456,-13.911l-29.557,9.573c-0.764,0.248 -1.601,0.113 -2.248,-0.362c-0.648,-0.475 -1.028,-1.232 -1.022,-2.035l0.695,-92.469c0.005,-0.696 0.301,-1.358 0.815,-1.827c0.513,-0.469 1.2,-0.703 1.893,-0.645c19.003,1.587 38.024,1.516 56.85,-0.155c0.664,-0.059 1.325,0.149 1.834,0.58c0.51,0.43 0.826,1.046 0.879,1.711Zm-4.784,2.903c-17.401,1.413 -34.957,1.48 -52.507,0.157l-0.649,86.318l27.125,-8.786c0.558,-0.18 1.162,-0.159 1.706,0.061c-0,-0 31.548,12.737 31.548,12.737l-7.223,-90.487Z" style="fill:#34314c;"/><path d="M270.139,386.272l23.37,93.53l-36.771,-5.759l-33.272,18.878l-12.186,-92.84c20.002,-2.826 39.708,-7.452 58.859,-13.809Z" style="fill:#47b8e0;"/><path d="M272.565,385.666l23.37,93.53c0.203,0.813 -0.015,1.674 -0.581,2.293c-0.565,0.618 -1.404,0.912 -2.232,0.783l-35.909,-5.624l-32.514,18.448c-0.723,0.41 -1.603,0.434 -2.348,0.063c-0.744,-0.371 -1.256,-1.088 -1.364,-1.912l-12.185,-92.841c-0.179,-1.359 0.771,-2.609 2.129,-2.8c19.853,-2.805 39.412,-7.397 58.421,-13.707c0.66,-0.219 1.382,-0.153 1.992,0.182c0.61,0.336 1.052,0.91 1.221,1.585Zm-4.2,3.818c-17.703,5.72 -35.865,9.977 -54.285,12.717l11.381,86.714l30.044,-17.046c0.491,-0.279 1.062,-0.383 1.62,-0.296c0,0 33.044,5.175 33.044,5.175l-21.804,-87.264Z" style="fill:#34314c;"/><path d="M335.174,356.668l42.881,99.974l-34.909,3.981l-26.203,19.949l-31.576,-99.764c17.186,-6.639 33.854,-14.703 49.807,-24.14Z" style="fill:#ffc952;"/><path d="M337.472,355.683l42.88,99.973c0.312,0.727 0.262,1.558 -0.135,2.241c-0.397,0.684 -1.094,1.139 -1.879,1.229l-34.225,3.903l-25.656,19.532c-0.647,0.493 -1.494,0.64 -2.269,0.394c-0.776,-0.245 -1.383,-0.853 -1.629,-1.628l-31.576,-99.765c-0.398,-1.259 0.251,-2.611 1.483,-3.086c17.058,-6.59 33.601,-14.594 49.435,-23.96c0.619,-0.366 1.366,-0.448 2.049,-0.224c0.684,0.223 1.238,0.73 1.522,1.391Zm-3.479,4.574c-14.644,8.496 -29.872,15.852 -45.536,22.028c-0,0 29.797,94.146 29.797,94.146l23.378,-17.798c0.358,-0.272 0.783,-0.443 1.231,-0.494l31.57,-3.6l-40.44,-94.282Z" style="fill:#34314c;"/><path d="M394.087,312.316l59.557,79.94l-38.068,6.468l-19.275,33.67l-48.554,-83.546c16.372,-10.693 31.895,-22.891 46.34,-36.532Z" style="fill:#ffc952;"/><path d="M396.092,310.822l59.556,79.94c0.52,0.698 0.64,1.616 0.316,2.423c-0.323,0.808 -1.044,1.39 -1.902,1.535c0,0 -36.903,6.271 -36.903,6.271l-18.689,32.645c-0.444,0.775 -1.268,1.255 -2.161,1.258c-0.894,0.003 -1.721,-0.472 -2.17,-1.244l-48.553,-83.545c-0.668,-1.15 -0.319,-2.622 0.794,-3.35c16.248,-10.613 31.654,-22.719 45.991,-36.257c0.518,-0.49 1.222,-0.735 1.933,-0.673c0.711,0.062 1.361,0.425 1.788,0.997Zm-2.338,5.231c-13.382,12.425 -27.659,23.635 -42.657,33.584l45.187,77.753l17.122,-29.908c0.372,-0.648 1.014,-1.097 1.751,-1.222l34.042,-5.785l-55.445,-74.422Z" style="fill:#34314c;"/></g><g><path d="M78.223,466.193c-4.384,-0.919 -7.53,-2.756 -9.438,-5.51c-1.894,-2.816 -2.474,-5.978 -1.739,-9.486c0.512,-2.443 1.435,-4.506 2.769,-6.188c1.396,-1.669 3.14,-2.971 5.232,-3.905c2.093,-0.935 4.426,-1.459 7,-1.574c2.65,-0.164 5.447,0.063 8.391,0.68c0.814,0.171 1.653,0.38 2.517,0.626c0.94,0.197 1.898,0.463 2.874,0.799c0.989,0.272 1.996,0.614 3.021,1.025l-1.033,5.865c-0.9,-0.385 -1.813,-0.707 -2.74,-0.967c-0.926,-0.259 -1.884,-0.525 -2.873,-0.798c-0.927,-0.26 -1.797,-0.475 -2.611,-0.646c-2.13,-0.446 -4.049,-0.652 -5.756,-0.618c-1.632,-0.015 -3.09,0.235 -4.375,0.751c-1.272,0.452 -2.339,1.177 -3.202,2.173c-0.787,0.947 -1.344,2.203 -1.673,3.769c-0.249,1.19 -0.278,2.263 -0.086,3.219c0.205,0.893 0.568,1.656 1.09,2.288c0.584,0.646 1.288,1.186 2.112,1.62c0.825,0.434 1.769,0.763 2.834,0.986c2.005,0.421 3.831,0.444 5.479,0.07c1.723,-0.424 3.268,-1.244 4.635,-2.461c1.367,-1.218 2.518,-2.808 3.452,-4.77c1.01,-2.011 1.811,-4.426 2.402,-7.245c0.866,-4.134 1.16,-7.408 0.881,-9.82c-0.279,-2.413 -1.141,-4.228 -2.585,-5.446c-1.369,-1.268 -3.307,-2.165 -5.812,-2.69c-1.817,-0.381 -3.674,-0.411 -5.573,-0.089c-1.835,0.334 -3.669,1.127 -5.5,2.378l-2.735,-5.674c2.362,-1.597 4.863,-2.61 7.503,-3.037c2.653,-0.49 5.358,-0.446 8.114,0.131c2.568,0.539 4.845,1.376 6.83,2.511c1.998,1.073 3.585,2.55 4.76,4.431c1.175,1.881 1.888,4.254 2.137,7.118c0.263,2.801 -0.026,6.207 -0.866,10.215l-4.924,23.49l-7.799,-1.635l1.241,-5.919c-0.978,1.233 -2.066,2.215 -3.265,2.944c-1.137,0.743 -2.321,1.247 -3.554,1.511c-1.157,0.216 -2.35,0.292 -3.579,0.231c-1.243,0.001 -2.428,-0.117 -3.556,-0.353Z" style="fill:#34314c;fill-rule:nonzero;"/><path d="M153.635,474.56l-0.071,-6.432l11.519,-0.126l-0.562,-51.165l-11.039,0.121l-0.071,-6.432l18.719,-0.205l0.633,57.596l11.327,-0.124l0.071,6.431l-30.526,0.336Z" style="fill:#34314c;fill-rule:nonzero;"/><path d="M242.142,467.133l-1.438,-6.269l9.825,-2.253l-6.994,-30.504l-9.264,2.124l-1.437,-6.269l16.656,-3.819l8.432,36.773l8.982,-2.06l1.438,6.27l-26.2,6.007Zm1.235,-54.749c-1.372,0.315 -2.672,0.088 -3.899,-0.681c-1.227,-0.77 -1.998,-1.84 -2.312,-3.213c-0.329,-1.435 -0.133,-2.727 0.588,-3.877c0.769,-1.227 1.871,-2.005 3.306,-2.334c1.372,-0.315 2.672,-0.088 3.899,0.682c1.227,0.769 1.998,1.84 2.312,3.212c0.315,1.372 0.088,2.672 -0.682,3.899c-0.769,1.227 -1.84,1.998 -3.212,2.312Z" style="fill:#34314c;fill-rule:nonzero;"/><path d="M344.628,450.835c-2.545,1.205 -4.94,2.055 -7.183,2.551c-2.244,0.495 -4.294,0.651 -6.151,0.468c-1.799,-0.21 -3.376,-0.774 -4.73,-1.691c-1.355,-0.916 -2.443,-2.242 -3.264,-3.978c-0.739,-1.562 -1.092,-3.13 -1.058,-4.703c0.061,-1.516 0.378,-2.941 0.951,-4.274c0.631,-1.361 1.457,-2.531 2.481,-3.511l3.904,0.17c-0.567,1.047 -0.989,2.026 -1.266,2.936c-0.305,0.852 -0.424,1.723 -0.357,2.612c0.094,0.947 0.401,1.969 0.921,3.069c0.439,0.925 1.053,1.625 1.845,2.101c0.849,0.447 1.846,0.684 2.99,0.708c1.172,0.083 2.449,-0.061 3.832,-0.432c1.44,-0.399 2.998,-0.995 4.676,-1.789c2.198,-1.041 3.868,-2.15 5.01,-3.327c1.227,-1.148 1.982,-2.319 2.266,-3.516c0.283,-1.196 0.151,-2.373 -0.396,-3.53c-0.548,-1.157 -1.202,-2.015 -1.963,-2.576c-0.734,-0.502 -1.79,-0.639 -3.169,-0.411c-1.406,0.17 -3.266,0.802 -5.58,1.898c-1.794,0.848 -3.499,1.585 -5.115,2.208c-1.644,0.566 -3.198,0.947 -4.663,1.145c-1.464,0.197 -2.81,0.197 -4.036,-0.001c-1.169,-0.226 -2.19,-0.663 -3.064,-1.312c-0.901,-0.706 -1.639,-1.667 -2.214,-2.882c-0.766,-1.619 -1.044,-3.329 -0.834,-5.128c0.211,-1.799 0.694,-3.621 1.449,-5.465l4.407,0.782c-0.22,0.883 -0.394,1.638 -0.522,2.265c-0.155,0.569 -0.224,1.097 -0.206,1.584c0.076,0.46 0.251,0.979 0.525,1.557c0.383,0.81 1.03,1.354 1.94,1.631c0.941,0.192 2.289,0.049 4.046,-0.428c1.787,-0.563 4.098,-1.515 6.932,-2.856c2.604,-1.233 4.867,-1.985 6.791,-2.259c1.897,-0.331 3.541,-0.224 4.932,0.321c1.363,0.488 2.549,1.272 3.556,2.353c0.98,1.023 1.812,2.258 2.497,3.704c0.766,1.62 1.174,3.303 1.222,5.051c0.133,1.777 -0.162,3.546 -0.887,5.305c-0.725,1.76 -1.936,3.466 -3.632,5.118c-1.696,1.652 -3.99,3.163 -6.883,4.532Zm-14.814,-27.931c-2.603,1.232 -5.175,1.706 -7.717,1.422c-2.484,-0.311 -4.768,-1.248 -6.853,-2.81c-2.055,-1.648 -3.698,-3.773 -4.93,-6.376c-1.259,-2.661 -1.861,-5.279 -1.806,-7.855c0.114,-2.602 0.837,-4.963 2.171,-7.081c1.365,-2.204 3.32,-3.908 5.865,-5.113c2.661,-1.259 5.247,-1.704 7.758,-1.335c2.484,0.311 4.74,1.261 6.767,2.851c2.084,1.562 3.757,3.674 5.016,6.335c1.232,2.603 1.805,5.235 1.719,7.895c-0.055,2.576 -0.75,4.923 -2.084,7.041c-1.334,2.118 -3.303,3.794 -5.906,5.026Zm-2.797,-5.686c1.388,-0.657 2.439,-1.579 3.151,-2.766c0.686,-1.245 1.03,-2.612 1.034,-4.101c0.034,-1.573 -0.305,-3.112 -1.017,-4.616c-0.767,-1.62 -1.756,-2.887 -2.967,-3.8c-1.154,-0.941 -2.415,-1.512 -3.785,-1.714c-1.37,-0.201 -2.749,0.027 -4.137,0.684c-1.331,0.63 -2.353,1.538 -3.065,2.725c-0.713,1.187 -1.1,2.539 -1.161,4.055c-0.004,1.488 0.378,3.042 1.145,4.662c0.711,1.504 1.658,2.756 2.839,3.754c1.153,0.941 2.428,1.541 3.826,1.801c1.427,0.174 2.806,-0.054 4.137,-0.684Zm4.188,-18.976l-4.246,-2.239c0.765,-2.274 1.808,-4.184 3.13,-5.73c1.379,-1.573 3.209,-2.793 5.489,-3.66l3.41,5.184c-1.76,0.62 -3.323,1.431 -4.69,2.432c-1.367,1.001 -2.398,2.339 -3.093,4.013Z" style="fill:#34314c;fill-rule:nonzero;"/><path d="M399.401,400.001l-26.95,-34.982l5.931,-4.57l4.394,5.704c-0.243,-1.994 -0.229,-3.863 0.043,-5.608c0.272,-1.744 0.821,-3.339 1.647,-4.783c0.838,-1.534 1.967,-2.848 3.386,-3.942c1.775,-1.367 3.743,-2.116 5.904,-2.246c2.174,-0.22 4.486,0.422 6.938,1.926c2.463,1.415 5.062,3.897 7.796,7.446l16.464,21.369l-5.932,4.57l-16.346,-21.217c-1.758,-2.282 -3.373,-3.906 -4.845,-4.872c-1.46,-1.057 -2.83,-1.577 -4.11,-1.56c-1.229,-0.023 -2.376,0.376 -3.441,1.197c-1.014,0.781 -1.826,1.771 -2.438,2.969c-0.612,1.198 -0.997,2.586 -1.156,4.162c-0.147,1.487 -0.006,3.034 0.425,4.642c0.43,1.607 1.251,3.197 2.462,4.768l15.76,20.457l-5.932,4.57Z" style="fill:#34314c;fill-rule:nonzero;"/></g><g id="bunting_string"><path d="M408.503,294.161c0.934,-1.015 2.517,-1.08 3.532,-0.146c1.015,0.935 1.081,2.518 0.146,3.533c-93.342,101.377 -241.361,136.187 -370.959,84.809c-1.283,-0.508 -1.912,-1.963 -1.403,-3.245c0.508,-1.283 1.963,-1.911 3.245,-1.403c127.67,50.614 273.486,16.321 365.439,-83.548Z" style="fill:#34314c;"/></g></g><g id="bunting1"><g id="bunting_flags1" serif:id="bunting_flags"><path d="M80.997,56.369c11.524,13.446 23.948,25.78 37.121,36.973l-66.059,69.36l-16.184,-27.603l-30.566,-15.812l75.688,-62.918Z" style="fill:#ff914e;"/><path d="M82.895,54.742c11.438,13.345 23.768,25.586 36.842,36.695c0.524,0.446 0.841,1.087 0.877,1.774c0.036,0.686 -0.212,1.358 -0.686,1.856l-66.059,69.36c-0.541,0.568 -1.318,0.849 -2.098,0.759c-0.78,-0.091 -1.472,-0.542 -1.869,-1.219l-15.818,-26.98l-29.923,-15.48c-0.745,-0.385 -1.247,-1.118 -1.337,-1.951c-0.091,-0.833 0.243,-1.656 0.887,-2.192l75.688,-62.917c1.051,-0.874 2.608,-0.742 3.496,0.295Zm-2.186,5.118l-70.902,58.939l27.216,14.08c0.42,0.217 0.769,0.548 1.008,0.956l14.506,24.74c0,0 61.953,-65.048 61.953,-65.048c-11.92,-10.293 -23.218,-21.522 -33.781,-33.667Z" style="fill:#f37272;"/><path d="M130.909,103.675c15.596,11.972 32.11,22.44 49.312,31.36l-48.316,82.642l-19.62,-24.671l-36.733,-10.907l55.357,-78.424Z" style="fill:#ffc952;"/><path d="M132.431,101.692c15.479,11.882 31.868,22.27 48.941,31.124c0.608,0.315 1.06,0.866 1.251,1.524c0.19,0.658 0.102,1.365 -0.244,1.957l-48.316,82.642c-0.417,0.712 -1.157,1.173 -1.98,1.232c-0.823,0.058 -1.622,-0.292 -2.135,-0.938l-19.13,-24.054l-35.978,-10.684c-0.772,-0.229 -1.386,-0.816 -1.65,-1.577c-0.264,-0.761 -0.145,-1.603 0.319,-2.261l55.357,-78.423c0.393,-0.556 0.995,-0.928 1.667,-1.03c0.673,-0.102 1.358,0.074 1.898,0.488Zm-0.975,5.543l-51.852,73.459l33.393,9.916c0.491,0.146 0.926,0.439 1.245,0.84l17.347,21.814c-0,-0 45.152,-77.229 45.152,-77.229c-15.738,-8.318 -30.891,-17.929 -45.285,-28.8Z" style="fill:#f37272;"/><path d="M193.457,141.531c17.308,8.025 35.232,14.533 53.552,19.483l-31.641,91.669l-29.589,-20.045l-29.152,-1.763l36.83,-89.344Z" style="fill:#ffc952;"/><path d="M194.508,139.263c17.18,7.965 34.969,14.425 53.153,19.338c0.669,0.18 1.233,0.63 1.557,1.243c0.325,0.612 0.38,1.331 0.154,1.986l-31.64,91.668c-0.254,0.735 -0.836,1.311 -1.574,1.556c-0.738,0.246 -1.548,0.135 -2.192,-0.302l-29.022,-19.66l-28.468,-1.722c-0.806,-0.049 -1.539,-0.484 -1.968,-1.168c-0.428,-0.684 -0.5,-1.534 -0.193,-2.28l36.83,-89.344c0.26,-0.63 0.766,-1.127 1.401,-1.375c0.635,-0.249 1.344,-0.227 1.962,0.06Zm0.269,5.625c0,-0 -34.505,83.703 -34.505,83.703l25.658,1.551c0.448,0.028 0.88,0.175 1.251,0.426c0,0 26.889,18.215 26.889,18.215c5.421,-15.706 29.706,-86.064 29.706,-86.064c-16.726,-4.661 -33.114,-10.615 -48.999,-17.831Z" style="fill:#f37272;"/><path d="M257.865,163.754c17.958,4.216 36.25,6.95 54.676,8.167l-7.788,93.554l-26.176,-13.131l-36.823,6.057l16.111,-94.647Z" style="fill:#47b8e0;"/><path d="M258.436,161.32c17.824,4.184 35.98,6.899 54.269,8.106c0.669,0.044 1.293,0.355 1.73,0.863c0.438,0.508 0.653,1.171 0.597,1.839l-7.788,93.554c-0.069,0.827 -0.544,1.566 -1.268,1.973c-0.724,0.406 -1.602,0.426 -2.344,0.054l-25.45,-12.767l-36.023,5.926c-0.797,0.131 -1.608,-0.132 -2.178,-0.704c-0.57,-0.573 -0.828,-1.386 -0.692,-2.183l16.111,-94.646c0.116,-0.681 0.508,-1.283 1.083,-1.664c0.575,-0.382 1.282,-0.508 1.953,-0.351Zm1.449,5.465l-15.079,88.58l33.365,-5.488c0.521,-0.086 1.055,-0.005 1.527,0.232l22.87,11.473l7.271,-87.344c-16.82,-1.237 -33.522,-3.731 -49.954,-7.453Z" style="fill:#f37272;"/><path d="M332.184,172.64c18.803,0.137 37.67,-1.308 56.391,-4.376l10.288,88.923l-31.999,-7.16l-29.453,14.887l-5.227,-92.274Z" style="fill:#ffc952;"/><path d="M332.203,170.14c18.661,0.137 37.387,-1.298 55.968,-4.343c0.675,-0.111 1.365,0.06 1.911,0.472c0.545,0.411 0.898,1.029 0.977,1.708l10.288,88.922c0.093,0.805 -0.21,1.604 -0.811,2.146c-0.602,0.541 -1.429,0.758 -2.219,0.581l-31.124,-6.964l-28.655,14.483c-0.752,0.38 -1.646,0.356 -2.376,-0.066c-0.731,-0.421 -1.2,-1.182 -1.247,-2.024l-5.227,-92.273c-0.039,-0.69 0.209,-1.365 0.685,-1.865c0.477,-0.501 1.139,-0.782 1.83,-0.777Zm2.627,5.009l4.861,85.811l26.046,-13.165c0.517,-0.261 1.108,-0.334 1.673,-0.208l28.565,6.392c0,-0 -9.583,-82.834 -9.583,-82.834c-17.127,2.669 -34.367,3.994 -51.562,4.004Z" style="fill:#f37272;"/><path d="M409.281,164.191c17.774,-4.087 35.344,-9.672 52.524,-16.788l28.672,109.795l-32.694,-4.682l-31.111,15.362l-17.391,-103.687Z" style="fill:#ffc952;"/><path d="M408.721,161.755c17.64,-4.057 35.077,-9.599 52.127,-16.662c0.668,-0.277 1.423,-0.251 2.07,0.071c0.647,0.322 1.123,0.908 1.306,1.607l28.672,109.795c0.211,0.81 0.003,1.673 -0.554,2.297c-0.558,0.625 -1.391,0.928 -2.22,0.81l-31.927,-4.572l-30.416,15.018c-0.709,0.35 -1.542,0.344 -2.246,-0.016c-0.704,-0.36 -1.196,-1.032 -1.327,-1.812l-17.391,-103.686c-0.219,-1.305 0.617,-2.554 1.906,-2.85Zm3.414,4.337l16.446,98.055l28.095,-13.873c0.453,-0.223 0.962,-0.304 1.462,-0.233l28.97,4.149c-0,0 -27,-103.392 -27,-103.392c-15.723,6.356 -31.76,11.445 -47.973,15.294Z" style="fill:#f37272;"/></g><g id="bunting_string1" serif:id="bunting_string"><path d="M483.823,134.526c1.23,-0.624 2.736,-0.132 3.36,1.099c0.625,1.23 0.132,2.736 -1.098,3.36c-146.042,74.074 -327.638,31.912 -425.12,-104.11c-0.804,-1.121 -0.546,-2.685 0.576,-3.488c1.121,-0.804 2.684,-0.546 3.488,0.575c96.032,133.999 274.925,175.535 418.794,102.564Z" style="fill:#f37272;"/></g><g><path d="M47.55,125.582c-1.672,-1.677 -3.049,-3.422 -4.132,-5.234c-1.129,-1.767 -2.008,-3.601 -2.639,-5.503c-0.585,-1.946 -0.899,-3.938 -0.941,-5.975l7.607,-2.295l0.951,-0.135l0.202,0.612c-0.272,0.452 -0.544,0.949 -0.817,1.492c-0.227,0.497 -0.364,1.266 -0.411,2.307c0.088,1.72 0.47,3.418 1.146,5.093c0.721,1.721 1.94,3.443 3.657,5.165c1.356,1.36 2.689,2.335 4.001,2.925c1.356,0.546 2.623,0.729 3.8,0.55c1.267,-0.179 2.354,-0.721 3.261,-1.624c0.635,-0.633 1.066,-1.288 1.293,-1.967c0.273,-0.723 0.342,-1.561 0.208,-2.511c-0.089,-0.996 -0.359,-2.128 -0.809,-3.395c-0.451,-1.268 -1.059,-2.74 -1.826,-4.416c-1.444,-2.808 -2.526,-5.434 -3.246,-7.879c-0.629,-2.445 -0.784,-4.686 -0.464,-6.722c0.365,-2.081 1.364,-3.934 2.996,-5.561c1.586,-1.581 3.398,-2.574 5.435,-2.978c2.083,-0.359 4.277,-0.106 6.584,0.757c2.306,0.864 4.612,2.452 6.916,4.763c1.265,1.269 2.326,2.561 3.184,3.875c0.903,1.268 1.603,2.559 2.098,3.872c0.541,1.268 0.901,2.581 1.08,3.939c0.179,1.358 0.199,2.784 0.061,4.277l-6.722,1.007l-0.951,0.135l-0.066,-0.747c0.317,-0.407 0.589,-0.859 0.816,-1.357c0.228,-0.497 0.364,-1.221 0.411,-2.171c-0.178,-1.63 -0.651,-3.146 -1.418,-4.551c-0.722,-1.449 -1.625,-2.717 -2.709,-3.805c-1.581,-1.587 -3.232,-2.608 -4.951,-3.063c-1.718,-0.455 -3.167,-0.096 -4.346,1.079c-0.68,0.678 -1.134,1.537 -1.362,2.577c-0.137,1.041 0.042,2.399 0.537,4.074c0.495,1.675 1.397,3.804 2.705,6.385c1.488,3.125 2.525,5.797 3.11,8.016c0.584,2.218 0.626,4.209 0.126,5.973c-0.411,1.765 -1.386,3.415 -2.927,4.951c-1.859,1.853 -3.988,3.071 -6.387,3.655c-2.354,0.63 -4.821,0.513 -7.399,-0.351c-2.533,-0.909 -5.087,-2.656 -7.662,-5.239Z" style="fill:#34314c;fill-rule:nonzero;"/><path d="M119.257,182.545c-2.105,-1.342 -3.618,-2.838 -4.539,-4.488c-0.922,-1.65 -1.271,-3.542 -1.049,-5.677c0.257,-2.189 1.077,-4.665 2.458,-7.428c1.416,-2.816 3.365,-6.052 5.847,-9.706l17.818,-25.984l7.205,3.341l0.861,0.436l-0.332,0.699c-0.51,0.205 -0.994,0.428 -1.451,0.669c-0.402,0.274 -0.923,0.853 -1.562,1.736l-7.076,9.492l-0.48,1.288l-8.743,12.642c-2.639,3.783 -4.484,6.856 -5.537,9.222c-0.998,2.399 -1.368,4.288 -1.109,5.668c0.347,1.36 1.169,2.453 2.464,3.279c1.619,1.032 3.273,1.593 4.961,1.682c1.689,0.09 3.436,0.028 5.243,-0.187l-1.603,6.265c-2.533,0.282 -4.897,0.18 -7.091,-0.308c-2.193,-0.488 -4.288,-1.368 -6.285,-2.641Zm6.917,-48.53l24.77,15.791l-3.457,5.424l-24.852,-15.843l3.539,-5.372Z" style="fill:#34314c;fill-rule:nonzero;"/><path d="M197.674,172.613l7.5,2.691l-4.395,11.682l-0.359,-1.557c0.949,-1.699 2.064,-3.101 3.344,-4.206c1.302,-1.165 2.698,-2.024 4.188,-2.577c1.573,-0.592 3.108,-0.891 4.606,-0.897c1.58,-0.045 3.093,0.192 4.539,0.71c2.048,0.735 3.775,1.797 5.181,3.185c1.406,1.388 2.49,3.103 3.253,5.145l-5.211,4.861l-0.563,0.716l-0.626,-0.53c0.053,-0.525 0.075,-1.061 0.067,-1.608c0.014,-0.607 -0.263,-1.352 -0.83,-2.235c-0.567,-0.884 -1.199,-1.586 -1.895,-2.108c-0.675,-0.583 -1.465,-1.036 -2.368,-1.36c-1.326,-0.475 -2.759,-0.65 -4.3,-0.523c-1.46,0.089 -2.937,0.511 -4.432,1.266c-1.495,0.756 -2.898,1.918 -4.209,3.488c-1.251,1.591 -2.319,3.621 -3.205,6.091l-7.91,22.048l-7.32,-2.626l14.945,-41.656Z" style="fill:#34314c;fill-rule:nonzero;"/><path d="M264.996,237.509l0.892,-6.37l9.983,1.398l4.338,-30.994l-9.412,-1.318l0.891,-6.369l16.923,2.368l-5.23,37.364l9.127,1.278l-0.891,6.369l-26.621,-3.726Zm20.67,-50.712c-1.395,-0.195 -2.528,-0.871 -3.4,-2.027c-0.872,-1.156 -1.211,-2.431 -1.016,-3.826c0.204,-1.457 0.848,-2.595 1.932,-3.413c1.156,-0.872 2.463,-1.206 3.921,-1.002c1.394,0.195 2.528,0.871 3.4,2.027c0.872,1.156 1.21,2.431 1.015,3.826c-0.195,1.394 -0.871,2.527 -2.027,3.399c-1.156,0.873 -2.431,1.211 -3.825,1.016Z" style="fill:#34314c;fill-rule:nonzero;"/><path d="M349.533,243.345l-3.38,-44.031l7.466,-0.573l0.551,7.179c0.889,-1.801 1.925,-3.357 3.108,-4.668c1.184,-1.31 2.516,-2.343 3.999,-3.099c1.541,-0.824 3.205,-1.305 4.992,-1.442c2.234,-0.171 4.29,0.281 6.17,1.356c1.939,1.007 3.521,2.811 4.748,5.412c1.286,2.534 2.1,6.033 2.443,10.5l2.064,26.897l-7.466,0.573l-2.05,-26.705c-0.22,-2.872 -0.681,-5.115 -1.383,-6.73c-0.642,-1.684 -1.504,-2.869 -2.583,-3.557c-1.016,-0.692 -2.194,-0.987 -3.534,-0.884c-1.277,0.098 -2.499,0.481 -3.667,1.148c-1.169,0.667 -2.251,1.617 -3.248,2.849c-0.938,1.163 -1.667,2.535 -2.187,4.115c-0.521,1.581 -0.705,3.36 -0.553,5.338l1.976,25.749l-7.466,0.573Z" style="fill:#34314c;fill-rule:nonzero;"/><path d="M455.729,242.196c-2.695,0.818 -5.188,1.308 -7.48,1.469c-2.292,0.161 -4.343,0.015 -6.153,-0.439c-1.749,-0.472 -3.226,-1.261 -4.431,-2.366c-1.205,-1.106 -2.087,-2.577 -2.645,-4.414c-0.502,-1.653 -0.621,-3.256 -0.357,-4.808c0.284,-1.49 0.806,-2.853 1.568,-4.088c0.823,-1.253 1.813,-2.289 2.969,-3.109l3.837,0.741c-0.714,0.953 -1.275,1.859 -1.683,2.719c-0.426,0.798 -0.672,1.642 -0.736,2.531c-0.046,0.95 0.108,2.007 0.461,3.17c0.298,0.98 0.803,1.763 1.516,2.349c0.775,0.568 1.726,0.948 2.855,1.14c1.147,0.253 2.431,0.298 3.853,0.134c1.483,-0.183 3.112,-0.544 4.888,-1.083c2.327,-0.707 4.142,-1.559 5.444,-2.557c1.382,-0.955 2.301,-2.003 2.757,-3.145c0.456,-1.142 0.498,-2.325 0.126,-3.55c-0.372,-1.224 -0.893,-2.17 -1.564,-2.836c-0.652,-0.604 -1.676,-0.895 -3.074,-0.872c-1.416,-0.038 -3.349,0.315 -5.798,1.059c-1.899,0.577 -3.693,1.055 -5.384,1.434c-1.709,0.319 -3.302,0.468 -4.78,0.449c-1.477,-0.02 -2.808,-0.217 -3.993,-0.593c-1.123,-0.395 -2.069,-0.977 -2.838,-1.747c-0.787,-0.831 -1.376,-1.889 -1.767,-3.175c-0.521,-1.715 -0.545,-3.447 -0.073,-5.195c0.473,-1.749 1.218,-3.48 2.235,-5.194l4.244,1.42c-0.346,0.841 -0.629,1.562 -0.848,2.164c-0.237,0.54 -0.382,1.052 -0.436,1.537c0.008,0.465 0.105,1.005 0.291,1.617c0.26,0.857 0.82,1.49 1.68,1.898c0.902,0.328 2.257,0.384 4.065,0.17c1.85,-0.295 4.276,-0.898 7.276,-1.809c2.756,-0.837 5.105,-1.25 7.049,-1.238c1.924,-0.049 3.535,0.298 4.831,1.041c1.277,0.682 2.335,1.632 3.173,2.849c0.819,1.156 1.461,2.499 1.926,4.03c0.521,1.715 0.677,3.44 0.468,5.176c-0.129,1.778 -0.681,3.484 -1.656,5.118c-0.975,1.634 -2.423,3.144 -4.343,4.529c-1.92,1.386 -4.411,2.544 -7.473,3.474Zm-10.557,-29.802c-2.755,0.837 -5.37,0.928 -7.842,0.275c-2.412,-0.673 -4.534,-1.934 -6.367,-3.785c-1.79,-1.932 -3.104,-4.275 -3.941,-7.031c-0.856,-2.817 -1.067,-5.495 -0.634,-8.034c0.494,-2.558 1.556,-4.787 3.186,-6.687c1.673,-1.979 3.857,-3.378 6.551,-4.197c2.817,-0.855 5.44,-0.916 7.871,-0.183c2.411,0.673 4.503,1.944 6.274,3.813c1.834,1.852 3.178,4.186 4.033,7.003c0.837,2.755 1.018,5.443 0.543,8.062c-0.433,2.539 -1.464,4.759 -3.095,6.659c-1.63,1.899 -3.823,3.268 -6.579,4.105Zm-1.933,-6.035c1.47,-0.446 2.644,-1.204 3.523,-2.274c0.861,-1.131 1.402,-2.432 1.624,-3.904c0.264,-1.552 0.155,-3.124 -0.329,-4.716c-0.521,-1.715 -1.313,-3.113 -2.377,-4.194c-1.003,-1.1 -2.167,-1.85 -3.493,-2.251c-1.325,-0.4 -2.723,-0.376 -4.193,0.07c-1.408,0.428 -2.552,1.176 -3.431,2.246c-0.879,1.07 -1.46,2.35 -1.743,3.84c-0.222,1.472 -0.073,3.066 0.448,4.78c0.484,1.593 1.236,2.969 2.258,4.13c1.003,1.1 2.176,1.881 3.52,2.342c1.387,0.382 2.785,0.359 4.193,-0.069Zm6.927,-18.157l-3.872,-2.837c1.09,-2.137 2.402,-3.873 3.936,-5.209c1.596,-1.354 3.585,-2.292 5.967,-2.815l2.613,5.628c-1.832,0.355 -3.497,0.928 -4.997,1.718c-1.499,0.789 -2.715,1.961 -3.647,3.515Z" style="fill:#34314c;fill-rule:nonzero;"/></g></g></g></g></g></svg>
