<?xml version="1.0" encoding="UTF-8" standalone="no"?><!DOCTYPE svg PUBLIC "-//W3C//DTD SVG 1.1//EN" "http://www.w3.org/Graphics/SVG/1.1/DTD/svg11.dtd"><svg width="100%" height="100%" viewBox="0 0 2066 2221" version="1.1" xmlns="http://www.w3.org/2000/svg" xmlns:xlink="http://www.w3.org/1999/xlink" xml:space="preserve" xmlns:serif="http://www.serif.com/" style="fill-rule:evenodd;clip-rule:evenodd;stroke-linejoin:round;stroke-miterlimit:2;"><rect id="Artboard1" x="0" y="0" width="2065.78" height="2220.02" style="fill:none;"/><g id="bunting"><g id="Layer5"><g><g id="bunting2"><g id="bunting_flags"><path d="M520.628,1670.94L441.028,2080.77L304.528,1997.5L191.244,2047.65L294.767,1624.54C379.294,1651.59 434.349,1660.62 520.628,1670.94Z" style="fill:rgb(71,184,224);"/><path d="M530.854,1672.93L451.254,2082.76C450.603,2086.11 448.354,2088.93 445.233,2090.3C442.113,2091.68 438.515,2091.44 435.603,2089.67L303.759,2009.23L195.46,2057.17C191.83,2058.78 187.601,2058.18 184.557,2055.63C181.513,2053.09 180.182,2049.03 181.126,2045.17L284.649,1622.07C285.335,1619.26 287.156,1616.87 289.676,1615.45C292.197,1614.04 295.19,1613.74 297.941,1614.62C381.742,1641.44 436.328,1650.37 521.865,1660.6C524.739,1660.94 527.34,1662.46 529.045,1664.8C530.75,1667.14 531.406,1670.08 530.854,1672.93ZM508.269,1679.94C431.076,1670.49 378.009,1661.4 302.241,1637.82L206.396,2029.55L300.312,1987.98C303.435,1986.59 307.038,1986.83 309.953,1988.61L433.66,2064.08L508.269,1679.94Z" style="fill:rgb(52,49,76);"/><path d="M808.405,1675.27L840.675,2079.54L693.6,2020.16L566.844,2061.21L569.742,1675.92C649.518,1682.59 729.371,1682.29 808.405,1675.27Z" style="fill:rgb(71,184,224);"/><path d="M818.788,1674.44L851.059,2078.71C851.346,2082.31 849.75,2085.8 846.84,2087.93C843.931,2090.07 840.123,2090.55 836.775,2089.2C836.775,2089.2 693.21,2031.23 693.21,2031.23L570.054,2071.12C566.87,2072.15 563.385,2071.59 560.686,2069.61C557.987,2067.64 556.403,2064.48 556.428,2061.13L559.326,1675.85C559.348,1672.95 560.577,1670.19 562.719,1668.23C564.86,1666.28 567.72,1665.3 570.609,1665.54C649.787,1672.16 729.042,1671.86 807.484,1664.9C810.252,1664.65 813.003,1665.52 815.126,1667.32C817.249,1669.11 818.567,1671.67 818.788,1674.44ZM798.854,1686.54C726.351,1692.43 653.198,1692.71 580.075,1687.19L577.369,2046.85L690.39,2010.25C692.716,2009.49 695.233,2009.58 697.5,2010.5C697.5,2010.5 828.951,2063.57 828.951,2063.57L798.854,1686.54Z" style="fill:rgb(52,49,76);"/><path d="M1125.58,1609.47L1222.95,1999.17L1069.74,1975.18L931.107,2053.84L880.335,1667C963.675,1655.23 1045.78,1635.95 1125.58,1609.47Z" style="fill:rgb(122,197,124);"/><path d="M1135.69,1606.94L1233.06,1996.65C1233.91,2000.04 1233,2003.63 1230.64,2006.2C1228.29,2008.78 1224.79,2010.01 1221.34,2009.47L1071.72,1986.03L936.247,2062.9C933.233,2064.61 929.565,2064.71 926.463,2063.16C923.361,2061.62 921.23,2058.63 920.779,2055.19L870.007,1668.36C869.264,1662.7 873.221,1657.49 878.878,1656.69C961.598,1645 1043.1,1625.87 1122.3,1599.58C1125.05,1598.67 1128.06,1598.94 1130.6,1600.34C1133.14,1601.74 1134.98,1604.13 1135.69,1606.94ZM1118.19,1622.85C1044.42,1646.68 968.751,1664.42 892,1675.84L939.422,2037.14L1064.6,1966.12C1066.65,1964.96 1069.03,1964.52 1071.36,1964.89C1071.36,1964.89 1209.04,1986.45 1209.04,1986.45L1118.19,1622.85Z" style="fill:rgb(52,49,76);"/><path d="M1396.56,1486.12L1575.23,1902.67L1429.78,1919.26L1320.6,2002.38L1189.03,1586.7C1260.64,1559.04 1330.09,1525.44 1396.56,1486.12Z" style="fill:rgb(190,165,207);"/><path d="M1406.13,1482.01L1584.8,1898.57C1586.1,1901.6 1585.89,1905.06 1584.24,1907.9C1582.58,1910.75 1579.68,1912.65 1576.41,1913.02L1433.8,1929.29L1326.9,2010.67C1324.21,2012.73 1320.68,2013.34 1317.45,2012.31C1314.22,2011.29 1311.69,2008.76 1310.66,2005.53L1179.1,1589.84C1177.44,1584.6 1180.14,1578.96 1185.28,1576.98C1256.35,1549.53 1325.28,1516.18 1391.26,1477.15C1393.83,1475.63 1396.94,1475.29 1399.79,1476.21C1402.64,1477.15 1404.95,1479.26 1406.13,1482.01ZM1391.64,1501.07C1330.62,1536.47 1267.17,1567.12 1201.9,1592.86C1201.9,1592.86 1326.06,1985.13 1326.06,1985.13L1423.46,1910.97C1424.96,1909.84 1426.73,1909.12 1428.6,1908.91L1560.14,1893.91L1391.64,1501.07Z" style="fill:rgb(52,49,76);"/><path d="M1642.03,1301.32L1890.18,1634.4L1731.57,1661.35L1651.25,1801.64L1448.95,1453.54C1517.16,1408.98 1581.84,1358.15 1642.03,1301.32Z" style="fill:rgb(122,197,124);"/><path d="M1650.38,1295.09L1898.54,1628.17C1900.7,1631.08 1901.2,1634.91 1899.85,1638.27C1898.5,1641.64 1895.5,1644.06 1891.93,1644.67C1891.93,1644.67 1738.16,1670.8 1738.16,1670.8L1660.29,1806.82C1658.44,1810.05 1655.01,1812.05 1651.29,1812.06C1647.56,1812.07 1644.12,1810.09 1642.25,1806.88L1439.94,1458.77C1437.16,1453.98 1438.61,1447.85 1443.25,1444.81C1510.95,1400.59 1575.14,1350.15 1634.88,1293.74C1637.04,1291.7 1639.97,1290.68 1642.93,1290.94C1645.89,1291.2 1648.61,1292.71 1650.38,1295.09ZM1640.64,1316.89C1584.88,1368.66 1525.4,1415.37 1462.9,1456.82L1651.18,1780.79L1722.53,1656.18C1724.07,1653.47 1726.75,1651.6 1729.82,1651.08L1871.66,1626.98L1640.64,1316.89Z" style="fill:rgb(52,49,76);"/></g><g><path d="M325.931,1942.47C307.661,1938.64 294.553,1930.99 286.604,1919.51C278.711,1907.78 276.296,1894.6 279.36,1879.99C281.494,1869.81 285.339,1861.21 290.895,1854.2C296.712,1847.25 303.98,1841.83 312.697,1837.93C321.415,1834.04 331.137,1831.85 341.863,1831.38C352.904,1830.69 364.559,1831.64 376.825,1834.21C380.218,1834.92 383.714,1835.79 387.314,1836.82C391.228,1837.64 395.219,1838.75 399.286,1840.14C403.407,1841.28 407.604,1842.7 411.877,1844.42L407.571,1868.86C403.821,1867.25 400.015,1865.91 396.155,1864.83C392.295,1863.75 388.304,1862.64 384.183,1861.5C380.323,1860.42 376.696,1859.52 373.303,1858.81C364.429,1856.95 356.435,1856.09 349.321,1856.24C342.523,1856.17 336.446,1857.22 331.092,1859.36C325.792,1861.25 321.345,1864.27 317.75,1868.42C314.471,1872.36 312.148,1877.6 310.78,1884.12C309.741,1889.08 309.621,1893.55 310.421,1897.53C311.276,1901.25 312.789,1904.43 314.961,1907.07C317.395,1909.76 320.329,1912.01 323.764,1913.82C327.199,1915.63 331.135,1917 335.572,1917.93C343.924,1919.68 351.532,1919.77 358.398,1918.22C365.579,1916.45 372.018,1913.03 377.713,1907.96C383.408,1902.89 388.202,1896.26 392.096,1888.09C396.305,1879.71 399.641,1869.64 402.103,1857.9C405.714,1840.67 406.938,1827.04 405.776,1816.98C404.613,1806.93 401.022,1799.37 395.002,1794.29C389.298,1789.01 381.226,1785.27 370.786,1783.08C363.218,1781.5 355.478,1781.37 347.569,1782.71C339.92,1784.11 332.28,1787.41 324.648,1792.62L313.256,1768.98C323.098,1762.32 333.518,1758.11 344.518,1756.32C355.572,1754.28 366.841,1754.47 378.324,1756.87C389.025,1759.12 398.512,1762.6 406.783,1767.33C415.11,1771.8 421.722,1777.96 426.618,1785.8C431.514,1793.63 434.482,1803.52 435.522,1815.45C436.617,1827.13 435.414,1841.32 431.912,1858.02L411.396,1955.89L378.902,1949.08L384.072,1924.41C379.998,1929.56 375.462,1933.64 370.465,1936.68C365.73,1939.78 360.794,1941.88 355.659,1942.98C350.839,1943.88 345.867,1944.2 340.744,1943.94C335.567,1943.95 330.629,1943.46 325.931,1942.47Z" style="fill:rgb(52,49,76);fill-rule:nonzero;"/><path d="M640.144,1977.33L639.85,1950.53L687.847,1950.01L685.505,1736.82L639.508,1737.33L639.213,1710.53L717.209,1709.67L719.845,1949.65L767.042,1949.14L767.337,1975.93L640.144,1977.33Z" style="fill:rgb(52,49,76);fill-rule:nonzero;"/><path d="M1008.92,1946.39L1002.94,1920.27L1043.87,1910.88L1014.73,1783.78L976.13,1792.63L970.141,1766.51L1039.54,1750.59L1074.67,1903.82L1112.1,1895.24L1118.09,1921.36L1008.92,1946.39ZM1014.07,1718.27C1008.35,1719.58 1002.94,1718.63 997.825,1715.43C992.713,1712.22 989.501,1707.76 988.19,1702.04C986.819,1696.06 987.636,1690.68 990.641,1685.89C993.846,1680.77 998.438,1677.53 1004.42,1676.16C1010.13,1674.85 1015.55,1675.8 1020.66,1679C1025.77,1682.21 1028.99,1686.67 1030.3,1692.39C1031.61,1698.11 1030.66,1703.52 1027.46,1708.63C1024.25,1713.75 1019.79,1716.96 1014.07,1718.27Z" style="fill:rgb(52,49,76);fill-rule:nonzero;"/><path d="M1435.95,1878.48C1425.35,1883.5 1415.37,1887.04 1406.02,1889.11C1396.67,1891.17 1388.13,1891.82 1380.39,1891.06C1372.89,1890.18 1366.33,1887.83 1360.68,1884.01C1355.04,1880.19 1350.51,1874.67 1347.08,1867.44C1344,1860.93 1342.53,1854.4 1342.67,1847.84C1342.93,1841.52 1344.25,1835.59 1346.64,1830.03C1349.27,1824.36 1352.71,1819.49 1356.97,1815.4L1373.24,1816.11C1370.88,1820.48 1369.12,1824.55 1367.97,1828.35C1366.7,1831.9 1366.2,1835.52 1366.48,1839.23C1366.87,1843.17 1368.15,1847.43 1370.32,1852.02C1372.14,1855.87 1374.7,1858.79 1378,1860.77C1381.54,1862.63 1385.69,1863.62 1390.46,1863.72C1395.35,1864.07 1400.67,1863.47 1406.43,1861.92C1412.43,1860.26 1418.92,1857.78 1425.91,1854.47C1435.07,1850.13 1442.03,1845.51 1446.79,1840.6C1451.9,1835.82 1455.05,1830.94 1456.23,1825.95C1457.41,1820.97 1456.86,1816.07 1454.58,1811.25C1452.3,1806.43 1449.57,1802.85 1446.4,1800.52C1443.34,1798.42 1438.94,1797.85 1433.2,1798.8C1427.34,1799.51 1419.59,1802.14 1409.94,1806.71C1402.47,1810.24 1395.37,1813.31 1388.63,1815.91C1381.78,1818.27 1375.31,1819.86 1369.2,1820.68C1363.1,1821.5 1357.5,1821.5 1352.39,1820.67C1347.52,1819.73 1343.26,1817.91 1339.62,1815.21C1335.87,1812.27 1332.79,1808.26 1330.4,1803.2C1327.2,1796.45 1326.04,1789.33 1326.92,1781.83C1327.8,1774.34 1329.81,1766.75 1332.96,1759.06L1351.32,1762.32C1350.4,1766 1349.68,1769.14 1349.15,1771.76C1348.5,1774.13 1348.21,1776.33 1348.29,1778.36C1348.61,1780.27 1349.33,1782.44 1350.48,1784.85C1352.07,1788.22 1354.77,1790.49 1358.56,1791.64C1362.48,1792.44 1368.1,1791.85 1375.42,1789.86C1382.86,1787.51 1392.49,1783.55 1404.3,1777.96C1415.15,1772.82 1424.58,1769.69 1432.6,1768.55C1440.5,1767.17 1447.35,1767.61 1453.14,1769.88C1458.83,1771.92 1463.77,1775.18 1467.96,1779.69C1472.05,1783.95 1475.51,1789.1 1478.37,1795.12C1481.56,1801.87 1483.26,1808.88 1483.46,1816.16C1484.01,1823.57 1482.78,1830.94 1479.76,1838.27C1476.74,1845.6 1471.7,1852.71 1464.63,1859.6C1457.56,1866.48 1448,1872.78 1435.95,1878.48ZM1374.23,1762.1C1363.38,1767.23 1352.66,1769.21 1342.07,1768.03C1331.72,1766.73 1322.2,1762.83 1313.52,1756.32C1304.96,1749.45 1298.11,1740.6 1292.98,1729.75C1287.73,1718.66 1285.22,1707.75 1285.45,1697.02C1285.92,1686.18 1288.94,1676.34 1294.5,1667.52C1300.18,1658.33 1308.33,1651.23 1318.93,1646.21C1330.02,1640.97 1340.8,1639.11 1351.26,1640.65C1361.61,1641.95 1371.01,1645.91 1379.45,1652.53C1388.14,1659.04 1395.11,1667.84 1400.35,1678.92C1405.49,1689.77 1407.88,1700.74 1407.52,1711.82C1407.29,1722.55 1404.39,1732.33 1398.83,1741.16C1393.28,1749.99 1385.07,1756.97 1374.23,1762.1ZM1362.57,1738.41C1368.36,1735.67 1372.73,1731.83 1375.7,1726.88C1378.56,1721.69 1379.99,1716 1380.01,1709.8C1380.15,1703.24 1378.74,1696.83 1375.77,1690.56C1372.58,1683.81 1368.45,1678.54 1363.41,1674.73C1358.6,1670.81 1353.34,1668.43 1347.64,1667.59C1341.93,1666.75 1336.18,1667.7 1330.4,1670.44C1324.85,1673.06 1320.6,1676.85 1317.63,1681.79C1314.66,1686.74 1313.05,1692.37 1312.79,1698.69C1312.78,1704.89 1314.37,1711.36 1317.56,1718.11C1320.53,1724.38 1324.47,1729.59 1329.39,1733.76C1334.2,1737.68 1339.51,1740.18 1345.33,1741.26C1351.28,1741.98 1357.03,1741.03 1362.57,1738.41ZM1380.02,1659.34L1362.33,1650.01C1365.52,1640.54 1369.86,1632.58 1375.37,1626.14C1381.12,1619.58 1388.74,1614.5 1398.24,1610.89L1412.45,1632.49C1405.12,1635.07 1398.6,1638.45 1392.91,1642.62C1387.21,1646.79 1382.91,1652.37 1380.02,1659.34Z" style="fill:rgb(52,49,76);fill-rule:nonzero;"/><path d="M1664.17,1666.67L1551.88,1520.91L1576.59,1501.87L1594.9,1525.64C1593.89,1517.33 1593.95,1509.54 1595.08,1502.27C1596.21,1495 1598.5,1488.36 1601.94,1482.34C1605.43,1475.95 1610.14,1470.47 1616.05,1465.92C1623.44,1460.22 1631.64,1457.1 1640.65,1456.56C1649.71,1455.64 1659.34,1458.32 1669.56,1464.59C1679.82,1470.48 1690.65,1480.82 1702.04,1495.61L1770.64,1584.65L1745.92,1603.69L1677.82,1515.28C1670.49,1505.78 1663.76,1499.01 1657.63,1494.98C1651.55,1490.58 1645.84,1488.41 1640.51,1488.48C1635.38,1488.39 1630.6,1490.05 1626.17,1493.47C1621.94,1496.72 1618.56,1500.85 1616.01,1505.84C1613.46,1510.84 1611.85,1516.62 1611.19,1523.18C1610.58,1529.38 1611.17,1535.83 1612.96,1542.52C1614.76,1549.22 1618.17,1555.84 1623.22,1562.39L1688.89,1647.63L1664.17,1666.67Z" style="fill:rgb(52,49,76);fill-rule:nonzero;"/></g><g id="bunting_string"><path d="M1702.1,1225.67C1705.99,1221.44 1712.58,1221.17 1716.81,1225.06C1721.04,1228.96 1721.32,1235.55 1717.42,1239.78C1328.5,1662.19 711.749,1807.23 171.756,1593.15C166.412,1591.04 163.793,1584.98 165.912,1579.63C168.031,1574.29 174.09,1571.67 179.434,1573.79C711.391,1784.68 1318.96,1641.79 1702.1,1225.67Z" style="fill:rgb(52,49,76);"/></g></g><g id="bunting1"><g id="bunting_flags1" serif:id="bunting_flags"><path d="M337.489,234.872C385.504,290.897 437.271,342.288 492.157,388.927L216.912,677.926L149.478,562.913L22.122,497.027L337.489,234.872Z" style="fill:rgb(255,201,82);"/><path d="M345.398,228.093C393.052,283.697 444.43,334.701 498.902,380.989C501.086,382.844 502.408,385.517 502.559,388.378C502.71,391.239 501.676,394.036 499.7,396.111L224.455,685.11C222.2,687.479 218.962,688.65 215.713,688.274C212.464,687.897 209.581,686.017 207.926,683.195L142.016,570.78L17.336,506.279C14.234,504.675 12.143,501.623 11.766,498.151C11.39,494.679 12.778,491.249 15.463,489.017L330.83,226.861C335.207,223.223 341.694,223.771 345.398,228.093ZM336.285,249.418L40.863,494.995L154.264,553.661C156.012,554.565 157.468,555.946 158.464,557.644L218.905,660.73C218.905,660.73 477.041,389.694 477.041,389.694C427.375,346.809 380.3,300.02 336.285,249.418Z" style="fill:rgb(243,114,114);"/><path d="M545.453,431.981C610.439,481.864 679.244,525.478 750.922,562.646L549.602,906.987L467.854,804.193L314.8,758.745L545.453,431.981Z" style="fill:rgb(255,201,82);"/><path d="M551.795,423.718C616.292,473.225 684.579,516.51 755.717,553.398C758.251,554.712 760.134,557.008 760.928,559.75C761.721,562.492 761.355,565.439 759.914,567.903L558.595,912.245C556.86,915.212 553.774,917.132 550.346,917.377C546.917,917.622 543.589,916.161 541.45,913.471L461.743,813.245L311.834,768.731C308.617,767.775 306.057,765.328 304.958,762.157C303.858,758.986 304.354,755.48 306.289,752.738L536.942,425.974C538.577,423.658 541.086,422.108 543.888,421.682C546.691,421.257 549.546,421.992 551.795,423.718ZM547.735,446.811L331.681,752.892L470.819,794.207C472.866,794.815 474.677,796.038 476.007,797.709L548.287,888.598C548.287,888.598 736.42,566.811 736.42,566.811C670.845,532.153 607.71,492.108 547.735,446.811Z" style="fill:rgb(243,114,114);"/><path d="M806.07,589.712C878.188,623.151 952.87,650.268 1029.2,670.892L897.368,1052.84L774.079,969.325L652.612,961.978L806.07,589.712Z" style="fill:rgb(190,165,207);"/><path d="M810.451,580.262C882.032,613.451 956.156,640.366 1031.92,660.836C1034.71,661.589 1037.06,663.465 1038.41,666.015C1039.76,668.566 1039.99,671.563 1039.05,674.291L907.215,1056.24C906.157,1059.31 903.734,1061.7 900.66,1062.73C897.585,1063.75 894.209,1063.29 891.526,1061.47L770.6,979.55L651.983,972.375C648.624,972.172 645.571,970.359 643.784,967.508C641.998,964.657 641.699,961.118 642.981,958.008L796.439,585.742C797.522,583.116 799.63,581.046 802.276,580.011C804.921,578.976 807.874,579.067 810.451,580.262ZM811.571,603.698C811.571,603.698 667.802,952.461 667.802,952.461L774.708,958.927C776.573,959.04 778.374,959.652 779.921,960.701C779.921,960.701 891.957,1036.6 891.957,1036.6C914.544,971.155 1015.73,677.997 1015.73,677.997C946.041,658.575 877.759,633.766 811.571,603.698Z" style="fill:rgb(243,114,114);"/><path d="M1074.44,682.309C1149.26,699.873 1225.48,711.268 1302.25,716.336L1269.8,1106.14L1160.74,1051.43L1007.31,1076.67L1074.44,682.309Z" style="fill:rgb(122,197,124);"/><path d="M1076.82,672.168C1151.09,689.601 1226.74,700.911 1302.94,705.942C1305.73,706.126 1308.32,707.422 1310.15,709.539C1311.97,711.656 1312.87,714.416 1312.63,717.2L1280.18,1107.01C1279.9,1110.45 1277.92,1113.54 1274.9,1115.23C1271.88,1116.92 1268.22,1117.01 1265.13,1115.45L1159.09,1062.26L1009,1086.95C1005.68,1087.5 1002.29,1086.4 999.92,1084.02C997.546,1081.63 996.473,1078.24 997.038,1074.92L1064.17,680.56C1064.65,677.727 1066.28,675.218 1068.68,673.629C1071.07,672.039 1074.02,671.511 1076.82,672.168ZM1082.85,694.939L1020.03,1064.02L1159.05,1041.15C1161.22,1040.8 1163.44,1041.13 1165.41,1042.12L1260.7,1089.92L1291,725.993C1220.91,720.836 1151.32,710.446 1082.85,694.939Z" style="fill:rgb(243,114,114);"/><path d="M1384.1,719.335C1462.44,719.906 1541.06,713.883 1619.06,701.1L1661.93,1071.61L1528.6,1041.78L1405.88,1103.81L1384.1,719.335Z" style="fill:rgb(122,197,124);"/><path d="M1384.18,708.918C1461.93,709.486 1539.96,703.507 1617.38,690.82C1620.19,690.359 1623.07,691.07 1625.34,692.786C1627.61,694.501 1629.08,697.073 1629.41,699.902L1672.28,1070.41C1672.66,1073.77 1671.41,1077.1 1668.9,1079.35C1666.39,1081.61 1662.95,1082.51 1659.65,1081.78L1529.97,1052.76L1410.58,1113.1C1407.44,1114.69 1403.72,1114.59 1400.67,1112.83C1397.63,1111.08 1395.68,1107.9 1395.48,1104.4L1373.7,719.924C1373.54,717.05 1374.57,714.237 1376.56,712.153C1378.54,710.068 1381.3,708.897 1384.18,708.918ZM1395.13,729.788L1415.38,1087.33L1523.9,1032.48C1526.06,1031.39 1528.52,1031.09 1530.88,1031.61L1649.9,1058.25C1649.9,1058.25 1609.97,713.103 1609.97,713.103C1538.6,724.224 1466.77,729.745 1395.13,729.788Z" style="fill:rgb(243,114,114);"/><path d="M1705.34,684.13C1779.4,667.099 1852.6,643.83 1924.19,614.177L2043.65,1071.66L1907.43,1052.15L1777.8,1116.16L1705.34,684.13Z" style="fill:rgb(255,145,78);"/><path d="M1703,673.978C1776.5,657.076 1849.16,633.982 1920.2,604.553C1922.98,603.401 1926.13,603.509 1928.82,604.849C1931.52,606.19 1933.51,608.632 1934.27,611.545L2053.73,1069.03C2054.61,1072.4 2053.75,1075.99 2051.42,1078.6C2049.1,1081.2 2045.63,1082.46 2042.18,1081.97L1909.15,1062.92L1782.41,1125.5C1779.46,1126.96 1775.99,1126.93 1773.05,1125.43C1770.12,1123.93 1768.07,1121.13 1767.53,1117.88L1695.06,685.853C1694.15,680.418 1697.63,675.213 1703,673.978ZM1717.23,692.049L1785.75,1100.61L1902.82,1042.81C1904.7,1041.88 1906.83,1041.54 1908.91,1041.84L2029.62,1059.12C2029.62,1059.12 1917.12,628.326 1917.12,628.326C1851.61,654.806 1784.78,676.011 1717.23,692.049Z" style="fill:rgb(243,114,114);"/></g><g id="bunting_string1" serif:id="bunting_string"><path d="M2015.93,560.524C2021.06,557.923 2027.33,559.975 2029.93,565.102C2032.53,570.229 2030.48,576.504 2025.35,579.104C1416.85,887.744 660.195,712.071 254.021,145.313C250.673,140.64 251.747,134.127 256.42,130.778C261.093,127.429 267.606,128.504 270.955,133.177C671.086,691.503 1416.48,864.572 2015.93,560.524Z" style="fill:rgb(243,114,114);"/></g><g><path d="M198.125,523.257C191.159,516.269 185.42,509 180.907,501.451C176.205,494.089 172.54,486.446 169.913,478.523C167.475,470.41 166.168,462.112 165.993,453.626L197.687,444.061L201.648,443.501L202.492,446.048C201.358,447.932 200.223,450.004 199.088,452.265C198.142,454.338 197.571,457.543 197.376,461.879C197.741,469.045 199.333,476.119 202.15,483.1C205.155,490.27 210.235,497.444 217.388,504.621C223.036,510.287 228.592,514.35 234.056,516.81C239.71,519.082 244.988,519.845 249.892,519.098C255.173,518.353 259.702,516.097 263.479,512.332C266.123,509.697 267.919,506.965 268.867,504.138C270.003,501.123 270.291,497.635 269.732,493.675C269.362,489.526 268.238,484.81 266.361,479.527C264.484,474.244 261.948,468.112 258.754,461.13C252.739,449.429 248.231,438.486 245.231,428.298C242.607,418.112 241.962,408.777 243.296,400.294C244.818,391.622 248.979,383.898 255.778,377.121C262.389,370.532 269.938,366.396 278.426,364.712C287.102,363.218 296.246,364.27 305.857,367.868C315.468,371.466 325.073,378.081 334.675,387.714C339.946,393.002 344.368,398.383 347.942,403.857C351.705,409.143 354.619,414.522 356.684,419.993C358.938,425.277 360.438,430.747 361.183,436.405C361.928,442.064 362.013,448.003 361.437,454.225L333.429,458.422L329.468,458.982L329.19,455.87C330.513,454.175 331.647,452.291 332.594,450.219C333.54,448.146 334.11,445.13 334.305,441.17C333.562,434.381 331.592,428.061 328.396,422.21C325.389,416.171 321.626,410.886 317.108,406.353C310.519,399.742 303.644,395.489 296.481,393.592C289.319,391.694 283.283,393.193 278.372,398.088C275.539,400.912 273.648,404.491 272.698,408.827C272.125,413.163 272.87,418.821 274.933,425.801C276.996,432.781 280.753,441.649 286.204,452.406C292.405,465.427 296.724,476.559 299.161,485.803C301.597,495.046 301.772,503.343 299.686,510.694C297.977,518.045 293.912,524.921 287.49,531.322C279.747,539.04 270.876,544.117 260.878,546.552C251.069,549.176 240.793,548.688 230.051,545.088C219.498,541.3 208.856,534.023 198.125,523.257Z" style="fill:rgb(52,49,76);fill-rule:nonzero;"/><path d="M496.903,760.604C488.134,755.013 481.829,748.78 477.99,741.905C474.151,735.03 472.695,727.144 473.623,718.248C474.694,709.127 478.107,698.812 483.864,687.302C489.764,675.567 497.885,662.085 508.226,646.857L582.465,538.592L612.488,552.514L616.076,554.327L614.693,557.241C612.565,558.098 610.55,559.027 608.647,560.027C606.969,561.171 604.799,563.583 602.137,567.262L572.653,606.813L570.655,612.18L534.226,664.856C523.23,680.616 515.54,693.423 511.155,703.277C506.995,713.275 505.454,721.148 506.534,726.896C507.981,732.562 511.403,737.116 516.8,740.556C523.545,744.857 530.436,747.194 537.471,747.568C544.506,747.942 551.788,747.682 559.315,746.789L552.636,772.891C542.082,774.068 532.234,773.641 523.094,771.608C513.953,769.576 505.223,765.908 496.903,760.604ZM525.724,558.394L628.934,624.193L614.527,646.791L510.98,580.777L525.724,558.394Z" style="fill:rgb(52,49,76);fill-rule:nonzero;"/><path d="M823.642,719.221L854.892,730.432L836.579,779.107L835.081,772.62C839.038,765.541 843.683,759.699 849.018,755.097C854.442,750.244 860.259,746.664 866.469,744.359C873.02,741.893 879.416,740.647 885.659,740.62C892.242,740.432 898.546,741.419 904.57,743.58C913.104,746.642 920.3,751.065 926.157,756.849C932.015,762.634 936.534,769.779 939.714,778.287L917.998,798.543L915.653,801.527L913.046,799.316C913.265,797.128 913.358,794.895 913.325,792.617C913.382,790.088 912.23,786.983 909.867,783.302C907.505,779.622 904.872,776.694 901.969,774.519C899.157,772.094 895.868,770.205 892.103,768.855C886.581,766.874 880.608,766.147 874.186,766.676C868.104,767.044 861.949,768.802 855.72,771.95C849.491,775.099 843.645,779.942 838.183,786.482C832.971,793.111 828.519,801.572 824.827,811.863L791.869,903.73L761.372,892.788L823.642,719.221Z" style="fill:rgb(52,49,76);fill-rule:nonzero;"/><path d="M1104.15,989.622L1107.87,963.081L1149.46,968.903L1167.54,839.762L1128.32,834.273L1132.03,807.731L1202.55,817.601L1180.76,973.283L1218.79,978.606L1215.07,1005.15L1104.15,989.622ZM1190.27,778.32C1184.46,777.507 1179.74,774.692 1176.11,769.875C1172.47,765.058 1171.06,759.745 1171.88,753.935C1172.73,747.861 1175.41,743.12 1179.92,739.713C1184.74,736.079 1190.19,734.687 1196.26,735.538C1202.07,736.351 1206.79,739.166 1210.43,743.983C1214.06,748.8 1215.47,754.113 1214.66,759.923C1213.85,765.733 1211.03,770.455 1206.21,774.089C1201.4,777.723 1196.08,779.134 1190.27,778.32Z" style="fill:rgb(52,49,76);fill-rule:nonzero;"/><path d="M1456.39,1013.94L1442.31,830.475L1473.41,828.088L1475.71,858C1479.41,850.494 1483.73,844.012 1488.66,838.552C1493.59,833.092 1499.14,828.788 1505.32,825.639C1511.74,822.204 1518.68,820.201 1526.12,819.63C1535.43,818.915 1544,820.798 1551.83,825.279C1559.91,829.473 1566.5,836.99 1571.61,847.831C1576.97,858.386 1580.36,872.969 1581.79,891.581L1590.39,1003.65L1559.28,1006.04L1550.74,894.766C1549.83,882.801 1547.9,873.454 1544.98,866.725C1542.3,859.709 1538.71,854.769 1534.22,851.905C1529.98,849.02 1525.07,847.792 1519.49,848.221C1514.17,848.629 1509.08,850.223 1504.21,853.004C1499.34,855.785 1494.83,859.742 1490.68,864.874C1486.77,869.721 1483.74,875.437 1481.57,882.022C1479.4,888.607 1478.63,896.021 1479.26,904.264L1487.5,1011.55L1456.39,1013.94Z" style="fill:rgb(52,49,76);fill-rule:nonzero;"/><path d="M1898.87,1009.15C1887.64,1012.56 1877.26,1014.6 1867.7,1015.27C1858.15,1015.94 1849.61,1015.33 1842.07,1013.44C1834.78,1011.48 1828.63,1008.19 1823.6,1003.58C1818.58,998.977 1814.91,992.847 1812.58,985.192C1810.49,978.303 1810,971.625 1811.1,965.159C1812.28,958.948 1814.45,953.271 1817.63,948.126C1821.06,942.903 1825.18,938.586 1830,935.172L1845.99,938.259C1843.01,942.228 1840.67,946.004 1838.98,949.586C1837.2,952.912 1836.18,956.428 1835.91,960.132C1835.72,964.092 1836.36,968.496 1837.83,973.344C1839.07,977.426 1841.18,980.688 1844.15,983.13C1847.37,985.495 1851.34,987.078 1856.04,987.879C1860.82,988.935 1866.17,989.122 1872.1,988.437C1878.27,987.675 1885.06,986.171 1892.46,983.923C1902.16,980.979 1909.72,977.428 1915.15,973.272C1920.9,969.293 1924.73,964.925 1926.63,960.168C1928.53,955.41 1928.71,950.48 1927.16,945.377C1925.61,940.274 1923.44,936.335 1920.64,933.56C1917.93,931.041 1913.66,929.83 1907.83,929.926C1901.93,929.767 1893.88,931.238 1883.67,934.338C1875.76,936.74 1868.29,938.732 1861.24,940.314C1854.12,941.641 1847.48,942.264 1841.33,942.183C1835.17,942.102 1829.62,941.278 1824.69,939.711C1820.01,938.067 1816.07,935.641 1812.86,932.434C1809.58,928.971 1807.13,924.561 1805.5,919.202C1803.33,912.058 1803.23,904.842 1805.2,897.556C1807.16,890.27 1810.27,883.057 1814.51,875.916L1832.19,881.832C1830.75,885.337 1829.57,888.342 1828.66,890.848C1827.67,893.099 1827.07,895.234 1826.84,897.253C1826.88,899.194 1827.28,901.44 1828.05,903.992C1829.14,907.564 1831.47,910.199 1835.05,911.899C1838.81,913.265 1844.46,913.501 1851.99,912.607C1859.7,911.38 1869.81,908.868 1882.31,905.071C1893.79,901.584 1903.58,899.865 1911.68,899.914C1919.7,899.707 1926.41,901.153 1931.81,904.251C1937.13,907.094 1941.54,911.05 1945.03,916.121C1948.44,920.937 1951.12,926.535 1953.05,932.914C1955.22,940.058 1955.87,947.246 1955,954.477C1954.47,961.886 1952.17,968.995 1948.1,975.803C1944.04,982.611 1938.01,988.902 1930.01,994.676C1922.01,1000.45 1911.63,1005.27 1898.87,1009.15ZM1854.88,884.973C1843.4,888.461 1832.51,888.843 1822.21,886.119C1812.16,883.318 1803.32,878.061 1795.68,870.348C1788.22,862.302 1782.75,852.538 1779.26,841.056C1775.69,829.319 1774.81,818.16 1776.62,807.579C1778.67,796.921 1783.1,787.634 1789.89,779.718C1796.86,771.47 1805.96,765.641 1817.19,762.231C1828.92,758.666 1839.86,758.412 1849.98,761.468C1860.03,764.269 1868.74,769.565 1876.13,777.356C1883.77,785.069 1889.37,794.794 1892.93,806.531C1896.42,818.014 1897.17,829.211 1895.19,840.124C1893.39,850.705 1889.09,859.953 1882.3,867.869C1875.5,875.785 1866.37,881.486 1854.88,884.973ZM1846.83,859.829C1852.95,857.969 1857.85,854.811 1861.51,850.354C1865.1,845.642 1867.35,840.219 1868.27,834.086C1869.38,827.62 1868.92,821.07 1866.9,814.436C1864.74,807.292 1861.43,801.466 1857,796.961C1852.82,792.377 1847.97,789.252 1842.45,787.585C1836.92,785.918 1831.1,786.015 1824.98,787.875C1819.11,789.657 1814.34,792.777 1810.68,797.233C1807.02,801.69 1804.6,807.024 1803.42,813.235C1802.49,819.368 1803.11,826.007 1805.28,833.151C1807.3,839.785 1810.43,845.522 1814.69,850.36C1818.87,854.944 1823.76,858.196 1829.36,860.118C1835.14,861.708 1840.96,861.611 1846.83,859.829ZM1875.69,784.177L1859.56,772.355C1864.1,763.451 1869.57,756.216 1875.96,750.652C1882.61,745.01 1890.89,741.099 1900.82,738.92L1911.71,762.369C1904.08,763.851 1897.14,766.237 1890.89,769.528C1884.64,772.818 1879.58,777.701 1875.69,784.177Z" style="fill:rgb(52,49,76);fill-rule:nonzero;"/></g></g></g></g></g></svg>
