<?xml version="1.0" encoding="UTF-8" standalone="no"?>
<!DOCTYPE svg PUBLIC "-//W3C//DTD SVG 1.1//EN" "http://www.w3.org/Graphics/SVG/1.1/DTD/svg11.dtd">
<svg width="100%" height="100%" viewBox="0 0 800 800" version="1.1" xmlns="http://www.w3.org/2000/svg" xmlns:xlink="http://www.w3.org/1999/xlink" xml:space="preserve" xmlns:serif="http://www.serif.com/" style="fill-rule:evenodd;clip-rule:evenodd;stroke-linejoin:round;stroke-miterlimit:2;">
    <g id="head_with_face_and_antenna" transform="matrix(3.14651,0,0,3.14651,-3377.72,-2025.31)">
        <g transform="matrix(0.248049,0,0,0.226,1079.58,666.477)">
            <rect x="-24.57" y="-100.927" width="1025" height="1125" style="fill:rgb(255,201,82);"/>
        </g>
        <g transform="matrix(0.420078,0,0,0.422921,610.462,381.443)">
            <path d="M1102.22,851.039L1102.22,620.031L1282.01,620.031C1279.12,756.018 1189.25,846.55 1102.22,851.039Z" style="fill:rgb(255,215,129);"/>
        </g>
        <g id="caterpillar_face_1" transform="matrix(1,0,0,1,-210,-370)">
            <g transform="matrix(1,0,0,0.430752,225.965,823.982)">
                <path d="M1154.98,808.196C1154.77,795.969 1158.88,785.661 1164.15,785.19C1169.42,784.72 1173.86,794.265 1174.06,806.492C1174.06,806.492 1174.99,859.418 1198.12,861.355C1209.35,862.295 1216.81,856.504 1221.58,846.493C1232.45,823.641 1229.25,783.527 1229.25,783.527C1228.4,771.451 1231.93,760.046 1237.13,758.073C1242.33,756.1 1247.25,764.302 1248.1,776.378C1248.1,776.378 1252.31,841.724 1234.39,879.369C1226.82,895.287 1215.29,907.161 1197.43,905.666C1156.48,902.237 1154.98,808.196 1154.98,808.196Z" style="fill:rgb(255,116,115);"/>
            </g>
            <g transform="matrix(1.60317,0,0,1.60317,-457.562,-65.5798)">
                <circle cx="1141.44" cy="743.863" r="12.232" style="fill:rgb(255,116,115);"/>
            </g>
            <g transform="matrix(1.95977,0,0,1.73216,-912.455,-121.157)">
                <path d="M1141.44,731.631C1148.19,731.631 1154.26,733.51 1154.26,740.261C1154.26,747.012 1148.18,750.317 1142.03,754.094C1136.16,757.695 1129.21,750.614 1129.21,743.863C1129.21,737.112 1134.69,731.631 1141.44,731.631Z" style="fill:rgb(255,116,115);"/>
            </g>
            <g transform="matrix(-1.32269,0,0,1.68946,3017.66,-113.938)">
                <path d="M1141.44,731.631C1148.19,731.631 1154.26,733.51 1154.26,740.261C1154.26,747.012 1147.86,752.655 1140.06,753.065C1130.25,753.58 1129.21,750.614 1129.21,743.863C1129.21,737.112 1134.69,731.631 1141.44,731.631Z" style="fill:rgb(255,116,115);"/>
            </g>
            <g transform="matrix(1.60317,0,0,1.60317,-363.918,-79.9159)">
                <circle cx="1141.44" cy="743.863" r="12.232" style="fill:rgb(255,116,115);"/>
            </g>
        </g>
    </g>
    <g id="Layer1">
    </g>
</svg>
