<?xml version="1.0" encoding="UTF-8" standalone="no"?><!DOCTYPE svg PUBLIC "-//W3C//DTD SVG 1.1//EN" "http://www.w3.org/Graphics/SVG/1.1/DTD/svg11.dtd"><svg width="100%" height="100%" viewBox="0 0 905 773" version="1.1" xmlns="http://www.w3.org/2000/svg" xmlns:xlink="http://www.w3.org/1999/xlink" xml:space="preserve" xmlns:serif="http://www.serif.com/" style="fill-rule:evenodd;clip-rule:evenodd;stroke-linejoin:round;stroke-miterlimit:2;"><rect id="Artboard1" x="0" y="0" width="904.997" height="772.098" style="fill:none;"/><g id="background"><circle cx="452.552" cy="432.266" r="333.804" style="fill:#f3f1f1;"/></g><g id="bunting"><g id="Layer5"><g><g id="bunting2"><g id="bunting_flags"><path d="M631.964,93.865l-85.6,52.08l-7.272,-37.679l-27.201,-12.006l91.82,-49.978c8.854,19.372 16.145,30.603 28.253,47.583Z" style="fill:#ffc952;"/><path d="M633.263,96l-85.6,52.081c-0.699,0.426 -1.562,0.482 -2.311,0.15c-0.749,-0.331 -1.288,-1.008 -1.443,-1.812l-7.023,-36.395l-26.005,-11.476c-0.871,-0.385 -1.449,-1.232 -1.488,-2.184c-0.039,-0.952 0.466,-1.844 1.303,-2.299l91.819,-49.979c0.609,-0.332 1.329,-0.395 1.986,-0.176c0.658,0.219 1.195,0.702 1.483,1.332c8.779,19.206 16.012,30.337 28.015,47.171c0.403,0.566 0.553,1.274 0.414,1.954c-0.14,0.681 -0.557,1.272 -1.15,1.633Zm-4.893,-2.875c-10.794,-15.227 -17.754,-26.114 -25.809,-43.371l-85.01,46.272l22.551,9.953c0.75,0.331 1.29,1.008 1.445,1.813l6.59,34.148l80.233,-48.815Z" style="fill:#34314c;"/><path d="M677.685,145.641l-66.538,71.037l-13.221,-35.697l-27.764,-15.865l68.851,-61.729c11.705,15.235 24.658,29.36 38.672,42.254Z" style="fill:#ffc952;"/><path d="M679.509,147.35l-66.538,71.037c-0.592,0.632 -1.469,0.913 -2.319,0.741c-0.849,-0.171 -1.549,-0.77 -1.85,-1.582c0,-0 -12.905,-34.845 -12.905,-34.845l-26.976,-15.415c-0.697,-0.398 -1.16,-1.107 -1.245,-1.906c-0.085,-0.799 0.219,-1.589 0.817,-2.126l68.851,-61.728c0.519,-0.465 1.207,-0.692 1.9,-0.628c0.693,0.064 1.328,0.414 1.752,0.966c11.617,15.121 24.473,29.14 38.381,41.938c0.491,0.451 0.781,1.08 0.806,1.747c0.025,0.666 -0.218,1.315 -0.674,1.801Zm-5.367,-1.584c-12.758,-11.916 -24.626,-24.855 -35.46,-38.724l-64.272,57.622l24.756,14.146c0.509,0.291 0.9,0.752 1.104,1.303c0,-0 11.817,31.904 11.817,31.904l62.055,-66.251Z" style="fill:#34314c;"/><path d="M740.604,191.305l-53.437,80.24l-20.492,-31.07l-36.358,-11.899l60.456,-71.504c15.553,12.889 32.239,24.348 49.831,34.233Z" style="fill:#47b8e0;"/><path d="M742.685,192.691l-53.437,80.239c-0.465,0.698 -1.248,1.116 -2.086,1.115c-0.839,-0.002 -1.62,-0.424 -2.082,-1.124l-20.012,-30.341l-35.529,-11.628c-0.79,-0.258 -1.4,-0.893 -1.627,-1.693c-0.227,-0.801 -0.041,-1.661 0.496,-2.297l60.456,-71.504c0.885,-1.047 2.448,-1.186 3.504,-0.311c15.438,12.794 31.999,24.167 49.461,33.978c0.607,0.341 1.044,0.919 1.206,1.596c0.163,0.677 0.036,1.39 -0.35,1.97Zm-5.65,-0.537c-16.147,-9.241 -31.52,-19.807 -45.946,-31.584l-56.466,66.785l32.829,10.744c0.537,0.176 0.999,0.528 1.31,1c-0,-0 18.415,27.92 18.415,27.92l49.858,-74.865Z" style="fill:#34314c;"/><path d="M806.274,219.472l-45.069,99.007l-26.442,-23.137l-32.392,-5.949l52.525,-90.505c16.478,8.241 33.661,15.139 51.378,20.584Z" style="fill:#ffc952;"/><path d="M808.549,220.508l-45.069,99.007c-0.327,0.719 -0.976,1.241 -1.748,1.408c-0.773,0.166 -1.579,-0.042 -2.174,-0.563l-25.924,-22.683l-31.714,-5.825c-0.8,-0.147 -1.479,-0.674 -1.819,-1.413c-0.341,-0.739 -0.3,-1.597 0.108,-2.301l52.524,-90.505c0.663,-1.142 2.1,-1.572 3.281,-0.981c16.355,8.179 33.41,15.026 50.994,20.431c0.688,0.211 1.251,0.708 1.546,1.364c0.295,0.656 0.293,1.407 -0.005,2.061Zm-5.724,0.507c-16.14,-5.111 -31.83,-11.421 -46.942,-18.848c-0,0 -49.567,85.409 -49.567,85.409l28.898,5.307c0.443,0.082 0.856,0.281 1.195,0.578l23.913,20.924l42.503,-93.37Z" style="fill:#34314c;"/><path d="M878.729,233.186l-19.028,97.853l-30.408,-23.798l-37.874,8.409l29.101,-92.143c18.929,4.909 38.398,8.178 58.209,9.679Z" style="fill:#ffc952;"/><path d="M881.183,233.663l-19.028,97.853c-0.166,0.854 -0.765,1.561 -1.58,1.865c-0.815,0.304 -1.73,0.163 -2.415,-0.373c0,-0 -29.478,-23.07 -29.478,-23.07l-36.722,8.153c-0.872,0.193 -1.781,-0.093 -2.385,-0.752c-0.603,-0.659 -0.809,-1.59 -0.54,-2.442l29.101,-92.143c0.401,-1.268 1.724,-2.001 3.012,-1.667c18.786,4.872 38.108,8.116 57.77,9.606c0.712,0.054 1.366,0.409 1.799,0.977c0.433,0.567 0.603,1.292 0.466,1.993Zm-5.442,1.792c-18.195,-1.533 -36.096,-4.545 -53.549,-8.94l-27.084,85.755l33.643,-7.469c0.73,-0.162 1.494,0.011 2.082,0.471l27.193,21.282l17.715,-91.099Z" style="fill:#34314c;"/></g><g><path d="M552.317,103.174c-2.272,-3.861 -3.031,-7.424 -2.279,-10.688c0.808,-3.297 2.757,-5.854 5.846,-7.672c2.151,-1.265 4.297,-1.971 6.439,-2.118c2.174,-0.091 4.311,0.323 6.41,1.241c2.1,0.918 4.058,2.291 5.876,4.118c1.905,1.849 3.62,4.07 5.145,6.663c0.422,0.717 0.832,1.478 1.232,2.282c0.486,0.828 0.934,1.715 1.343,2.663c0.464,0.915 0.889,1.89 1.276,2.925l-5.033,3.184c-0.321,-0.925 -0.698,-1.817 -1.129,-2.677c-0.432,-0.86 -0.88,-1.748 -1.344,-2.663c-0.432,-0.86 -0.858,-1.648 -1.28,-2.365c-1.104,-1.876 -2.243,-3.433 -3.418,-4.673c-1.087,-1.216 -2.253,-2.127 -3.499,-2.73c-1.191,-0.636 -2.446,-0.938 -3.763,-0.905c-1.23,0.055 -2.534,0.488 -3.913,1.3c-1.048,0.616 -1.861,1.317 -2.439,2.103c-0.522,0.753 -0.842,1.535 -0.958,2.346c-0.085,0.866 -0.01,1.75 0.224,2.653c0.233,0.902 0.626,1.822 1.178,2.759c1.038,1.765 2.25,3.131 3.636,4.098c1.473,0.99 3.12,1.58 4.941,1.772c1.82,0.191 3.77,-0.028 5.85,-0.658c2.168,-0.607 4.493,-1.64 6.975,-3.101c3.641,-2.142 6.259,-4.128 7.855,-5.958c1.597,-1.83 2.359,-3.69 2.288,-5.578c0.016,-1.866 -0.625,-3.902 -1.923,-6.109c-0.941,-1.599 -2.17,-2.993 -3.685,-4.18c-1.483,-1.133 -3.304,-1.955 -5.462,-2.468l2.356,-5.841c2.771,0.672 5.203,1.84 7.296,3.504c2.149,1.632 3.937,3.662 5.365,6.089c1.33,2.262 2.244,4.509 2.74,6.741c0.552,2.2 0.528,4.368 -0.072,6.503c-0.6,2.135 -1.875,4.259 -3.826,6.372c-1.894,2.08 -4.607,4.158 -8.137,6.235l-20.686,12.17l-4.04,-6.867l5.212,-3.067c-1.57,0.107 -3.029,-0.037 -4.375,-0.433c-1.315,-0.341 -2.484,-0.878 -3.51,-1.611c-0.938,-0.711 -1.798,-1.541 -2.58,-2.492c-0.837,-0.918 -1.548,-1.874 -2.132,-2.867Z" style="fill:#34314c;fill-rule:nonzero;"/><path d="M596.891,164.575l4.709,-4.382l7.847,8.434l37.46,-34.856l-7.521,-8.082l4.709,-4.382l12.752,13.705l-42.168,39.237l7.717,8.293l-4.709,4.382l-20.796,-22.349Z" style="fill:#34314c;fill-rule:nonzero;"/><path d="M661.959,225.03l3.669,-5.284l8.28,5.75l17.85,-25.706l-7.806,-5.421l3.669,-5.283l14.035,9.747l-21.519,30.989l7.57,5.256l-3.669,5.283l-22.079,-15.331Zm41.32,-35.94c-1.156,-0.803 -1.863,-1.917 -2.12,-3.342c-0.257,-1.426 0.016,-2.716 0.819,-3.873c0.84,-1.209 1.927,-1.934 3.263,-2.175c1.426,-0.257 2.743,0.034 3.952,0.874c1.156,0.803 1.863,1.917 2.12,3.342c0.257,1.426 -0.016,2.716 -0.819,3.873c-0.803,1.156 -1.917,1.863 -3.342,2.12c-1.426,0.257 -2.716,-0.016 -3.873,-0.819Z" style="fill:#34314c;fill-rule:nonzero;"/><path d="M742.998,289.85c-2.604,-1.071 -4.844,-2.269 -6.721,-3.595c-1.877,-1.326 -3.372,-2.737 -4.487,-4.234c-1.055,-1.472 -1.7,-3.017 -1.933,-4.636c-0.234,-1.618 0.014,-3.316 0.745,-5.091c0.657,-1.598 1.579,-2.914 2.766,-3.949c1.162,-0.975 2.429,-1.699 3.801,-2.173c1.43,-0.45 2.852,-0.626 4.266,-0.529l2.502,3.002c-1.156,0.286 -2.164,0.632 -3.023,1.04c-0.836,0.348 -1.56,0.846 -2.172,1.494c-0.637,0.707 -1.187,1.623 -1.649,2.747c-0.39,0.947 -0.494,1.873 -0.313,2.778c0.241,0.93 0.737,1.826 1.489,2.689c0.728,0.922 1.695,1.769 2.899,2.542c1.264,0.797 2.754,1.548 4.471,2.254c2.249,0.926 4.193,1.414 5.833,1.466c1.674,0.135 3.049,-0.095 4.125,-0.691c1.075,-0.596 1.857,-1.485 2.344,-2.669c0.487,-1.184 0.681,-2.246 0.583,-3.185c-0.122,-0.881 -0.731,-1.755 -1.828,-2.621c-1.073,-0.926 -2.793,-1.876 -5.16,-2.85c-1.835,-0.754 -3.527,-1.52 -5.076,-2.295c-1.525,-0.835 -2.854,-1.728 -3.985,-2.678c-1.132,-0.95 -2.037,-1.945 -2.717,-2.986c-0.62,-1.016 -0.984,-2.066 -1.092,-3.148c-0.084,-1.142 0.13,-2.334 0.641,-3.577c0.682,-1.658 1.759,-3.014 3.231,-4.069c1.472,-1.055 3.145,-1.924 5.017,-2.607l2.388,3.785c-0.801,0.432 -1.476,0.811 -2.026,1.139c-0.525,0.268 -0.962,0.573 -1.31,0.914c-0.289,0.366 -0.555,0.844 -0.799,1.436c-0.34,0.829 -0.307,1.673 0.1,2.533c0.492,0.825 1.505,1.726 3.04,2.704c1.619,0.942 3.879,2.01 6.779,3.203c2.664,1.096 4.744,2.263 6.241,3.502c1.522,1.18 2.549,2.468 3.082,3.863c0.558,1.337 0.776,2.741 0.654,4.214c-0.097,1.413 -0.45,2.86 -1.058,4.34c-0.682,1.657 -1.653,3.091 -2.913,4.303c-1.225,1.296 -2.732,2.267 -4.521,2.915c-1.789,0.648 -3.865,0.902 -6.229,0.76c-2.364,-0.142 -5.025,-0.822 -7.985,-2.04Zm10.685,-29.756c-2.663,-1.096 -4.746,-2.679 -6.247,-4.75c-1.442,-2.047 -2.286,-4.366 -2.534,-6.96c-0.165,-2.628 0.301,-5.274 1.396,-7.937c1.12,-2.723 2.651,-4.93 4.593,-6.623c2.002,-1.668 4.234,-2.722 6.699,-3.161c2.548,-0.474 5.124,-0.176 7.728,0.896c2.723,1.12 4.793,2.732 6.21,4.838c1.442,2.047 2.258,4.354 2.446,6.923c0.248,2.594 -0.188,5.252 -1.308,7.974c-1.095,2.664 -2.656,4.859 -4.681,6.586c-1.942,1.693 -4.146,2.759 -6.61,3.198c-2.465,0.44 -5.029,0.111 -7.692,-0.984Zm2.322,-5.896c1.42,0.584 2.809,0.74 4.167,0.468c1.382,-0.331 2.624,-0.996 3.728,-1.996c1.186,-1.034 2.096,-2.32 2.729,-3.859c0.682,-1.658 0.953,-3.242 0.813,-4.752c-0.08,-1.487 -0.507,-2.804 -1.28,-3.953c-0.773,-1.148 -1.87,-2.015 -3.291,-2.599c-1.361,-0.56 -2.721,-0.704 -4.078,-0.432c-1.358,0.272 -2.618,0.895 -3.78,1.87c-1.103,1 -1.996,2.328 -2.677,3.985c-0.634,1.539 -0.922,3.081 -0.866,4.627c0.081,1.486 0.495,2.834 1.244,4.041c0.833,1.173 1.929,2.04 3.291,2.6Zm16.852,-9.676l-1.202,-4.647c2.196,-0.965 4.311,-1.479 6.344,-1.543c2.092,-0.039 4.226,0.493 6.402,1.596l-1.538,6.011c-1.644,-0.884 -3.296,-1.494 -4.956,-1.831c-1.661,-0.338 -3.344,-0.2 -5.05,0.414Z" style="fill:#34314c;fill-rule:nonzero;"/><path d="M817.461,296.139l7.729,-43.478l7.372,1.31l-1.26,7.089c1.311,-1.522 2.703,-2.77 4.176,-3.743c1.473,-0.973 3.021,-1.64 4.646,-2.002c1.698,-0.413 3.43,-0.462 5.194,-0.149c2.205,0.392 4.084,1.344 5.635,2.855c1.626,1.459 2.708,3.601 3.246,6.427c0.612,2.774 0.525,6.366 -0.259,10.777l-4.721,26.56l-7.372,-1.311l4.687,-26.371c0.504,-2.835 0.619,-5.122 0.343,-6.862c-0.202,-1.791 -0.74,-3.154 -1.613,-4.089c-0.811,-0.924 -1.878,-1.504 -3.202,-1.739c-1.26,-0.224 -2.539,-0.159 -3.837,0.195c-1.298,0.354 -2.583,1.004 -3.856,1.947c-1.199,0.892 -2.248,2.038 -3.147,3.439c-0.899,1.4 -1.522,3.077 -1.869,5.03l-4.52,25.426l-7.372,-1.311Z" style="fill:#34314c;fill-rule:nonzero;"/></g><g id="bunting_string"><path d="M901.859,231.626c1.38,0.008 2.493,1.135 2.486,2.514c-0.008,1.38 -1.135,2.494 -2.515,2.486c-137.802,-0.789 -263.181,-86.822 -312.421,-217.248c-0.487,-1.291 0.165,-2.734 1.456,-3.222c1.291,-0.487 2.735,0.165 3.222,1.456c48.507,128.485 172.021,213.237 307.772,214.014Z" style="fill:#34314c;"/></g></g><g id="bunting1"><g id="bunting_flags1" serif:id="bunting_flags"><path d="M32.365,291.1c17.606,-1.909 34.802,-5.19 51.481,-9.732l19.894,93.695l-31.919,-2.246l-30.318,16.282l-9.138,-97.999Z" style="fill:#ff914e;"/><path d="M32.096,288.615c17.473,-1.895 34.54,-5.151 51.093,-9.659c0.663,-0.181 1.372,-0.08 1.959,0.278c0.587,0.358 1,0.942 1.143,1.615l19.895,93.695c0.163,0.767 -0.044,1.567 -0.559,2.16c-0.515,0.592 -1.279,0.908 -2.062,0.853l-31.198,-2.195l-29.681,15.939c-0.738,0.397 -1.626,0.397 -2.365,0.001c-0.738,-0.396 -1.229,-1.136 -1.307,-1.971l-9.138,-97.999c-0.127,-1.36 0.862,-2.57 2.22,-2.717Zm2.986,4.696l8.561,91.801l26.996,-14.497c0.416,-0.224 0.887,-0.325 1.358,-0.292l28.609,2.013c-0,0 -18.659,-87.871 -18.659,-87.871c-15.227,4.018 -30.876,6.994 -46.865,8.846Z" style="fill:#f37272;"/><path d="M99.599,276.654c18.69,-6.103 36.658,-13.811 53.738,-22.963l40.879,86.562l-31.441,2.246l-29.756,24.142l-33.42,-89.987Z" style="fill:#ffc952;"/><path d="M98.823,274.278c18.55,-6.057 36.382,-13.708 53.333,-22.791c0.604,-0.323 1.314,-0.385 1.965,-0.17c0.65,0.214 1.184,0.687 1.477,1.306l40.879,86.563c0.352,0.746 0.313,1.617 -0.103,2.329c-0.416,0.712 -1.157,1.173 -1.98,1.232l-30.655,2.19l-29.145,23.646c-0.626,0.507 -1.457,0.682 -2.234,0.47c-0.777,-0.213 -1.404,-0.786 -1.685,-1.541l-33.42,-89.988c-0.237,-0.637 -0.204,-1.344 0.092,-1.957c0.296,-0.613 0.829,-1.078 1.476,-1.289Zm4.022,3.935l31.304,84.292l27.051,-21.947c0.398,-0.323 0.886,-0.516 1.397,-0.552l27.799,-1.986c0,-0 -38.201,-80.893 -38.201,-80.893c-15.756,8.284 -32.247,15.354 -49.35,21.086Z" style="fill:#f37272;"/><path d="M166.176,246.442c16.402,-9.745 31.899,-20.855 46.336,-33.173l57.749,77.906l-33.258,13.085l-17.928,23.055l-52.899,-80.873Z" style="fill:#ffc952;"/><path d="M164.899,244.292c16.279,-9.672 31.661,-20.699 45.99,-32.925c0.527,-0.449 1.217,-0.66 1.905,-0.582c0.689,0.079 1.314,0.439 1.726,0.995l57.75,77.906c0.463,0.625 0.609,1.429 0.394,2.177c-0.214,0.748 -0.764,1.353 -1.488,1.638l-32.62,12.834l-17.508,22.514c-0.495,0.638 -1.268,0.997 -2.075,0.964c-0.807,-0.033 -1.548,-0.454 -1.99,-1.13l-52.899,-80.873c-0.374,-0.57 -0.498,-1.268 -0.344,-1.933c0.154,-0.664 0.573,-1.236 1.159,-1.585Zm4.792,2.957c0,0 49.56,75.767 49.56,75.767l15.779,-20.291c0.275,-0.354 0.64,-0.627 1.058,-0.792c-0,0 30.222,-11.89 30.222,-11.89c-9.894,-13.348 -54.218,-73.143 -54.218,-73.143c-13.298,11.166 -27.471,21.321 -42.401,30.349Z" style="fill:#f37272;"/><path d="M220.907,205.861c13.625,-12.433 26.218,-25.98 37.634,-40.494l72.784,59.292l-25.625,14.175l-15.811,33.803l-68.982,-66.776Z" style="fill:#47b8e0;"/><path d="M219.222,204.014c13.524,-12.341 26.023,-25.786 37.354,-40.193c0.415,-0.527 1.024,-0.865 1.69,-0.939c0.666,-0.074 1.335,0.123 1.854,0.547l72.784,59.291c0.644,0.525 0.985,1.334 0.911,2.161c-0.074,0.827 -0.553,1.563 -1.28,1.965l-24.914,13.783l-15.468,33.068c-0.342,0.731 -1.017,1.253 -1.811,1.399c-0.795,0.146 -1.611,-0.1 -2.192,-0.662l-68.982,-66.777c-0.496,-0.479 -0.771,-1.143 -0.761,-1.833c0.01,-0.69 0.305,-1.345 0.815,-1.81Zm5.327,1.894l64.56,62.495l14.327,-30.628c0.223,-0.478 0.592,-0.873 1.054,-1.129l22.389,-12.385l-67.952,-55.356c-10.526,13.178 -22.021,25.548 -34.378,37.003Z" style="fill:#f37272;"/><path d="M270.235,149.567c10.739,-15.435 20.208,-31.818 28.256,-48.997l79.177,41.761l-23.989,22.354l-4.362,32.713l-79.082,-47.831Z" style="fill:#ffc952;"/><path d="M268.183,148.139c10.658,-15.319 20.056,-31.579 28.044,-48.63c0.29,-0.619 0.821,-1.092 1.469,-1.31c0.648,-0.217 1.356,-0.16 1.961,0.159l79.178,41.762c0.716,0.378 1.205,1.079 1.311,1.881c0.107,0.803 -0.181,1.607 -0.773,2.159l-23.334,21.743l-4.244,31.825c-0.111,0.836 -0.637,1.559 -1.397,1.924c-0.76,0.365 -1.653,0.321 -2.375,-0.115l-79.081,-47.831c-0.591,-0.357 -1.008,-0.943 -1.152,-1.619c-0.144,-0.676 -0.001,-1.381 0.393,-1.948Zm5.618,0.663l73.543,44.481l3.857,-28.928c0.076,-0.574 0.35,-1.104 0.774,-1.499l21.415,-19.955c-0,-0 -73.756,-38.902 -73.756,-38.902c-7.476,15.638 -16.126,30.611 -25.833,44.803Z" style="fill:#f37272;"/><path d="M306.831,81.186c6.672,-16.975 11.993,-34.626 15.83,-52.822l106.786,38.39l-22.337,24.327l-4.907,34.349l-95.372,-44.244Z" style="fill:#ffc952;"/><path d="M304.504,80.271c6.622,-16.846 11.903,-34.364 15.711,-52.422c0.149,-0.708 0.597,-1.316 1.228,-1.668c0.631,-0.352 1.383,-0.414 2.064,-0.169l106.786,38.389c0.788,0.283 1.382,0.942 1.582,1.755c0.2,0.813 -0.02,1.672 -0.586,2.288l-21.814,23.757l-4.797,33.582c-0.112,0.783 -0.588,1.467 -1.283,1.844c-0.694,0.377 -1.527,0.403 -2.244,0.07l-95.372,-44.244c-1.2,-0.556 -1.758,-1.951 -1.275,-3.182Zm5.508,-0.366l90.192,41.841l4.431,-31.018c0.071,-0.5 0.292,-0.966 0.633,-1.338l19.794,-21.556c-0,-0 -100.559,-36.151 -100.559,-36.151c-3.641,16.563 -8.505,32.671 -14.491,48.222Z" style="fill:#f37272;"/></g><g id="bunting_string1" serif:id="bunting_string"><path d="M324.479,2.922c0.181,-1.367 1.438,-2.332 2.806,-2.151c1.368,0.18 2.332,1.437 2.151,2.805c-21.414,162.347 -158.816,288.344 -326.124,291.905c-1.38,0.03 -2.523,-1.067 -2.553,-2.446c-0.029,-1.38 1.067,-2.523 2.447,-2.553c164.818,-3.507 300.178,-127.628 321.273,-287.56Z" style="fill:#f37272;"/></g><g><path d="M70.567,357.806c-2.328,0.432 -4.546,0.583 -6.653,0.452c-2.095,-0.067 -4.106,-0.378 -6.031,-0.932c-1.937,-0.618 -3.757,-1.485 -5.461,-2.601l2.404,-7.573l0.426,-0.86l0.619,0.178c0.219,0.481 0.476,0.986 0.77,1.518c0.282,0.468 0.839,1.016 1.671,1.643c1.468,0.899 3.085,1.543 4.849,1.932c1.828,0.378 3.937,0.345 6.328,-0.098c1.888,-0.35 3.446,-0.899 4.674,-1.648c1.217,-0.811 2.084,-1.753 2.601,-2.825c0.569,-1.147 0.736,-2.349 0.503,-3.608c-0.163,-0.881 -0.46,-1.607 -0.892,-2.178c-0.443,-0.634 -1.094,-1.164 -1.954,-1.59c-0.872,-0.49 -1.958,-0.907 -3.259,-1.251c-1.3,-0.345 -2.859,-0.675 -4.674,-0.989c-3.133,-0.396 -5.911,-0.988 -8.335,-1.775c-2.373,-0.862 -4.309,-2.001 -5.808,-3.415c-1.51,-1.478 -2.475,-3.349 -2.895,-5.615c-0.408,-2.202 -0.203,-4.258 0.614,-6.167c0.881,-1.92 2.33,-3.588 4.345,-5.003c2.016,-1.415 4.629,-2.42 7.838,-3.015c1.762,-0.327 3.428,-0.472 4.996,-0.438c1.557,-0.028 3.017,0.125 4.381,0.458c1.352,0.27 2.638,0.715 3.86,1.335c1.221,0.62 2.409,1.408 3.563,2.366l-2.968,6.115l-0.426,0.86l-0.654,-0.367c-0.156,-0.491 -0.375,-0.971 -0.657,-1.44c-0.283,-0.468 -0.802,-0.99 -1.56,-1.566c-1.445,-0.774 -2.964,-1.241 -4.556,-1.401c-1.603,-0.224 -3.16,-0.196 -4.67,0.084c-2.203,0.408 -3.978,1.193 -5.325,2.354c-1.347,1.161 -1.869,2.559 -1.565,4.195c0.175,0.944 0.627,1.804 1.356,2.58c0.781,0.702 2.003,1.322 3.665,1.86c1.662,0.538 3.927,0.997 6.796,1.376c3.42,0.538 6.209,1.193 8.37,1.964c2.161,0.771 3.828,1.862 5,3.272c1.224,1.335 2.034,3.073 2.431,5.212c0.478,2.58 0.28,5.025 -0.594,7.335c-0.811,2.298 -2.301,4.267 -4.471,5.906c-2.181,1.575 -5.065,2.696 -8.652,3.36Z" style="fill:#34314c;fill-rule:nonzero;"/><path d="M158.084,330.835c-2.296,0.979 -4.386,1.382 -6.268,1.209c-1.882,-0.172 -3.641,-0.953 -5.276,-2.343c-1.661,-1.449 -3.24,-3.524 -4.739,-6.225c-1.523,-2.76 -3.091,-6.196 -4.704,-10.309l-11.369,-29.383l6.829,-4.057l0.845,-0.464l0.389,0.669c-0.118,0.537 -0.208,1.062 -0.268,1.575c-0.001,0.487 0.182,1.244 0.55,2.27l3.833,11.202l0.791,1.124l5.49,14.357c1.629,4.314 3.122,7.574 4.479,9.779c1.415,2.18 2.765,3.552 4.05,4.118c1.318,0.482 2.684,0.422 4.097,-0.18c1.766,-0.752 3.163,-1.8 4.192,-3.142c1.028,-1.342 1.964,-2.819 2.808,-4.431l4.262,4.862c-1.198,2.25 -2.618,4.142 -4.26,5.676c-1.642,1.534 -3.553,2.765 -5.731,3.693Zm-36.13,-33.13l27.026,-11.513l2.521,5.918l-27.115,11.55l-2.432,-5.955Z" style="fill:#34314c;fill-rule:nonzero;"/><path d="M194.203,260.526l6.458,-4.667l7.154,10.228l-1.487,-0.583c-0.866,-1.744 -1.392,-3.456 -1.58,-5.136c-0.226,-1.733 -0.145,-3.37 0.24,-4.912c0.401,-1.632 1.021,-3.067 1.863,-4.307c0.855,-1.329 1.906,-2.444 3.15,-3.343c1.764,-1.275 3.616,-2.1 5.556,-2.475c1.939,-0.375 3.967,-0.301 6.083,0.223l1.066,7.047l0.272,0.869l-0.791,0.216c-0.403,-0.34 -0.833,-0.661 -1.289,-0.963c-0.493,-0.355 -1.264,-0.548 -2.313,-0.579c-1.049,-0.031 -1.986,0.093 -2.81,0.373c-0.862,0.228 -1.682,0.623 -2.46,1.185c-1.141,0.825 -2.095,1.909 -2.861,3.252c-0.752,1.255 -1.239,2.712 -1.46,4.372c-0.222,1.66 -0.055,3.475 0.499,5.443c0.606,1.931 1.677,3.96 3.214,6.087l13.721,18.985l-6.303,4.555l-25.922,-35.87Z" style="fill:#34314c;fill-rule:nonzero;"/><path d="M285.787,241.656l-4.752,-4.335l6.794,-7.447l-23.119,-21.093l-6.406,7.021l-4.751,-4.335l11.517,-12.624l27.871,25.429l6.212,-6.808l4.751,4.335l-18.117,19.857Zm-30.159,-45.71c-0.949,1.04 -2.147,1.593 -3.594,1.66c-1.446,0.066 -2.69,-0.375 -3.73,-1.324c-1.087,-0.993 -1.662,-2.167 -1.724,-3.523c-0.066,-1.447 0.397,-2.714 1.389,-3.801c0.949,-1.04 2.146,-1.593 3.593,-1.66c1.447,-0.066 2.69,0.375 3.73,1.324c1.04,0.949 1.594,2.147 1.66,3.594c0.066,1.447 -0.375,2.69 -1.324,3.73Z" style="fill:#34314c;fill-rule:nonzero;"/><path d="M338.372,175.208l-38.236,-22.093l3.746,-6.483l6.234,3.602c-0.984,-1.751 -1.682,-3.485 -2.094,-5.202c-0.413,-1.717 -0.512,-3.4 -0.298,-5.05c0.191,-1.738 0.735,-3.382 1.632,-4.934c1.12,-1.939 2.655,-3.381 4.605,-4.324c1.926,-1.031 4.309,-1.317 7.148,-0.859c2.817,0.371 6.164,1.677 10.043,3.918l23.358,13.496l-3.747,6.484l-23.191,-13.4c-2.493,-1.441 -4.605,-2.328 -6.334,-2.662c-1.752,-0.421 -3.217,-0.381 -4.394,0.122c-1.145,0.447 -2.054,1.252 -2.727,2.416c-0.64,1.108 -1.015,2.333 -1.125,3.674c-0.109,1.341 0.063,2.771 0.516,4.289c0.429,1.431 1.149,2.808 2.159,4.13c1.01,1.323 2.373,2.48 4.091,3.473l22.36,12.92l-3.746,6.483Z" style="fill:#34314c;fill-rule:nonzero;"/><path d="M397.435,86.944c-0.848,2.686 -1.853,5.019 -3.015,7.002c-1.162,1.982 -2.442,3.591 -3.839,4.828c-1.378,1.176 -2.863,1.949 -4.456,2.318c-1.594,0.37 -3.306,0.266 -5.137,-0.312c-1.647,-0.52 -3.037,-1.327 -4.168,-2.422c-1.07,-1.076 -1.898,-2.277 -2.487,-3.604c-0.568,-1.387 -0.864,-2.789 -0.887,-4.206l2.78,-2.747c0.382,1.128 0.813,2.102 1.291,2.925c0.418,0.803 0.976,1.482 1.673,2.037c0.758,0.575 1.717,1.046 2.876,1.411c0.977,0.309 1.908,0.334 2.795,0.077c0.906,-0.318 1.757,-0.888 2.553,-1.711c0.858,-0.803 1.62,-1.838 2.288,-3.103c0.687,-1.327 1.31,-2.875 1.869,-4.645c0.731,-2.32 1.054,-4.298 0.967,-5.936c-0.007,-1.68 -0.353,-3.031 -1.037,-4.052c-0.684,-1.021 -1.637,-1.725 -2.857,-2.11c-1.221,-0.385 -2.296,-0.489 -3.224,-0.312c-0.867,0.196 -1.686,0.877 -2.457,2.043c-0.831,1.147 -1.632,2.941 -2.403,5.382c-0.597,1.892 -1.216,3.643 -1.859,5.252c-0.703,1.59 -1.48,2.989 -2.331,4.197c-0.851,1.208 -1.766,2.195 -2.745,2.959c-0.961,0.704 -1.976,1.155 -3.045,1.355c-1.131,0.18 -2.337,0.068 -3.619,-0.337c-1.709,-0.539 -3.151,-1.498 -4.327,-2.875c-1.176,-1.378 -2.183,-2.971 -3.022,-4.779l3.57,-2.699c0.498,0.761 0.933,1.402 1.306,1.922c0.312,0.501 0.652,0.911 1.022,1.228c0.388,0.257 0.888,0.482 1.498,0.675c0.855,0.269 1.693,0.165 2.515,-0.314c0.781,-0.559 1.593,-1.645 2.438,-3.258c0.802,-1.692 1.675,-4.034 2.619,-7.025c0.867,-2.746 1.854,-4.918 2.962,-6.515c1.047,-1.615 2.243,-2.748 3.589,-3.397c1.285,-0.668 2.666,-1.004 4.143,-1.008c1.417,-0.023 2.888,0.207 4.414,0.688c1.709,0.54 3.22,1.386 4.534,2.538c1.394,1.112 2.49,2.531 3.287,4.259c0.797,1.728 1.224,3.776 1.283,6.143c0.058,2.367 -0.394,5.077 -1.357,8.128Zm-30.554,-8.131c-0.866,2.746 -2.268,4.955 -4.204,6.625c-1.918,1.61 -4.158,2.648 -6.721,3.114c-2.605,0.386 -5.281,0.146 -8.027,-0.721c-2.808,-0.886 -5.137,-2.225 -6.987,-4.017c-1.831,-1.853 -3.07,-3.989 -3.716,-6.407c-0.688,-2.499 -0.608,-5.091 0.239,-7.777c0.886,-2.807 2.318,-5.006 4.296,-6.596c1.918,-1.61 4.148,-2.617 6.692,-3.023c2.563,-0.466 5.249,-0.256 8.056,0.63c2.747,0.867 5.066,2.236 6.958,4.108c1.851,1.792 3.099,3.897 3.745,6.316c0.646,2.419 0.536,5.001 -0.331,7.748Zm-6.071,-1.816c0.462,-1.464 0.501,-2.862 0.115,-4.191c-0.447,-1.349 -1.215,-2.531 -2.304,-3.546c-1.131,-1.095 -2.489,-1.893 -4.076,-2.394c-1.709,-0.539 -3.311,-0.675 -4.804,-0.408c-1.474,0.206 -2.751,0.742 -3.83,1.61c-1.079,0.867 -1.85,2.033 -2.312,3.498c-0.443,1.404 -0.472,2.771 -0.086,4.1c0.386,1.33 1.113,2.533 2.183,3.609c1.089,1.014 2.488,1.791 4.197,2.331c1.587,0.501 3.148,0.658 4.684,0.471c1.474,-0.206 2.781,-0.733 3.921,-1.581c1.099,-0.929 1.869,-2.095 2.312,-3.499Zm-11.065,-15.974l-4.529,1.591c-1.147,-2.107 -1.838,-4.171 -2.073,-6.191c-0.216,-2.081 0.134,-4.253 1.049,-6.514l6.119,1.025c-0.741,1.712 -1.21,3.409 -1.406,5.093c-0.195,1.683 0.084,3.348 0.84,4.996Z" style="fill:#34314c;fill-rule:nonzero;"/></g></g></g></g></g><g id="caterpillars"><g id="caterpillar1"><g id="body_5_with_legs"><path id="body5" d="M288.786,518.314c22.558,8.504 34.999,31.699 26.495,54.257c-8.503,22.557 -33.548,35.64 -56.105,27.137c-22.558,-8.504 -37.963,-30.941 -29.46,-53.499c8.504,-22.558 36.513,-36.398 59.07,-27.895Z" style="fill:#ffc01d;"/><clipPath id="_clip1"><path d="M288.786,518.314c22.558,8.504 34.999,31.699 26.495,54.257c-8.503,22.557 -33.548,35.64 -56.105,27.137c-22.558,-8.504 -37.963,-30.941 -29.46,-53.499c8.504,-22.558 36.513,-36.398 59.07,-27.895Z"/></clipPath><g clip-path="url(#_clip1)"><path d="M237.715,553.571c2.992,-9.675 6.402,-18.765 16.143,-15.753c9.74,3.012 12.073,13.198 9.082,22.873c-2.992,9.675 -7.103,23.838 -16.844,20.826c-9.74,-3.012 -11.372,-18.271 -8.381,-27.946Z" style="fill:#ffd16e;"/></g><path d="M289.668,515.975c23.878,9.001 36.954,33.599 27.953,57.478c-8.986,23.837 -35.49,37.58 -59.327,28.594c-23.86,-8.994 -39.911,-32.86 -30.917,-56.72c8.963,-23.778 38.513,-38.316 62.291,-29.352Zm-1.763,4.679c-21.337,-8.044 -47.806,5.1 -55.85,26.437c-8.012,21.256 6.746,42.265 28.002,50.278c21.279,8.021 44.864,-4.402 52.885,-25.68c8.006,-21.238 -3.8,-43.03 -25.037,-51.035Z" style="fill:#f37272;"/><path d="M243.836,577.565c1.274,-0.528 2.738,0.078 3.266,1.353c0.528,1.275 -0.078,2.738 -1.352,3.267c-4.565,1.891 -7.284,4.39 -8.794,7.036c-3.422,5.997 -0.665,12.491 -0.665,12.491c0.538,1.271 -0.058,2.739 -1.329,3.276c-1.271,0.538 -2.739,-0.058 -3.276,-1.329c-0,0 -3.708,-8.794 0.928,-16.917c1.943,-3.405 5.346,-6.742 11.222,-9.177Z" style="fill:#f37272;"/></g><g id="body4_with_legs"><path d="M371.445,603.129c-1.274,-0.528 -1.88,-1.991 -1.352,-3.266c0.528,-1.275 1.991,-1.881 3.266,-1.353c5.876,2.435 9.278,5.771 11.222,9.177c4.636,8.122 0.928,16.917 0.928,16.917c-0.537,1.271 -2.005,1.866 -3.276,1.329c-1.271,-0.537 -1.867,-2.005 -1.329,-3.276c-0,-0 2.757,-6.495 -0.666,-12.492c-1.509,-2.645 -4.228,-5.144 -8.793,-7.036Z" style="fill:#f37272;"/><path id="body4" d="M358.173,540.029c22.27,9.233 33.949,32.82 24.717,55.089c-9.233,22.27 -34.689,34.531 -56.959,25.299c-22.269,-9.233 -36.936,-32.159 -27.704,-54.429c9.233,-22.269 37.677,-35.191 59.946,-25.959Z" style="fill:#ffc952;"/><clipPath id="_clip2"><path d="M358.173,540.029c22.27,9.233 33.949,32.82 24.717,55.089c-9.233,22.27 -34.689,34.531 -56.959,25.299c-22.269,-9.233 -36.936,-32.159 -27.704,-54.429c9.233,-22.269 37.677,-35.191 59.946,-25.959Z"/></clipPath><g clip-path="url(#_clip2)"><path d="M300.922,578.304c2.992,-9.675 12.448,-17.665 22.189,-14.654c9.74,3.012 15.921,15.397 12.929,25.072c-2.991,9.675 -12.05,16.692 -21.79,13.681c-9.741,-3.012 -16.319,-14.424 -13.328,-24.099Z" style="fill:#ffd781;"/></g><path d="M359.131,537.72c23.572,9.773 35.841,34.783 26.068,58.356c-9.756,23.532 -36.693,36.406 -60.225,26.65c-23.555,-9.765 -38.822,-34.14 -29.056,-57.695c9.732,-23.474 39.738,-37.043 63.213,-27.311Zm-1.915,4.619c-21.064,-8.733 -47.947,3.543 -56.68,24.607c-8.699,20.984 5.368,42.462 26.353,51.161c21.006,8.709 44.983,-2.94 53.692,-23.946c8.692,-20.966 -2.399,-43.13 -23.365,-51.822Z" style="fill:#f37272;"/><path d="M310.34,600.1c1.275,-0.528 2.739,0.078 3.267,1.353c0.528,1.274 -0.078,2.738 -1.353,3.266c-4.564,1.891 -7.283,4.391 -8.793,7.036c-3.422,5.997 -0.665,12.492 -0.665,12.492c0.537,1.271 -0.058,2.739 -1.329,3.276c-1.271,0.537 -2.739,-0.058 -3.276,-1.329c-0,-0 -3.708,-8.795 0.928,-16.917c1.943,-3.406 5.346,-6.743 11.221,-9.177Z" style="fill:#f37272;"/></g><g id="body3_with_legs"><path d="M439.13,563.457c-0.97,-0.812 -1.099,-2.259 -0.287,-3.229c0.812,-0.97 2.258,-1.099 3.229,-0.287c-0,-0 3.985,3.411 8.38,1.642c1.626,-0.655 2.562,-1.975 3.141,-3.282c0.993,-2.241 0.986,-4.535 0.986,-4.535c-0.007,-1.265 1.014,-2.298 2.279,-2.305c1.265,-0.008 2.298,1.014 2.305,2.278c-0,0 0.025,3.249 -1.379,6.419c-1.019,2.299 -2.76,4.526 -5.62,5.677c-6.82,2.745 -13.034,-2.378 -13.034,-2.378Z" style="fill:#f37272;"/><path id="body3" d="M438.459,511.509c15.491,18.471 14.96,44.787 -3.511,60.277c-18.472,15.491 -46.714,14.614 -62.205,-3.858c-15.49,-18.471 -17.915,-45.58 0.556,-61.071c18.472,-15.491 49.669,-13.82 65.16,4.652Z" style="fill:#ffc01d;"/><clipPath id="_clip3"><path d="M438.459,511.509c15.491,18.471 14.96,44.787 -3.511,60.277c-18.472,15.491 -46.714,14.614 -62.205,-3.858c-15.49,-18.471 -17.915,-45.58 0.556,-61.071c18.472,-15.491 49.669,-13.82 65.16,4.652Z"/></clipPath><g clip-path="url(#_clip3)"><path d="M367.427,538.182c2.992,-9.675 12.998,-11.62 22.738,-8.608c9.741,3.011 20.318,14.846 17.327,24.521c-2.992,9.675 -12.05,16.693 -21.791,13.681c-9.74,-3.012 -21.265,-19.919 -18.274,-29.594Z" style="fill:#ffd16e;"/></g><path d="M440.375,509.902c16.397,19.553 15.732,47.402 -3.821,63.8c-19.519,16.369 -49.357,15.352 -65.726,-4.167c-16.385,-19.538 -18.673,-48.208 0.865,-64.593c19.471,-16.329 52.353,-14.511 68.682,4.96Zm-3.832,3.213c-14.652,-17.472 -44.165,-18.995 -61.637,-4.342c-17.406,14.597 -14.844,40.143 -0.247,57.549c14.612,17.424 41.258,18.161 58.682,3.549c17.391,-14.584 17.787,-39.366 3.202,-56.756Z" style="fill:#f37272;"/><path d="M370.508,544.777c0.385,-1.205 1.676,-1.871 2.881,-1.486c1.205,0.385 1.87,1.676 1.485,2.881c0,-0 -1.753,5.491 -5.594,9.921c-2.756,3.177 -6.548,5.774 -11.406,5.849c-8.204,0.126 -13.527,-8.166 -13.527,-8.166c-0.671,-1.072 -0.347,-2.487 0.725,-3.159c1.072,-0.672 2.488,-0.347 3.159,0.725c0,-0 3.702,6.107 9.573,6.016c3.44,-0.053 6.061,-2.018 8.013,-4.268c3.219,-3.713 4.691,-8.313 4.691,-8.313Z" style="fill:#f37272;"/></g><g id="body2_with_legs"><path d="M412.198,466.722c-0.97,-0.811 -1.098,-2.258 -0.287,-3.228c0.812,-0.97 2.259,-1.099 3.229,-0.287c-0,-0 3.985,3.411 8.38,1.642c1.627,-0.655 2.562,-1.975 3.141,-3.282c0.993,-2.241 0.986,-4.535 0.986,-4.535c-0.007,-1.265 1.014,-2.298 2.279,-2.305c1.265,-0.008 2.298,1.013 2.305,2.278c0,0 0.025,3.249 -1.379,6.419c-1.018,2.299 -2.76,4.526 -5.62,5.677c-6.819,2.745 -13.034,-2.379 -13.034,-2.379Z" style="fill:#f37272;"/><path id="body2" d="M357.591,428.821c23.052,-7.053 47.074,3.707 54.126,26.759c7.053,23.053 -4.778,48.713 -27.831,55.765c-23.053,7.053 -48.958,-1.295 -56.01,-24.348c-7.053,-23.053 6.662,-51.124 29.715,-58.176Z" style="fill:#ffc952;"/><clipPath id="_clip4"><path d="M357.591,428.821c23.052,-7.053 47.074,3.707 54.126,26.759c7.053,23.053 -4.778,48.713 -27.831,55.765c-23.053,7.053 -48.958,-1.295 -56.01,-24.348c-7.053,-23.053 6.662,-51.124 29.715,-58.176Z"/></clipPath><g clip-path="url(#_clip4)"><path d="M335.549,476.074c2.991,-9.675 8.051,-22.063 17.791,-19.051c9.741,3.012 20.318,19.793 17.327,29.468c-2.992,9.675 -12.05,16.693 -21.791,13.681c-9.74,-3.012 -16.319,-14.423 -13.327,-24.098Z" style="fill:#ffd781;"/></g><path d="M356.859,426.43c24.402,-7.465 49.784,4.017 57.249,28.419c7.452,24.36 -5.131,51.434 -29.491,58.887c-24.383,7.459 -51.672,-1.624 -59.132,-26.008c-7.434,-24.3 7.074,-53.864 31.374,-61.298Zm1.463,4.781c-21.805,6.671 -34.726,33.249 -28.055,55.055c6.645,21.722 31.165,29.334 52.888,22.689c21.745,-6.653 32.824,-30.898 26.172,-52.643c-6.64,-21.704 -29.301,-31.74 -51.005,-25.101Z" style="fill:#f37272;"/><path d="M331.405,460.456c0.761,-1.011 2.199,-1.214 3.21,-0.453c1.011,0.761 1.214,2.199 0.453,3.21c-0,-0 -5.687,7.449 -13.792,7.703c-8.86,0.278 -11.174,-9.333 -11.174,-9.333c-0.282,-1.233 0.49,-2.463 1.723,-2.745c1.233,-0.282 2.463,0.49 2.745,1.723c0,-0 1.243,5.94 6.562,5.773c6.073,-0.19 10.273,-5.878 10.273,-5.878Z" style="fill:#f37272;"/></g><g id="body1_with_legs"><path d="M447.819,382.245c-0.949,-0.837 -1.04,-2.286 -0.203,-3.235c0.836,-0.949 2.286,-1.04 3.235,-0.204c-0,0 5.095,4.561 10.857,2.004c2.249,-0.998 3.575,-2.935 4.407,-4.853c1.375,-3.171 1.427,-6.392 1.427,-6.392c0.018,-1.264 1.06,-2.277 2.325,-2.259c1.264,0.018 2.277,1.06 2.259,2.324c-0,0 -0.052,4.108 -1.806,8.151c-1.255,2.892 -3.361,5.714 -6.753,7.219c-8.343,3.703 -15.748,-2.755 -15.748,-2.755Z" style="fill:#f37272;"/><path id="body1" d="M425.687,362.392c23.453,5.58 38.729,27.014 33.149,50.467c-5.581,23.452 -28.768,39.6 -52.221,34.019c-23.452,-5.58 -41.573,-25.888 -35.993,-49.34c5.58,-23.453 31.613,-40.727 55.065,-35.146Z" style="fill:#ffc01d;"/><clipPath id="_clip5"><path d="M425.687,362.392c23.453,5.58 38.729,27.014 33.149,50.467c-5.581,23.452 -28.768,39.6 -52.221,34.019c-23.452,-5.58 -41.573,-25.888 -35.993,-49.34c5.58,-23.453 31.613,-40.727 55.065,-35.146Z"/></clipPath><g clip-path="url(#_clip5)"><path d="M385.015,409.569c2.992,-9.675 12.448,-15.467 22.189,-12.455c9.74,3.011 15.92,13.198 12.929,22.873c-2.992,9.675 -12.05,16.692 -21.79,13.68c-9.741,-3.011 -16.319,-14.423 -13.328,-24.098Z" style="fill:#ffd16e;"/></g><path d="M426.266,359.96c24.825,5.907 40.909,28.652 35.002,53.478c-5.897,24.782 -30.449,41.769 -55.232,35.872c-24.806,-5.902 -43.749,-27.545 -37.846,-52.351c5.882,-24.721 33.354,-42.882 58.076,-36.999Zm-1.157,4.864c-22.184,-5.279 -46.776,11.109 -52.055,33.293c-5.258,22.099 12.04,41.071 34.14,46.329c22.122,5.264 43.946,-10.043 49.209,-32.166c5.254,-22.08 -9.214,-42.202 -31.294,-47.456Z" style="fill:#f37272;"/><path d="M373.629,397.183c0.948,-0.837 2.398,-0.748 3.235,0.2c0.838,0.948 0.748,2.397 -0.2,3.235c0,0 -7.065,6.158 -15.056,4.782c-8.735,-1.505 -9.076,-11.384 -9.076,-11.384c-0.029,-1.265 0.974,-2.315 2.238,-2.344c1.265,-0.029 2.316,0.974 2.345,2.238c-0,0 0.027,6.069 5.271,6.972c5.987,1.031 11.243,-3.699 11.243,-3.699Z" style="fill:#f37272;"/></g><g id="head_with_face_and_antenna"><path id="head" d="M393.649,294.055c24.107,0 43.93,17.316 43.93,41.424c-0,24.107 -18.82,45.183 -42.927,45.183c-24.108,0 -46.437,-15.561 -46.437,-39.669c-0,-24.107 21.327,-46.938 45.434,-46.938Z" style="fill:#ffc952;"/><clipPath id="_clip6"><path d="M393.649,294.055c24.107,0 43.93,17.316 43.93,41.424c-0,24.107 -18.82,45.183 -42.927,45.183c-24.108,0 -46.437,-15.561 -46.437,-39.669c-0,-24.107 21.327,-46.938 45.434,-46.938Z"/></clipPath><g clip-path="url(#_clip6)"><path d="M377.161,307.304c10.127,0 12.404,1.38 13.865,11.471c2.503,17.287 -8.323,29.12 -18.45,29.12c-10.127,-0 -14.501,-10.544 -14.501,-20.739c-0,-10.196 8.959,-19.852 19.086,-19.852Z" style="fill:#ffd781;"/></g><path d="M393.649,291.555c25.518,0 46.43,18.405 46.43,43.924c-0,25.474 -19.953,47.683 -45.427,47.683c-25.499,0 -48.937,-16.67 -48.937,-42.169c-0,-25.411 22.522,-49.438 47.934,-49.438Zm-0,5c-22.803,0 -42.934,21.636 -42.934,44.438c-0,22.717 21.22,37.169 43.937,37.169c22.74,0 40.427,-19.943 40.427,-42.683c-0,-22.697 -18.734,-38.924 -41.43,-38.924Z" style="fill:#ff7473;"/><g id="caterpillar_face_1"><path d="M400.411,341.67c-0.049,-1.264 0.938,-2.33 2.202,-2.378c1.264,-0.049 2.33,0.938 2.379,2.202c-0,-0 0.223,5.471 5.775,5.672c2.695,0.097 4.485,-0.502 5.629,-1.537c2.61,-2.362 1.84,-6.509 1.84,-6.509c-0.204,-1.249 0.644,-2.428 1.893,-2.632c1.248,-0.204 2.427,0.644 2.631,1.893c0,-0 1.012,6.755 -3.289,10.647c-1.818,1.646 -4.585,2.873 -8.87,2.718c-9.829,-0.354 -10.19,-10.076 -10.19,-10.076Z" style="fill:#ff7473;"/><circle cx="398.353" cy="330.833" r="4.706" style="fill:#f37272;"/><path d="M382.085,335.304c4.785,0 9.086,0.979 9.086,4.498c0,3.518 -4.308,5.241 -8.669,7.209c-4.159,1.877 -9.086,-1.814 -9.086,-5.332c-0,-3.518 3.885,-6.375 8.669,-6.375Z" style="fill:#f37272;"/><path d="M430.879,329.673c-2.143,-0 -4.07,0.762 -4.07,3.499c0,2.737 2.032,5.026 4.509,5.192c3.114,0.209 3.444,-0.994 3.444,-3.732c0,-2.737 -1.74,-4.959 -3.883,-4.959Z" style="fill:#f37272;"/><circle cx="420.828" cy="327.393" r="4.706" style="fill:#f37272;"/></g><g id="caterpillar_antenna_1"><g><path d="M387.856,307.975c0.112,1.375 -0.912,2.583 -2.288,2.696c-1.375,0.113 -2.583,-0.912 -2.696,-2.287c0,-0 -2.686,-32.79 -8.05,-56.586c-2.19,-9.719 -4.704,-17.918 -7.829,-21.354c-3.814,-4.193 -8.358,-5.987 -12.526,-5.807c-5.982,0.258 -11.087,4.625 -11.566,11.291c-0.523,7.263 5.291,10.475 10.696,11.542c2.985,0.589 5.408,-1.918 5.993,-4.372c0.299,-1.258 0.036,-2.577 -1.305,-3.211c-1.248,-0.59 -1.781,-2.082 -1.191,-3.329c0.59,-1.248 2.081,-1.781 3.329,-1.191c4.612,2.181 5.266,7.06 3.178,11.207c-1.913,3.801 -6.15,6.754 -10.973,5.801c-7.672,-1.515 -15.456,-6.495 -14.714,-16.806c0.676,-9.41 7.894,-15.564 16.338,-15.927c5.448,-0.235 11.455,1.957 16.44,7.437c3.473,3.819 6.573,12.817 9.008,23.62c5.429,24.086 8.156,57.276 8.156,57.276Z" style="fill:#f37272;"/><path d="M412.262,302.254c-0.187,1.367 -1.449,2.325 -2.816,2.138c-1.367,-0.187 -2.325,-1.448 -2.138,-2.815c-0,-0 3.988,-28.967 2.166,-43.25c-0.549,-4.302 0.231,-7.779 1.783,-10.468c2.536,-4.395 7.194,-6.773 12.179,-7.071c7.294,-0.436 15.175,3.612 17.571,11.758c1.176,3.997 0.643,7.378 -0.815,10.04c-2.173,3.968 -6.521,6.372 -10.903,6.723c-3.978,0.318 -6.298,-0.867 -7.599,-2.391c-1.334,-1.562 -1.741,-3.674 -1.406,-5.827c0.434,-2.786 2.148,-5.556 3.735,-6.746c1.104,-0.828 2.672,-0.604 3.5,0.5c0.828,1.104 0.604,2.672 -0.5,3.5c-0.812,0.609 -1.572,2.09 -1.794,3.516c-0.103,0.657 -0.14,1.334 0.267,1.81c0.565,0.662 1.67,0.792 3.398,0.654c2.758,-0.221 5.549,-1.644 6.917,-4.141c0.903,-1.649 1.132,-3.751 0.403,-6.227c-1.69,-5.748 -7.329,-8.485 -12.476,-8.177c-3.308,0.197 -6.464,1.661 -8.147,4.578c-1.085,1.881 -1.537,4.328 -1.153,7.337c1.876,14.714 -2.172,44.559 -2.172,44.559Z" style="fill:#f37272;"/></g></g></g></g><g id="catterpillar2"><g id="body_1_with_legs"><path d="M489.216,379.871c1.201,-0.396 2.498,0.258 2.894,1.459c0.396,1.201 -0.258,2.498 -1.459,2.894c-0,0 -8.92,2.874 -15.722,-1.541c-7.435,-4.826 -3.853,-14.04 -3.853,-14.04c0.471,-1.173 1.807,-1.743 2.981,-1.272c1.174,0.472 1.744,1.808 1.272,2.982c0,-0 -2.368,5.588 2.096,8.485c5.096,3.308 11.791,1.033 11.791,1.033Z" style="fill:#231f20;"/><path id="body11" serif:id="body1" d="M526.74,353.896c24.107,0 43.93,17.316 43.93,41.424c0,24.107 -18.82,45.183 -42.927,45.183c-24.108,0 -46.437,-15.561 -46.437,-39.669c-0,-24.107 21.327,-46.938 45.434,-46.938Z" style="fill:#13b2ec;"/><clipPath id="_clip7"><path d="M526.74,353.896c24.107,0 43.93,17.316 43.93,41.424c0,24.107 -18.82,45.183 -42.927,45.183c-24.108,0 -46.437,-15.561 -46.437,-39.669c-0,-24.107 21.327,-46.938 45.434,-46.938Z"/></clipPath><g clip-path="url(#_clip7)"><path d="M507.103,378.203c11.251,0 20.503,9.32 20.503,22.295c-0,12.974 -8.784,24.318 -20.035,24.318c-11.252,-0 -21.674,-8.376 -21.674,-21.35c0,-12.975 9.954,-25.263 21.206,-25.263Z" style="fill:#73c4e7;"/></g><path d="M526.74,351.396c25.518,0 46.43,18.405 46.43,43.924c0,25.474 -19.953,47.683 -45.427,47.683c-25.499,0 -48.937,-16.67 -48.937,-42.169c-0,-25.411 22.522,-49.438 47.934,-49.438Zm0,5c-22.803,0 -42.934,21.636 -42.934,44.438c-0,22.717 21.22,37.169 43.937,37.169c22.74,0 40.427,-19.943 40.427,-42.683c0,-22.697 -18.734,-38.924 -41.43,-38.924Z" style="fill:#34314c;"/><path d="M577.392,378.423c-0.041,-1.38 1.045,-2.533 2.424,-2.573c1.38,-0.041 2.533,1.045 2.573,2.424c0,0 0.23,9.936 -7.523,14.553c-3.256,1.938 -6.699,1.961 -9.666,1.231c-4.133,-1.017 -7.256,-3.508 -7.256,-3.508c-1.08,-0.859 -1.26,-2.433 -0.401,-3.513c0.859,-1.08 2.433,-1.26 3.513,-0.401c-0,-0 2.3,1.82 5.338,2.567c1.812,0.445 3.925,0.511 5.914,-0.672c5.355,-3.189 5.084,-10.108 5.084,-10.108Z" style="fill:#34314c;"/></g><g id="body2_with_legs1" serif:id="body2_with_legs"><path d="M518.032,455.92c-0.041,-1.379 1.046,-2.532 2.425,-2.573c1.379,-0.041 2.532,1.045 2.573,2.425c-0,-0 0.23,9.936 -7.524,14.552c-3.255,1.938 -6.698,1.961 -9.666,1.231c-4.133,-1.016 -7.255,-3.508 -7.255,-3.508c-1.08,-0.859 -1.26,-2.433 -0.402,-3.513c0.859,-1.08 2.433,-1.26 3.513,-0.401c0,0 2.301,1.82 5.338,2.567c1.813,0.446 3.926,0.512 5.914,-0.672c5.355,-3.188 5.084,-10.108 5.084,-10.108Z" style="fill:#34314c;"/><path id="body21" serif:id="body2" d="M543.959,415.343c22.256,-9.265 47.211,-0.897 56.476,21.359c9.265,22.256 -0.01,48.946 -22.266,58.211c-22.256,9.265 -48.851,3.48 -58.116,-18.776c-9.265,-22.256 1.65,-51.529 23.906,-60.794Z" style="fill:#47b8e0;"/><clipPath id="_clip8"><path d="M543.959,415.343c22.256,-9.265 47.211,-0.897 56.476,21.359c9.265,22.256 -0.01,48.946 -22.266,58.211c-22.256,9.265 -48.851,3.48 -58.116,-18.776c-9.265,-22.256 1.65,-51.529 23.906,-60.794Z"/></clipPath><g clip-path="url(#_clip8)"><path d="M531.727,441.761c10.51,-4.014 27.286,2.764 31.915,14.885c4.63,12.12 5.622,27.568 -4.889,31.583c-10.511,4.014 -28.385,-1.808 -33.015,-13.928c-4.629,-12.121 -4.522,-28.525 5.989,-32.54Z" style="fill:#7dc9e3;"/></g><path d="M542.998,413.035c23.559,-9.807 49.938,-0.852 59.745,22.706c9.79,23.519 -0.095,51.69 -23.613,61.48c-23.541,9.8 -51.585,3.418 -61.385,-20.123c-9.766,-23.46 1.793,-54.297 25.253,-64.063Zm1.922,4.616c-21.052,8.763 -31.322,36.474 -22.559,57.525c8.73,20.972 33.875,26.159 54.847,17.429c20.994,-8.739 29.658,-33.948 20.919,-54.942c-8.723,-20.953 -32.254,-28.734 -53.207,-20.012Z" style="fill:#34314c;"/><path d="M566.399,446.576c-0.041,-1.379 1.046,-2.532 2.425,-2.573c1.379,-0.041 2.532,1.046 2.573,2.425c-0,-0 0.23,9.936 -7.524,14.552c-3.255,1.938 -6.698,1.961 -9.666,1.232c-4.133,-1.017 -7.255,-3.509 -7.255,-3.509c-1.08,-0.858 -1.26,-2.432 -0.401,-3.512c0.858,-1.08 2.432,-1.26 3.512,-0.402c0,0 2.301,1.82 5.338,2.567c1.813,0.446 3.926,0.512 5.914,-0.672c5.355,-3.188 5.084,-10.108 5.084,-10.108Z" style="fill:#34314c;"/></g><g id="body4_with_legs1" serif:id="body4_with_legs"><path id="body41" serif:id="body4" d="M604.744,514.405c24.107,-0 43.93,17.316 43.93,41.423c-0,24.107 -18.82,45.183 -42.928,45.183c-24.107,0 -46.436,-15.561 -46.436,-39.668c-0,-24.107 21.326,-46.938 45.434,-46.938Z" style="fill:#47b8e0;"/><clipPath id="_clip9"><path d="M604.744,514.405c24.107,-0 43.93,17.316 43.93,41.423c-0,24.107 -18.82,45.183 -42.928,45.183c-24.107,0 -46.436,-15.561 -46.436,-39.668c-0,-24.107 21.326,-46.938 45.434,-46.938Z"/></clipPath><g clip-path="url(#_clip9)"><path d="M580.141,536.53c10.511,-4.014 22.479,1.39 27.109,13.511c4.629,12.121 0.471,25.851 -10.04,29.866c-10.511,4.015 -23.235,-0.09 -27.864,-12.211c-4.63,-12.121 0.284,-27.151 10.795,-31.166Z" style="fill:#7dc9e3;"/></g><path d="M604.744,511.905c25.518,-0 46.43,18.405 46.43,43.923c-0,25.474 -19.953,47.683 -45.428,47.683c-25.498,0 -48.936,-16.669 -48.936,-42.168c-0,-25.412 22.522,-49.438 47.934,-49.438Zm-0,5c-22.803,-0 -42.934,21.635 -42.934,44.438c-0,22.716 21.22,37.168 43.936,37.168c22.741,0 40.428,-19.943 40.428,-42.683c-0,-22.696 -18.734,-38.923 -41.43,-38.923Z" style="fill:#34314c;"/><path d="M630.794,581.088c-1.312,-0.427 -2.03,-1.84 -1.603,-3.151c0.427,-1.312 1.839,-2.031 3.151,-1.603c0,-0 4.361,1.417 7.908,4.527c2.591,2.273 4.713,5.408 4.832,9.416c0.118,3.954 -1.754,8.982 -7.927,14.962c-0.991,0.96 -2.575,0.935 -3.535,-0.056c-0.96,-0.99 -0.935,-2.575 0.056,-3.535c4.711,-4.564 6.498,-8.204 6.408,-11.222c-0.074,-2.498 -1.516,-4.389 -3.131,-5.806c-2.763,-2.423 -6.159,-3.532 -6.159,-3.532Z" style="fill:#34314c;"/></g><g id="body3_with_legs1" serif:id="body3_with_legs"><path id="body31" serif:id="body3" d="M633.83,441.249c24.107,-0 43.93,17.316 43.93,41.423c-0,24.107 -18.82,45.183 -42.928,45.183c-24.107,0 -46.436,-15.561 -46.436,-39.668c-0,-24.107 21.327,-46.938 45.434,-46.938Z" style="fill:#13b2ec;"/><clipPath id="_clip10"><path d="M633.83,441.249c24.107,-0 43.93,17.316 43.93,41.423c-0,24.107 -18.82,45.183 -42.928,45.183c-24.107,0 -46.436,-15.561 -46.436,-39.668c-0,-24.107 21.327,-46.938 45.434,-46.938Z"/></clipPath><g clip-path="url(#_clip10)"><path d="M605.55,467.514c10.511,-4.015 23.853,5.854 28.482,17.974c4.63,12.121 5.622,25.852 -4.889,29.866c-10.511,4.015 -25.638,-2.494 -30.268,-14.614c-4.629,-12.121 -3.836,-29.211 6.675,-33.226Z" style="fill:#73c4e7;"/></g><path d="M633.83,438.749c25.518,-0 46.43,18.405 46.43,43.923c-0,25.474 -19.953,47.683 -45.428,47.683c-25.498,0 -48.936,-16.669 -48.936,-42.168c-0,-25.412 22.522,-49.438 47.934,-49.438Zm-0,5c-22.803,-0 -42.934,21.635 -42.934,44.438c-0,22.716 21.22,37.168 43.936,37.168c22.741,0 40.428,-19.943 40.428,-42.683c-0,-22.696 -18.734,-38.923 -41.43,-38.923Z" style="fill:#34314c;"/><path d="M644.922,488.948c-1.282,-0.51 -1.909,-1.965 -1.399,-3.247c0.509,-1.282 1.964,-1.909 3.246,-1.399c0,-0 2.525,0.992 4.736,3.097c2.401,2.286 4.421,5.784 3.087,10.578c-1.098,3.942 -3.862,6.218 -6.834,7.483c-4.045,1.724 -8.43,1.462 -8.43,1.462c-1.377,-0.082 -2.429,-1.267 -2.347,-2.644c0.082,-1.377 1.267,-2.429 2.645,-2.347c-0,0 2.246,0.125 4.723,-0.566c2.168,-0.606 4.621,-1.839 5.426,-4.729c0.711,-2.555 -0.438,-4.398 -1.717,-5.616c-1.469,-1.398 -3.136,-2.072 -3.136,-2.072Z" style="fill:#34314c;"/></g><g id="body5_with_legs"><path d="M476.025,563.446c1.201,-0.396 2.498,0.258 2.894,1.459c0.396,1.201 -0.258,2.498 -1.459,2.894c-0,0 -8.921,2.874 -15.722,-1.541c-7.435,-4.826 -3.853,-14.04 -3.853,-14.04c0.471,-1.173 1.807,-1.743 2.981,-1.271c1.174,0.471 1.744,1.807 1.272,2.981c-0,-0 -2.368,5.588 2.096,8.485c5.096,3.308 11.791,1.033 11.791,1.033Z" style="fill:#34314c;"/><path id="body51" serif:id="body5" d="M544.121,537.472c20.8,12.187 29.149,37.148 16.963,57.948c-12.187,20.8 -39.08,29.471 -59.88,17.284c-20.8,-12.186 -32.199,-36.901 -20.013,-57.701c12.187,-20.8 42.129,-29.718 62.93,-17.531Z" style="fill:#13b2ec;"/><clipPath id="_clip11"><path d="M544.121,537.472c20.8,12.187 29.149,37.148 16.963,57.948c-12.187,20.8 -39.08,29.471 -59.88,17.284c-20.8,-12.186 -32.199,-36.901 -20.013,-57.701c12.187,-20.8 42.129,-29.718 62.93,-17.531Z"/></clipPath><g clip-path="url(#_clip11)"><path d="M504.954,547.221c11.224,0.786 19.802,10.73 18.895,23.673c-0.908,12.943 -10.463,23.644 -21.687,22.857c-11.224,-0.786 -21.035,-9.87 -20.127,-22.812c0.907,-12.943 11.695,-24.505 22.919,-23.718Z" style="fill:#73c4e7;"/></g><path d="M545.384,535.315c22.018,12.9 30.757,39.351 17.857,61.369c-12.878,21.98 -41.321,31.055 -63.301,18.177c-22,-12.89 -33.796,-39.121 -20.906,-61.122c12.846,-21.925 44.425,-31.27 66.35,-18.424Zm-2.527,4.314c-19.675,-11.527 -47.981,-3.037 -59.509,16.638c-11.483,19.6 -0.48,42.797 19.12,54.28c19.621,11.496 44.963,3.23 56.459,-16.391c11.473,-19.582 3.513,-43.053 -16.07,-54.527Z" style="fill:#34314c;"/><path d="M529.581,612.406c-1.363,-0.211 -2.298,-1.49 -2.087,-2.854c0.212,-1.363 1.491,-2.298 2.854,-2.087c0,0 6.769,1.09 10.075,6.454c2.117,3.434 3.025,8.723 -0.759,16.763c-0.587,1.249 -2.078,1.785 -3.326,1.198c-1.249,-0.588 -1.785,-2.079 -1.198,-3.327c2.719,-5.776 2.547,-9.544 1.027,-12.011c-2.149,-3.486 -6.586,-4.136 -6.586,-4.136Z" style="fill:#34314c;"/></g><g id="head_with_face_and_antenna1" serif:id="head_with_face_and_antenna"><path id="head1" serif:id="head" d="M550.097,279.953c24.107,-0 43.93,17.316 43.93,41.423c0,24.108 -18.82,45.184 -42.927,45.184c-24.108,-0 -46.437,-15.562 -46.437,-39.669c-0,-24.107 21.327,-46.938 45.434,-46.938Z" style="fill:#47b8e0;"/><clipPath id="_clip12"><path d="M550.097,279.953c24.107,-0 43.93,17.316 43.93,41.423c0,24.108 -18.82,45.184 -42.927,45.184c-24.108,-0 -46.437,-15.562 -46.437,-39.669c-0,-24.107 21.327,-46.938 45.434,-46.938Z"/></clipPath><g clip-path="url(#_clip12)"><path d="M536.299,292.496c8.878,0 13.116,4.576 13.116,15.74c0,11.164 -11.139,23.985 -20.016,23.985c-8.878,0 -15.57,-6.441 -15.57,-17.605c-0,-11.164 13.593,-22.12 22.47,-22.12Z" style="fill:#7dc9e3;"/></g><path d="M550.097,277.453c25.518,-0 46.43,18.405 46.43,43.923c0,25.475 -19.953,47.684 -45.427,47.684c-25.499,-0 -48.937,-16.67 -48.937,-42.169c-0,-25.412 22.522,-49.438 47.934,-49.438Zm0,5c-22.803,-0 -42.934,21.635 -42.934,44.438c-0,22.716 21.22,37.169 43.937,37.169c22.74,-0 40.427,-19.944 40.427,-42.684c0,-22.696 -18.734,-38.923 -41.43,-38.923Z" style="fill:#34314c;"/><g id="caterpillar_face_2"><path d="M562.553,326.859c-5.65,-0.838 -10.886,2.859 -11.685,8.25c-0.799,5.391 1.226,8.026 6.877,8.864c5.651,0.837 12.8,-0.438 13.599,-5.829c0.799,-5.391 -3.14,-10.448 -8.791,-11.285Z" style="fill:#34314c;"/><path d="M510.914,325.777c-2.832,-0 -4.17,0.576 -4.17,5.133c-0,4.558 1.626,9.208 4.458,9.208c2.832,0 5.708,-2.205 5.708,-6.763c-0,-4.557 -3.164,-7.578 -5.996,-7.578Z" style="fill:#34314c;"/><path d="M524.731,340.531c1.398,-0 3.603,1.172 3.603,3.757c-0,2.584 -1.524,5.724 -2.923,5.724c-1.398,0 -2.533,-2.098 -3.214,-4.798c-0.623,-2.476 1.136,-4.683 2.534,-4.683Z" style="fill:#34314c;"/><path d="M520.134,323.137c-0.051,1.378 -1.212,2.456 -2.591,2.404c-1.379,-0.051 -2.457,-1.212 -2.405,-2.591c-0,-0 0.499,-9.122 8.747,-8.274c2.58,0.266 4.17,1.345 5.189,2.613c2.27,2.823 1.449,7.028 1.449,7.028c-0.29,1.348 -1.621,2.208 -2.97,1.917c-1.349,-0.29 -2.208,-1.621 -1.918,-2.97c0,0 0.453,-1.709 -0.457,-2.842c-0.345,-0.428 -0.933,-0.682 -1.805,-0.772c-3.259,-0.335 -3.239,3.487 -3.239,3.487Z" style="fill:#34314c;"/><path d="M541.484,325.104c-0.172,1.368 -1.424,2.34 -2.793,2.167c-1.369,-0.172 -2.34,-1.423 -2.168,-2.792c0,-0 1.006,-8.221 9.499,-8.603c8.769,-0.394 8.738,8.84 8.738,8.84c-0.017,1.379 -1.15,2.486 -2.53,2.469c-1.38,-0.016 -2.486,-1.15 -2.47,-2.53c0,0 0.13,-3.947 -3.514,-3.784c-4.222,0.19 -4.762,4.233 -4.762,4.233Z" style="fill:#34314c;"/></g><g id="caterpillar_antenna_2"><path d="M530.185,296.631c0.2,1.365 -0.746,2.636 -2.111,2.836c-1.366,0.2 -2.636,-0.746 -2.836,-2.112c-0,0 -3.459,-23.66 -8.267,-39.67c-1.192,-3.968 -2.457,-7.453 -3.785,-9.933c-0.683,-1.276 -1.312,-2.264 -2.022,-2.736c-2.534,-1.684 -7.079,-3.022 -11.723,-3.015c-4.014,0.005 -8.146,1.009 -11.012,3.953c-1.894,1.948 -3.193,4.734 -3.61,8.542c-0.572,5.219 0.367,8.669 2.564,10.824c2.233,2.19 5.587,2.992 9.325,3.225c3.456,0.216 6.175,-0.704 7.822,-2.67c1.682,-2.007 2.183,-4.975 1.522,-8.502c-0.663,-3.535 -4.322,-4.254 -6.938,-3.33c-1.491,0.527 -2.765,1.636 -2.551,3.33c0.174,1.369 -0.797,2.621 -2.166,2.795c-1.369,0.173 -2.621,-0.798 -2.794,-2.166c-0.536,-4.226 2.127,-7.36 5.846,-8.673c5.195,-1.835 12.201,0.103 13.517,7.122c0.988,5.268 -0.092,9.638 -2.603,12.635c-2.545,3.037 -6.628,4.783 -11.967,4.45c-5.056,-0.317 -9.493,-1.684 -12.514,-4.647c-3.056,-2.997 -4.828,-7.678 -4.033,-14.937c0.563,-5.143 2.438,-8.855 4.997,-11.485c3.815,-3.921 9.243,-5.459 14.588,-5.466c5.755,-0.008 11.359,1.764 14.498,3.851c1.218,0.81 2.49,2.352 3.662,4.539c1.453,2.713 2.862,6.515 4.166,10.856c4.895,16.299 8.425,40.384 8.425,40.384Z" style="fill:#34314c;"/><path d="M570.756,302.063c-0.486,1.291 -1.929,1.945 -3.22,1.459c-1.292,-0.486 -1.946,-1.928 -1.46,-3.22c-0,0 4.433,-11.791 12.56,-22.123c5.621,-7.147 13.011,-13.529 21.809,-15.259c20.904,-4.111 30.084,5.997 30.716,15.168c0.669,9.697 -8.07,20.936 -19.848,17.386c-3.969,-1.197 -6.832,-5.084 -7.487,-9.238c-0.68,-4.309 0.923,-8.769 5.568,-10.796c7.323,-3.198 15.815,2.921 10.839,9.668c-0.819,1.11 -2.386,1.347 -3.496,0.528c-1.11,-0.819 -1.347,-2.386 -0.528,-3.496c0.342,-0.463 0.553,-0.855 0.434,-1.221c-0.242,-0.749 -1.187,-1.092 -2.173,-1.263c-0.971,-0.169 -2.064,-0.076 -3.076,0.366c-2.308,1.008 -2.967,3.293 -2.629,5.435c0.362,2.298 1.795,4.567 3.991,5.229c8.111,2.445 13.878,-5.576 13.417,-12.254c-0.497,-7.212 -8.325,-13.839 -24.764,-10.606c-7.651,1.504 -13.954,7.228 -18.843,13.444c-7.639,9.712 -11.81,20.793 -11.81,20.793Z" style="fill:#34314c;"/></g></g></g></g></svg>
