<?xml version="1.0" encoding="UTF-8" standalone="no"?><!DOCTYPE svg PUBLIC "-//W3C//DTD SVG 1.1//EN" "http://www.w3.org/Graphics/SVG/1.1/DTD/svg11.dtd"><svg width="100%" height="100%" viewBox="0 0 3771 3218" version="1.1" xmlns="http://www.w3.org/2000/svg" xmlns:xlink="http://www.w3.org/1999/xlink" xml:space="preserve" xmlns:serif="http://www.serif.com/" style="fill-rule:evenodd;clip-rule:evenodd;stroke-linejoin:round;stroke-miterlimit:2;"><rect id="Artboard1" x="0" y="0" width="3770.82" height="3217.08" style="fill:none;"/><g id="background"><circle cx="1885.63" cy="1801.11" r="1390.85" style="fill:rgb(243,241,241);"/></g><g id="bunting"><g id="Layer5"><g><g id="bunting2"><g id="bunting_flags"><path d="M2633.18,391.102L2276.52,608.106L2246.22,451.107L2132.88,401.085L2515.46,192.84C2552.36,273.557 2582.73,320.352 2633.18,391.102Z" style="fill:rgb(71,184,224);"/><path d="M2638.6,400.001L2281.93,617.005C2279.02,618.778 2275.42,619.012 2272.3,617.631C2269.18,616.25 2266.93,613.429 2266.29,610.08L2237.02,458.435L2128.67,410.615C2125.04,409.012 2122.64,405.483 2122.47,401.516C2122.31,397.549 2124.41,393.834 2127.9,391.936L2510.48,183.691C2513.02,182.31 2516.01,182.044 2518.76,182.958C2521.5,183.872 2523.73,185.882 2524.93,188.51C2561.51,268.532 2591.65,314.913 2641.66,385.055C2643.34,387.411 2643.97,390.361 2643.39,393.196C2642.8,396.031 2641.07,398.497 2638.6,400.001ZM2618.21,388.019C2573.24,324.573 2544.23,279.211 2510.67,207.308L2156.46,400.108L2250.42,441.577C2253.55,442.956 2255.8,445.78 2256.45,449.133L2283.91,591.418L2618.21,388.019Z" style="fill:rgb(52,49,76);"/><path d="M2823.69,606.839L2546.44,902.823L2491.36,754.087L2375.67,687.983L2662.55,430.779C2711.33,494.26 2765.3,553.114 2823.69,606.839Z" style="fill:rgb(71,184,224);"/><path d="M2831.29,613.96L2554.05,909.944C2551.58,912.579 2547.92,913.748 2544.39,913.034C2540.85,912.321 2537.93,909.826 2536.68,906.441C2536.68,906.441 2482.9,761.254 2482.9,761.254L2370.51,697.027C2367.6,695.366 2365.67,692.411 2365.32,689.083C2364.96,685.756 2366.23,682.461 2368.72,680.227L2655.6,423.023C2657.76,421.088 2660.63,420.14 2663.52,420.407C2666.4,420.675 2669.05,422.134 2670.82,424.433C2719.22,487.438 2772.79,545.851 2830.74,599.173C2832.78,601.055 2833.99,603.675 2834.1,606.452C2834.2,609.229 2833.19,611.932 2831.29,613.96ZM2808.93,607.359C2755.77,557.707 2706.32,503.796 2661.18,446.007L2393.38,686.101L2496.53,745.043C2498.65,746.256 2500.28,748.177 2501.12,750.47C2501.12,750.47 2550.36,883.405 2550.36,883.405L2808.93,607.359Z" style="fill:rgb(52,49,76);"/><path d="M3085.85,797.103L2863.2,1131.44L2777.81,1001.98L2626.32,952.402L2878.22,654.467C2943.03,708.173 3012.55,755.919 3085.85,797.103Z" style="fill:rgb(122,197,124);"/><path d="M3094.52,802.877L2871.87,1137.21C2869.93,1140.12 2866.67,1141.86 2863.17,1141.85C2859.68,1141.85 2856.42,1140.09 2854.5,1137.17L2771.12,1010.75L2623.08,962.302C2619.79,961.224 2617.24,958.578 2616.3,955.244C2615.35,951.909 2616.13,948.323 2618.37,945.676L2870.26,647.741C2873.95,643.379 2880.47,642.801 2884.87,646.446C2949.19,699.753 3018.2,747.143 3090.95,788.022C3093.48,789.442 3095.3,791.852 3095.98,794.671C3096.66,797.49 3096.13,800.464 3094.52,802.877ZM3070.98,800.644C3003.7,762.136 2939.65,718.113 2879.54,669.04L2644.26,947.314L2781.05,992.081C2783.29,992.813 2785.21,994.281 2786.51,996.245C2786.51,996.245 2863.24,1112.58 2863.24,1112.58L3070.98,800.644Z" style="fill:rgb(52,49,76);"/><path d="M3359.47,914.468L3171.69,1327L3061.51,1230.59L2926.55,1205.8L3145.4,828.698C3214.06,863.036 3285.65,891.778 3359.47,914.468Z" style="fill:rgb(190,165,207);"/><path d="M3368.95,918.784L3181.17,1331.31C3179.8,1334.31 3177.1,1336.48 3173.88,1337.18C3170.66,1337.87 3167.31,1337 3164.83,1334.84L3056.81,1240.32L2924.66,1216.05C2921.33,1215.44 2918.5,1213.24 2917.09,1210.16C2915.67,1207.08 2915.84,1203.51 2917.54,1200.58L3136.39,823.47C3139.15,818.711 3145.14,816.921 3150.06,819.382C3218.2,853.463 3289.26,881.99 3362.53,904.511C3365.4,905.392 3367.74,907.463 3368.97,910.195C3370.2,912.928 3370.2,916.057 3368.95,918.784ZM3345.1,920.896C3277.85,899.601 3212.48,873.309 3149.51,842.364C3149.51,842.364 2942.99,1198.23 2942.99,1198.23L3063.39,1220.35C3065.24,1220.69 3066.96,1221.52 3068.37,1222.75L3168.01,1309.93L3345.1,920.896Z" style="fill:rgb(52,49,76);"/><path d="M3661.37,971.607L3582.09,1379.33L3455.39,1280.17L3297.58,1315.21L3418.83,931.28C3497.7,951.734 3578.83,965.354 3661.37,971.607Z" style="fill:rgb(122,197,124);"/><path d="M3671.6,973.595L3592.31,1381.32C3591.62,1384.88 3589.13,1387.82 3585.73,1389.09C3582.33,1390.36 3578.52,1389.77 3575.67,1387.53C3575.67,1387.53 3452.84,1291.41 3452.84,1291.41L3299.84,1325.38C3296.2,1326.18 3292.41,1324.99 3289.9,1322.25C3287.38,1319.5 3286.52,1315.62 3287.64,1312.07L3408.9,928.143C3410.57,922.858 3416.08,919.806 3421.45,921.197C3499.72,941.497 3580.23,955.014 3662.16,961.22C3665.12,961.444 3667.85,962.925 3669.66,965.29C3671.46,967.654 3672.16,970.676 3671.6,973.595ZM3648.92,981.061C3573.11,974.675 3498.52,962.123 3425.8,943.812L3312.95,1301.13L3453.13,1270C3456.17,1269.33 3459.35,1270.05 3461.81,1271.97L3575.11,1360.64L3648.92,981.061Z" style="fill:rgb(52,49,76);"/></g><g><path d="M2301.32,429.893C2291.86,413.804 2288.69,398.959 2291.83,385.357C2295.19,371.62 2303.31,360.965 2316.18,353.393C2325.14,348.119 2334.09,345.178 2343.01,344.569C2352.07,344.189 2360.97,345.913 2369.72,349.738C2378.47,353.564 2386.63,359.283 2394.2,366.894C2402.14,374.6 2409.29,383.855 2415.64,394.657C2417.4,397.645 2419.11,400.816 2420.77,404.169C2422.8,407.616 2424.67,411.314 2426.37,415.262C2428.3,419.074 2430.08,423.137 2431.69,427.45L2410.72,440.715C2409.38,436.862 2407.81,433.144 2406.01,429.561C2404.21,425.978 2402.35,422.281 2400.41,418.468C2398.61,414.885 2396.84,411.6 2395.08,408.612C2390.48,400.797 2385.73,394.308 2380.84,389.143C2376.31,384.073 2371.45,380.281 2366.26,377.767C2361.29,375.117 2356.07,373.86 2350.58,373.996C2345.45,374.226 2340.02,376.031 2334.27,379.412C2329.91,381.981 2326.52,384.902 2324.11,388.174C2321.94,391.311 2320.61,394.569 2320.12,397.949C2319.77,401.559 2320.08,405.244 2321.05,409.002C2322.03,412.761 2323.66,416.594 2325.96,420.501C2330.29,427.856 2335.34,433.548 2341.11,437.577C2347.25,441.7 2354.11,444.16 2361.7,444.957C2369.28,445.755 2377.41,444.841 2386.08,442.218C2395.11,439.689 2404.79,435.382 2415.14,429.297C2430.31,420.372 2441.22,412.097 2447.87,404.471C2454.52,396.845 2457.7,389.097 2457.4,381.229C2457.47,373.454 2454.8,364.97 2449.39,355.777C2445.47,349.111 2440.35,343.305 2434.03,338.356C2427.85,333.638 2420.27,330.211 2411.28,328.076L2421.09,303.738C2432.64,306.536 2442.77,311.403 2451.49,318.338C2460.44,325.138 2467.89,333.595 2473.84,343.708C2479.39,353.131 2483.2,362.494 2485.26,371.796C2487.56,380.963 2487.46,389.995 2484.96,398.891C2482.46,407.788 2477.15,416.637 2469.02,425.44C2461.13,434.107 2449.83,442.768 2435.12,451.422L2348.93,502.13L2332.09,473.515L2353.81,460.736C2347.27,461.183 2341.19,460.582 2335.58,458.933C2330.1,457.513 2325.23,455.276 2320.95,452.221C2317.05,449.26 2313.46,445.799 2310.2,441.838C2306.72,438.012 2303.76,434.03 2301.32,429.893Z" style="fill:rgb(52,49,76);fill-rule:nonzero;"/><path d="M2487.05,685.728L2506.66,667.472L2539.36,702.612L2695.45,557.379L2664.11,523.702L2683.73,505.446L2736.86,562.549L2561.16,726.039L2593.32,760.594L2573.7,778.85L2487.05,685.728Z" style="fill:rgb(52,49,76);fill-rule:nonzero;"/><path d="M2758.16,937.623L2773.45,915.61L2807.95,939.566L2882.33,832.458L2849.8,809.871L2865.09,787.858L2923.57,828.469L2833.9,957.59L2865.45,979.493L2850.16,1001.51L2758.16,937.623ZM2930.33,787.875C2925.51,784.529 2922.57,779.887 2921.49,773.949C2920.42,768.01 2921.56,762.632 2924.91,757.813C2928.41,752.775 2932.94,749.754 2938.51,748.75C2944.44,747.68 2949.93,748.893 2954.97,752.392C2959.79,755.738 2962.73,760.38 2963.8,766.318C2964.88,772.256 2963.74,777.635 2960.39,782.454C2957.05,787.272 2952.4,790.217 2946.47,791.288C2940.53,792.359 2935.15,791.221 2930.33,787.875Z" style="fill:rgb(52,49,76);fill-rule:nonzero;"/><path d="M3095.83,1207.71C3084.98,1203.25 3075.64,1198.25 3067.82,1192.73C3060,1187.2 3053.77,1181.33 3049.12,1175.09C3044.73,1168.95 3042.04,1162.52 3041.07,1155.77C3040.1,1149.03 3041.13,1141.96 3044.17,1134.56C3046.91,1127.9 3050.76,1122.41 3055.7,1118.11C3060.54,1114.04 3065.82,1111.02 3071.54,1109.05C3077.5,1107.18 3083.42,1106.44 3089.31,1106.85L3099.74,1119.35C3094.92,1120.54 3090.72,1121.99 3087.14,1123.69C3083.66,1125.14 3080.64,1127.21 3078.09,1129.91C3075.44,1132.86 3073.15,1136.67 3071.22,1141.36C3069.6,1145.3 3069.16,1149.16 3069.92,1152.93C3070.92,1156.81 3072.99,1160.54 3076.12,1164.14C3079.16,1167.98 3083.18,1171.51 3088.2,1174.73C3093.47,1178.05 3099.68,1181.18 3106.83,1184.12C3116.2,1187.98 3124.3,1190.01 3131.13,1190.23C3138.11,1190.79 3143.84,1189.83 3148.32,1187.35C3152.8,1184.87 3156.06,1181.16 3158.09,1176.23C3160.12,1171.3 3160.93,1166.87 3160.52,1162.96C3160.01,1159.29 3157.47,1155.65 3152.9,1152.04C3148.43,1148.18 3141.26,1144.22 3131.4,1140.16C3123.76,1137.02 3116.7,1133.83 3110.25,1130.6C3103.89,1127.12 3098.36,1123.4 3093.64,1119.44C3088.93,1115.48 3085.16,1111.34 3082.33,1107C3079.74,1102.77 3078.23,1098.39 3077.78,1093.88C3077.43,1089.12 3078.32,1084.16 3080.45,1078.98C3083.29,1072.07 3087.78,1066.42 3093.91,1062.03C3100.04,1057.63 3107.01,1054.01 3114.81,1051.16L3124.76,1066.93C3121.43,1068.73 3118.61,1070.31 3116.32,1071.68C3114.13,1072.8 3112.31,1074.07 3110.86,1075.49C3109.66,1077.01 3108.55,1079.01 3107.53,1081.47C3106.12,1084.92 3106.25,1088.44 3107.95,1092.02C3110,1095.46 3114.22,1099.22 3120.62,1103.29C3127.36,1107.22 3136.78,1111.67 3148.86,1116.64C3159.96,1121.2 3168.63,1126.07 3174.87,1131.23C3181.21,1136.14 3185.49,1141.51 3187.71,1147.33C3190.03,1152.9 3190.94,1158.75 3190.43,1164.88C3190.03,1170.77 3188.56,1176.8 3186.02,1182.96C3183.18,1189.87 3179.14,1195.85 3173.89,1200.9C3168.78,1206.29 3162.51,1210.34 3155.05,1213.04C3147.6,1215.74 3138.95,1216.8 3129.1,1216.21C3119.25,1215.62 3108.16,1212.78 3095.83,1207.71ZM3140.35,1083.72C3129.25,1079.16 3120.57,1072.56 3114.32,1063.93C3108.31,1055.41 3104.79,1045.74 3103.76,1034.93C3103.07,1023.98 3105.01,1012.96 3109.58,1001.86C3114.24,990.517 3120.62,981.319 3128.71,974.267C3137.05,967.317 3146.36,962.926 3156.62,961.095C3167.24,959.119 3177.97,960.363 3188.83,964.827C3200.17,969.494 3208.8,976.214 3214.7,984.988C3220.71,993.515 3224.11,1003.13 3224.89,1013.84C3225.93,1024.64 3224.11,1035.71 3219.44,1047.06C3214.88,1058.16 3208.38,1067.3 3199.94,1074.5C3191.84,1081.55 3182.66,1086 3172.39,1087.83C3162.13,1089.66 3151.44,1088.29 3140.35,1083.72ZM3150.02,1059.16C3155.94,1061.59 3161.73,1062.24 3167.38,1061.11C3173.14,1059.73 3178.32,1056.96 3182.91,1052.79C3187.86,1048.48 3191.65,1043.12 3194.29,1036.71C3197.13,1029.81 3198.26,1023.21 3197.68,1016.91C3197.34,1010.72 3195.56,1005.23 3192.34,1000.44C3189.12,995.657 3184.55,992.047 3178.63,989.612C3172.96,987.278 3167.29,986.678 3161.64,987.811C3155.98,988.945 3150.73,991.543 3145.89,995.606C3141.29,999.77 3137.57,1005.31 3134.73,1012.21C3132.09,1018.62 3130.89,1025.05 3131.13,1031.49C3131.46,1037.68 3133.19,1043.29 3136.31,1048.33C3139.78,1053.21 3144.35,1056.82 3150.02,1059.16ZM3220.24,1018.84L3215.23,999.478C3224.38,995.457 3233.19,993.315 3241.66,993.051C3250.38,992.889 3259.27,995.105 3268.34,999.7L3261.93,1024.75C3255.08,1021.06 3248.2,1018.52 3241.28,1017.12C3234.36,1015.71 3227.35,1016.28 3220.24,1018.84Z" style="fill:rgb(52,49,76);fill-rule:nonzero;"/><path d="M3406.09,1233.91L3438.29,1052.75L3469.01,1058.21L3463.76,1087.75C3469.22,1081.41 3475.02,1076.21 3481.16,1072.15C3487.3,1068.1 3493.75,1065.32 3500.52,1063.81C3507.59,1062.09 3514.81,1061.89 3522.16,1063.19C3531.35,1064.83 3539.18,1068.79 3545.64,1075.09C3552.41,1081.16 3556.92,1090.09 3559.16,1101.87C3561.71,1113.42 3561.35,1128.39 3558.09,1146.77L3538.41,1257.44L3507.69,1251.98L3527.23,1142.1C3529.33,1130.28 3529.8,1120.75 3528.65,1113.51C3527.81,1106.04 3525.57,1100.36 3521.93,1096.47C3518.55,1092.62 3514.11,1090.2 3508.59,1089.22C3503.34,1088.29 3498.01,1088.56 3492.6,1090.03C3487.2,1091.51 3481.84,1094.21 3476.54,1098.15C3471.54,1101.86 3467.17,1106.64 3463.43,1112.47C3459.68,1118.31 3457.09,1125.3 3455.64,1133.43L3436.81,1239.37L3406.09,1233.91Z" style="fill:rgb(52,49,76);fill-rule:nonzero;"/></g><g id="bunting_string"><path d="M3757.75,965.109C3763.49,965.141 3768.14,969.836 3768.1,975.585C3768.07,981.334 3763.38,985.974 3757.63,985.942C3183.45,982.653 2661.04,624.183 2455.87,80.743C2453.84,75.364 2456.56,69.349 2461.94,67.318C2467.32,65.288 2473.33,68.006 2475.36,73.384C2677.48,608.736 3192.12,961.869 3757.75,965.109Z" style="fill:rgb(52,49,76);"/></g></g><g id="bunting1"><g id="bunting_flags1" serif:id="bunting_flags"><path d="M134.855,1212.92C208.211,1204.96 279.863,1191.29 349.357,1172.37L432.252,1562.76L299.256,1553.4L172.931,1621.25L134.855,1212.92Z" style="fill:rgb(255,201,82);"/><path d="M133.732,1202.56C206.536,1194.67 277.648,1181.1 346.619,1162.32C349.384,1161.56 352.336,1161.98 354.782,1163.47C357.228,1164.97 358.951,1167.4 359.546,1170.2L442.441,1560.6C443.121,1563.8 442.258,1567.13 440.111,1569.6C437.965,1572.07 434.784,1573.38 431.521,1573.15L301.53,1564.01L177.859,1630.42C174.783,1632.08 171.083,1632.08 168.006,1630.42C164.928,1628.77 162.883,1625.69 162.559,1622.21L124.483,1213.88C123.955,1208.22 128.073,1203.17 133.732,1202.56ZM146.176,1222.13L181.844,1604.63L294.327,1544.23C296.061,1543.3 298.023,1542.88 299.987,1543.01L419.191,1551.4C419.191,1551.4 341.448,1185.27 341.448,1185.27C278,1202.01 212.797,1214.41 146.176,1222.13Z" style="fill:rgb(243,114,114);"/><path d="M414.994,1152.73C492.872,1127.3 567.736,1095.18 638.905,1057.04L809.233,1417.72L678.23,1427.08L554.244,1527.67L414.994,1152.73Z" style="fill:rgb(255,201,82);"/><path d="M411.761,1142.82C489.052,1117.59 563.352,1085.71 633.985,1047.86C636.501,1046.52 639.46,1046.26 642.17,1047.15C644.881,1048.05 647.105,1050.02 648.324,1052.6L818.653,1413.27C820.12,1416.38 819.96,1420.01 818.225,1422.98C816.49,1425.95 813.404,1427.87 809.975,1428.11L682.245,1437.24L560.807,1535.76C558.201,1537.88 554.736,1538.61 551.498,1537.72C548.261,1536.84 545.648,1534.44 544.48,1531.3L405.229,1156.35C404.242,1153.69 404.381,1150.75 405.614,1148.2C406.846,1145.64 409.066,1143.7 411.761,1142.82ZM428.519,1159.22L558.955,1510.44L671.667,1418.99C673.325,1417.64 675.357,1416.84 677.488,1416.69L793.319,1408.42C793.319,1408.42 634.147,1071.36 634.147,1071.36C568.497,1105.88 499.782,1135.34 428.519,1159.22Z" style="fill:rgb(243,114,114);"/><path d="M692.399,1026.84C760.74,986.237 825.314,939.946 885.466,888.622L1126.09,1213.23L987.513,1267.75L912.812,1363.81L692.399,1026.84Z" style="fill:rgb(190,165,207);"/><path d="M687.078,1017.88C754.91,977.585 819.002,931.639 878.705,880.697C880.901,878.824 883.776,877.946 886.644,878.272C889.512,878.598 892.116,880.1 893.835,882.419L1134.46,1207.02C1136.39,1209.63 1137,1212.98 1136.1,1216.1C1135.21,1219.21 1132.92,1221.73 1129.9,1222.92L993.983,1276.4L921.035,1370.21C918.969,1372.86 915.748,1374.36 912.386,1374.22C909.025,1374.08 905.936,1372.33 904.094,1369.51L683.682,1032.54C682.127,1030.16 681.61,1027.26 682.251,1024.49C682.893,1021.72 684.636,1019.34 687.078,1017.88ZM707.047,1030.2C707.047,1030.2 913.544,1345.9 913.544,1345.9L979.29,1261.35C980.437,1259.88 981.96,1258.74 983.699,1258.06C983.699,1258.06 1109.62,1208.51 1109.62,1208.51C1068.4,1152.89 883.715,903.751 883.715,903.751C828.309,950.274 769.255,992.589 707.047,1030.2Z" style="fill:rgb(243,114,114);"/><path d="M920.445,857.755C977.218,805.949 1029.69,749.506 1077.26,689.028L1380.52,936.077L1273.75,995.142L1207.87,1135.99L920.445,857.755Z" style="fill:rgb(122,197,124);"/><path d="M913.424,850.06C969.775,798.64 1021.86,742.617 1069.07,682.589C1070.8,680.393 1073.33,678.983 1076.11,678.675C1078.88,678.367 1081.67,679.188 1083.84,680.952L1387.1,928.001C1389.78,930.186 1391.2,933.559 1390.9,937.005C1390.59,940.45 1388.59,943.518 1385.56,945.192L1281.75,1002.62L1217.31,1140.4C1215.88,1143.45 1213.07,1145.62 1209.76,1146.23C1206.44,1146.84 1203.04,1145.82 1200.62,1143.47L913.2,865.239C911.135,863.24 909.987,860.476 910.03,857.601C910.072,854.727 911.3,851.998 913.424,850.06ZM935.622,857.949L1204.62,1118.35L1264.32,990.729C1265.25,988.737 1266.78,987.091 1268.71,986.027L1362,934.421L1078.86,703.772C1035,758.68 987.107,810.222 935.622,857.949Z" style="fill:rgb(243,114,114);"/><path d="M1125.98,623.196C1170.72,558.883 1210.18,490.62 1243.71,419.04L1573.62,593.047L1473.66,686.188L1455.49,822.491L1125.98,623.196Z" style="fill:rgb(122,197,124);"/><path d="M1117.43,617.247C1161.84,553.416 1201,485.665 1234.28,414.621C1235.49,412.042 1237.7,410.07 1240.4,409.164C1243.1,408.259 1246.05,408.498 1248.57,409.826L1578.48,583.833C1581.46,585.407 1583.5,588.328 1583.94,591.672C1584.39,595.016 1583.19,598.368 1580.72,600.668L1483.49,691.264L1465.81,823.868C1465.35,827.35 1463.16,830.364 1459.99,831.884C1456.82,833.403 1453.1,833.223 1450.1,831.404L1120.59,632.109C1118.13,630.62 1116.39,628.177 1115.79,625.362C1115.19,622.547 1115.79,619.61 1117.43,617.247ZM1140.84,620.007L1447.27,805.344L1463.34,684.811C1463.66,682.419 1464.8,680.212 1466.56,678.567L1555.79,595.421C1555.79,595.421 1248.47,433.329 1248.47,433.329C1217.32,498.489 1181.29,560.874 1140.84,620.007Z" style="fill:rgb(243,114,114);"/><path d="M1278.46,338.273C1306.26,267.547 1328.43,194 1344.42,118.185L1789.37,278.14L1696.29,379.505L1675.85,522.623L1278.46,338.273Z" style="fill:rgb(255,145,78);"/><path d="M1268.77,334.463C1296.36,264.27 1318.36,191.278 1334.23,116.036C1334.85,113.089 1336.71,110.556 1339.34,109.088C1341.97,107.621 1345.11,107.364 1347.94,108.383L1792.89,268.338C1796.17,269.518 1798.64,272.262 1799.48,275.649C1800.31,279.036 1799.4,282.616 1797.04,285.185L1706.15,384.173L1686.16,524.097C1685.69,527.358 1683.71,530.207 1680.81,531.779C1677.92,533.35 1674.45,533.459 1671.46,532.073L1274.08,347.723C1269.08,345.403 1266.75,339.592 1268.77,334.463ZM1291.71,332.938L1667.52,507.276L1685.98,378.032C1686.28,375.951 1687.2,374.008 1688.62,372.46L1771.09,282.64C1771.09,282.64 1352.1,132.014 1352.1,132.014C1336.92,201.027 1316.66,268.14 1291.71,332.938Z" style="fill:rgb(243,114,114);"/></g><g id="bunting_string1" serif:id="bunting_string"><path d="M1352,12.177C1352.75,6.477 1357.99,2.46 1363.69,3.212C1369.39,3.964 1373.4,9.202 1372.65,14.901C1283.43,691.347 710.917,1216.34 13.8,1231.17C8.052,1231.29 3.286,1226.73 3.164,1220.98C3.041,1215.23 7.609,1210.46 13.356,1210.34C700.101,1195.73 1264.1,678.558 1352,12.177Z" style="fill:rgb(243,114,114);"/></g><g><path d="M294.029,1490.86C284.327,1492.66 275.087,1493.29 266.308,1492.74C257.577,1492.46 249.201,1491.17 241.179,1488.86C233.108,1486.28 225.523,1482.67 218.424,1478.02L228.442,1446.47L230.219,1442.88L232.797,1443.63C233.71,1445.63 234.779,1447.74 236.003,1449.95C237.178,1451.9 239.499,1454.18 242.967,1456.79C249.085,1460.54 255.82,1463.23 263.172,1464.85C270.786,1466.42 279.575,1466.28 289.539,1464.44C297.405,1462.98 303.897,1460.69 309.014,1457.57C314.083,1454.19 317.695,1450.27 319.851,1445.8C322.219,1441.02 322.918,1436.01 321.946,1430.77C321.266,1427.1 320.027,1424.07 318.23,1421.69C316.385,1419.05 313.67,1416.84 310.087,1415.07C306.454,1413.03 301.928,1411.29 296.509,1409.85C291.09,1408.42 284.598,1407.04 277.033,1405.73C263.98,1404.08 252.404,1401.62 242.304,1398.34C232.417,1394.74 224.351,1390 218.106,1384.11C211.812,1377.95 207.79,1370.15 206.041,1360.71C204.34,1351.54 205.194,1342.97 208.602,1335.02C212.272,1327.02 218.306,1320.07 226.706,1314.17C235.106,1308.27 245.992,1304.09 259.364,1301.61C266.705,1300.25 273.644,1299.64 280.18,1299.79C286.667,1299.67 292.752,1300.3 298.433,1301.69C304.066,1302.82 309.427,1304.67 314.516,1307.25C319.605,1309.84 324.553,1313.12 329.361,1317.11L316.997,1342.59L315.22,1346.18L312.496,1344.65C311.845,1342.6 310.932,1340.6 309.756,1338.65C308.581,1336.69 306.415,1334.52 303.259,1332.12C297.237,1328.9 290.91,1326.95 284.277,1326.28C277.595,1325.35 271.108,1325.47 264.815,1326.63C255.638,1328.34 248.243,1331.6 242.631,1336.44C237.018,1341.28 234.843,1347.11 236.107,1353.92C236.836,1357.86 238.72,1361.44 241.76,1364.67C245.014,1367.6 250.103,1370.18 257.028,1372.42C263.952,1374.66 273.392,1376.57 285.347,1378.15C299.594,1380.4 311.219,1383.12 320.222,1386.34C329.225,1389.55 336.169,1394.1 341.054,1399.97C346.154,1405.53 349.529,1412.77 351.181,1421.69C353.174,1432.44 352.349,1442.63 348.709,1452.25C345.33,1461.83 339.121,1470.03 330.081,1476.86C320.992,1483.42 308.974,1488.09 294.029,1490.86Z" style="fill:rgb(52,49,76);fill-rule:nonzero;"/><path d="M658.683,1378.48C649.115,1382.56 640.41,1384.24 632.568,1383.52C624.726,1382.8 617.398,1379.55 610.583,1373.75C603.663,1367.72 597.081,1359.07 590.838,1347.82C584.491,1336.32 577.957,1322 571.237,1304.86L523.867,1182.43L552.319,1165.53L555.842,1163.6L557.464,1166.38C556.969,1168.62 556.597,1170.81 556.347,1172.95C556.342,1174.98 557.106,1178.13 558.637,1182.4L574.607,1229.08L577.905,1233.76L600.779,1293.58C607.568,1311.56 613.788,1325.14 619.44,1334.33C625.338,1343.41 630.963,1349.13 636.315,1351.49C641.808,1353.5 647.498,1353.25 653.386,1350.74C660.747,1347.6 666.569,1343.24 670.853,1337.64C675.137,1332.05 679.037,1325.9 682.553,1319.18L700.314,1339.44C695.321,1348.82 689.404,1356.7 682.562,1363.09C675.72,1369.49 667.76,1374.61 658.683,1378.48ZM508.141,1240.44L620.749,1192.47L631.252,1217.12L518.275,1265.25L508.141,1240.44Z" style="fill:rgb(52,49,76);fill-rule:nonzero;"/><path d="M809.177,1085.53L836.086,1066.08L865.896,1108.69L859.698,1106.27C856.093,1099 853.899,1091.87 853.116,1084.87C852.177,1077.65 852.511,1070.83 854.118,1064.4C855.786,1057.6 858.372,1051.62 861.877,1046.45C865.443,1040.92 869.819,1036.27 875.006,1032.52C882.355,1027.21 890.07,1023.78 898.152,1022.21C906.235,1020.65 914.684,1020.96 923.5,1023.14L927.941,1052.51L929.077,1056.12L925.78,1057.03C924.098,1055.61 922.308,1054.27 920.41,1053.01C918.356,1051.54 915.143,1050.73 910.772,1050.6C906.4,1050.47 902.497,1050.99 899.062,1052.15C895.472,1053.1 892.055,1054.75 888.813,1057.09C884.058,1060.53 880.084,1065.05 876.891,1070.64C873.758,1075.87 871.731,1081.94 870.808,1088.86C869.885,1095.78 870.578,1103.34 872.887,1111.54C875.411,1119.59 879.876,1128.04 886.28,1136.9L943.448,1216.01L917.188,1234.98L809.177,1085.53Z" style="fill:rgb(52,49,76);fill-rule:nonzero;"/><path d="M1190.78,1006.9L1170.98,988.836L1199.29,957.81L1102.96,869.92L1076.27,899.174L1056.47,881.111L1104.46,828.513L1220.59,934.466L1246.47,906.098L1266.27,924.162L1190.78,1006.9ZM1065.12,816.442C1061.16,820.776 1056.17,823.081 1050.14,823.357C1044.12,823.633 1038.93,821.794 1034.6,817.84C1030.07,813.706 1027.67,808.814 1027.42,803.163C1027.14,797.135 1029.07,791.856 1033.2,787.325C1037.16,782.991 1042.15,780.686 1048.17,780.41C1054.2,780.134 1059.38,781.973 1063.72,785.927C1068.05,789.881 1070.36,794.872 1070.63,800.9C1070.91,806.927 1069.07,812.108 1065.12,816.442Z" style="fill:rgb(52,49,76);fill-rule:nonzero;"/><path d="M1409.88,730.034L1250.57,637.979L1266.17,610.965L1292.15,625.974C1288.05,618.677 1285.14,611.453 1283.42,604.3C1281.7,597.147 1281.29,590.133 1282.18,583.258C1282.98,576.018 1285.25,569.165 1288.98,562.7C1293.65,554.619 1300.05,548.613 1308.17,544.683C1316.19,540.388 1326.12,539.196 1337.95,541.105C1349.69,542.65 1363.64,548.091 1379.8,557.43L1477.12,613.664L1461.51,640.678L1364.88,584.845C1354.49,578.842 1345.7,575.144 1338.49,573.754C1331.19,571.999 1325.09,572.168 1320.18,574.261C1315.41,576.124 1311.62,579.479 1308.82,584.328C1306.15,588.946 1304.59,594.049 1304.13,599.636C1303.68,605.224 1304.39,611.181 1306.28,617.508C1308.07,623.47 1311.07,629.207 1315.28,634.718C1319.49,640.229 1325.17,645.052 1332.33,649.188L1425.49,703.02L1409.88,730.034Z" style="fill:rgb(52,49,76);fill-rule:nonzero;"/><path d="M1655.98,362.268C1652.45,373.457 1648.26,383.181 1643.42,391.44C1638.57,399.698 1633.24,406.405 1627.42,411.559C1621.68,416.458 1615.49,419.678 1608.85,421.219C1602.22,422.759 1595.08,422.326 1587.45,419.918C1580.59,417.751 1574.8,414.386 1570.09,409.824C1565.63,405.341 1562.17,400.336 1559.72,394.809C1557.35,389.028 1556.12,383.186 1556.03,377.284L1567.61,365.839C1569.2,370.536 1570.99,374.598 1572.99,378.024C1574.73,381.369 1577.05,384.199 1579.96,386.514C1583.12,388.909 1587.11,390.869 1591.94,392.394C1596.01,393.678 1599.89,393.784 1603.59,392.713C1607.36,391.387 1610.91,389.01 1614.23,385.584C1617.8,382.237 1620.98,377.927 1623.76,372.653C1626.62,367.125 1629.22,360.674 1631.54,353.299C1634.59,343.635 1635.94,335.391 1635.57,328.565C1635.55,321.565 1634.11,315.938 1631.26,311.683C1628.4,307.427 1624.43,304.497 1619.35,302.892C1614.26,301.287 1609.79,300.853 1605.92,301.59C1602.3,302.407 1598.89,305.245 1595.68,310.104C1592.22,314.882 1588.88,322.358 1585.67,332.53C1583.18,340.413 1580.6,347.708 1577.92,354.414C1574.99,361.039 1571.76,366.869 1568.21,371.901C1564.66,376.934 1560.85,381.044 1556.77,384.23C1552.77,387.162 1548.54,389.043 1544.08,389.874C1539.37,390.624 1534.35,390.157 1529.01,388.472C1521.88,386.225 1515.88,382.231 1510.98,376.49C1506.08,370.75 1501.88,364.112 1498.38,356.578L1513.26,345.333C1515.33,348.504 1517.15,351.174 1518.7,353.342C1520,355.429 1521.42,357.135 1522.96,358.46C1524.58,359.53 1526.66,360.467 1529.2,361.269C1532.76,362.393 1536.25,361.957 1539.68,359.962C1542.93,357.633 1546.32,353.109 1549.84,346.389C1553.18,339.335 1556.82,329.578 1560.75,317.117C1564.36,305.673 1568.48,296.625 1573.09,289.973C1577.45,283.24 1582.44,278.521 1588.05,275.816C1593.4,273.032 1599.15,271.632 1605.31,271.617C1611.21,271.522 1617.34,272.478 1623.7,274.484C1630.82,276.731 1637.12,280.257 1642.59,285.06C1648.4,289.69 1652.97,295.604 1656.29,302.804C1659.61,310.004 1661.39,318.536 1661.63,328.399C1661.88,338.263 1659.99,349.552 1655.98,362.268ZM1528.67,328.386C1525.06,339.83 1519.22,349.032 1511.15,355.993C1503.16,362.7 1493.83,367.025 1483.15,368.968C1472.3,370.576 1461.15,369.574 1449.7,365.963C1438.01,362.272 1428.3,356.693 1420.59,349.226C1412.96,341.505 1407.8,332.606 1405.11,322.529C1402.24,312.117 1402.57,301.316 1406.1,290.127C1409.8,278.429 1415.76,269.267 1424.01,262.64C1432,255.933 1441.29,251.736 1451.89,250.047C1462.57,248.104 1473.76,248.979 1485.45,252.67C1496.9,256.281 1506.56,261.988 1514.45,269.789C1522.16,277.255 1527.36,286.027 1530.05,296.104C1532.74,306.182 1532.28,316.942 1528.67,328.386ZM1503.38,320.823C1505.3,314.719 1505.46,308.897 1503.85,303.357C1501.99,297.736 1498.79,292.812 1494.26,288.583C1489.54,284.02 1483.88,280.696 1477.27,278.609C1470.15,276.362 1463.48,275.795 1457.25,276.907C1451.11,277.765 1445.79,280.001 1441.3,283.615C1436.8,287.23 1433.59,292.089 1431.66,298.192C1429.82,304.041 1429.7,309.736 1431.3,315.276C1432.91,320.817 1435.94,325.828 1440.4,330.311C1444.94,334.539 1450.77,337.777 1457.89,340.024C1464.5,342.11 1471.01,342.765 1477.4,341.987C1483.55,341.13 1488.99,338.934 1493.74,335.399C1498.32,331.531 1501.53,326.672 1503.38,320.823ZM1457.27,254.262L1438.4,260.891C1433.62,252.112 1430.74,243.513 1429.76,235.095C1428.86,226.423 1430.32,217.375 1434.13,207.953L1459.63,212.223C1456.54,219.358 1454.59,226.431 1453.77,233.444C1452.96,240.458 1454.12,247.397 1457.27,254.262Z" style="fill:rgb(52,49,76);fill-rule:nonzero;"/></g></g></g></g></g><g id="caterpillars"><g id="caterpillar1"><g id="body_5_with_legs"><path id="body5" d="M1203.28,2159.64C1297.27,2195.07 1349.1,2291.72 1313.67,2385.71C1278.24,2479.7 1173.89,2534.21 1079.9,2498.78C985.908,2463.35 921.719,2369.86 957.151,2275.87C992.582,2181.88 1109.29,2124.21 1203.28,2159.64Z" style="fill:rgb(255,192,29);"/><clipPath id="_clip1"><path d="M1203.28,2159.64C1297.27,2195.07 1349.1,2291.72 1313.67,2385.71C1278.24,2479.7 1173.89,2534.21 1079.9,2498.78C985.908,2463.35 921.719,2369.86 957.151,2275.87C992.582,2181.88 1109.29,2124.21 1203.28,2159.64Z"/></clipPath><g clip-path="url(#_clip1)"><path d="M990.481,2306.55C1002.95,2266.23 1017.16,2228.36 1057.74,2240.91C1098.33,2253.46 1108.05,2295.9 1095.58,2336.21C1083.12,2376.53 1065.99,2435.53 1025.4,2422.99C984.815,2410.44 978.017,2346.86 990.481,2306.55Z" style="fill:rgb(255,209,110);"/></g><path d="M1206.95,2149.9C1306.44,2187.4 1360.92,2289.89 1323.42,2389.39C1285.98,2488.71 1175.55,2545.97 1076.22,2508.53C976.808,2471.05 909.927,2371.61 947.403,2272.2C984.752,2173.12 1107.87,2112.55 1206.95,2149.9ZM1199.6,2169.39C1110.7,2135.88 1000.41,2190.64 966.898,2279.55C933.511,2368.11 995.005,2455.65 1083.57,2489.04C1172.23,2522.46 1270.5,2470.7 1303.93,2382.04C1337.28,2293.55 1288.09,2202.75 1199.6,2169.39Z" style="fill:rgb(243,114,114);"/><path d="M1015.98,2406.52C1021.29,2404.32 1027.39,2406.85 1029.59,2412.16C1031.79,2417.47 1029.27,2423.57 1023.96,2425.77C1004.94,2433.65 993.61,2444.06 987.318,2455.09C973.058,2480.07 984.547,2507.13 984.547,2507.13C986.786,2512.43 984.304,2518.55 979.009,2520.78C973.714,2523.02 967.597,2520.54 965.358,2515.25C965.358,2515.25 949.91,2478.6 969.224,2444.76C977.323,2430.57 991.499,2416.67 1015.98,2406.52Z" style="fill:rgb(243,114,114);"/></g><g id="body4_with_legs"><path d="M1547.69,2513.04C1542.38,2510.84 1539.85,2504.74 1542.05,2499.43C1544.25,2494.12 1550.35,2491.59 1555.66,2493.79C1580.15,2503.94 1594.32,2517.84 1602.42,2532.03C1621.74,2565.87 1606.29,2602.52 1606.29,2602.52C1604.05,2607.81 1597.93,2610.29 1592.64,2608.05C1587.34,2605.82 1584.86,2599.7 1587.1,2594.4C1587.1,2594.4 1598.59,2567.34 1584.33,2542.36C1578.04,2531.33 1566.71,2520.92 1547.69,2513.04Z" style="fill:rgb(243,114,114);"/><path id="body4" d="M1492.39,2250.12C1585.18,2288.59 1633.84,2386.87 1595.38,2479.66C1556.91,2572.45 1450.84,2623.54 1358.05,2585.07C1265.26,2546.6 1204.14,2451.07 1242.61,2358.28C1281.08,2265.5 1399.6,2211.65 1492.39,2250.12Z" style="fill:rgb(255,201,82);"/><clipPath id="_clip2"><path d="M1492.39,2250.12C1585.18,2288.59 1633.84,2386.87 1595.38,2479.66C1556.91,2572.45 1450.84,2623.54 1358.05,2585.07C1265.26,2546.6 1204.14,2451.07 1242.61,2358.28C1281.08,2265.5 1399.6,2211.65 1492.39,2250.12Z"/></clipPath><g clip-path="url(#_clip2)"><path d="M1253.84,2409.6C1266.31,2369.29 1305.71,2335.99 1346.3,2348.54C1386.88,2361.09 1412.63,2412.7 1400.17,2453.01C1387.7,2493.32 1349.96,2522.56 1309.37,2510.01C1268.79,2497.46 1241.38,2449.91 1253.84,2409.6Z" style="fill:rgb(255,215,129);"/></g><path d="M1496.38,2240.5C1594.6,2281.22 1645.72,2385.43 1605,2483.65C1564.35,2581.7 1452.11,2635.34 1354.06,2594.69C1255.91,2554 1192.3,2452.44 1232.99,2354.3C1273.54,2256.49 1398.57,2199.95 1496.38,2240.5ZM1488.4,2259.74C1400.63,2223.36 1288.62,2274.51 1252.24,2362.28C1215.99,2449.71 1274.6,2539.2 1362.04,2575.45C1449.56,2611.74 1549.47,2563.2 1585.75,2475.67C1621.97,2388.31 1575.76,2295.96 1488.4,2259.74Z" style="fill:rgb(243,114,114);"/><path d="M1293.09,2500.42C1298.4,2498.22 1304.5,2500.74 1306.7,2506.05C1308.9,2511.36 1306.37,2517.46 1301.06,2519.66C1282.04,2527.54 1270.71,2537.96 1264.42,2548.98C1250.16,2573.97 1261.65,2601.03 1261.65,2601.03C1263.89,2606.32 1261.41,2612.44 1256.11,2614.68C1250.82,2616.92 1244.7,2614.44 1242.46,2609.14C1242.46,2609.14 1227.01,2572.5 1246.33,2538.65C1254.43,2524.46 1268.6,2510.56 1293.09,2500.42Z" style="fill:rgb(243,114,114);"/></g><g id="body3_with_legs"><path d="M1829.71,2347.74C1825.67,2344.35 1825.13,2338.33 1828.51,2334.28C1831.89,2330.24 1837.92,2329.7 1841.97,2333.09C1841.97,2333.09 1858.57,2347.3 1876.88,2339.93C1883.66,2337.2 1887.56,2331.7 1889.97,2326.25C1894.11,2316.92 1894.08,2307.36 1894.08,2307.36C1894.05,2302.09 1898.3,2297.78 1903.57,2297.75C1908.84,2297.72 1913.15,2301.98 1913.18,2307.25C1913.18,2307.25 1913.28,2320.78 1907.43,2333.99C1903.19,2343.57 1895.93,2352.85 1884.02,2357.65C1855.6,2369.08 1829.71,2347.74 1829.71,2347.74Z" style="fill:rgb(243,114,114);"/><path id="body3" d="M1826.91,2131.29C1891.46,2208.25 1889.25,2317.9 1812.28,2382.44C1735.32,2446.99 1617.64,2443.33 1553.1,2366.37C1488.55,2289.4 1478.45,2176.45 1555.41,2111.91C1632.38,2047.36 1762.37,2054.32 1826.91,2131.29Z" style="fill:rgb(255,192,29);"/><clipPath id="_clip3"><path d="M1826.91,2131.29C1891.46,2208.25 1889.25,2317.9 1812.28,2382.44C1735.32,2446.99 1617.64,2443.33 1553.1,2366.37C1488.55,2289.4 1478.45,2176.45 1555.41,2111.91C1632.38,2047.36 1762.37,2054.32 1826.91,2131.29Z"/></clipPath><g clip-path="url(#_clip3)"><path d="M1530.95,2242.42C1543.41,2202.11 1585.1,2194.01 1625.69,2206.56C1666.27,2219.11 1710.35,2268.42 1697.88,2308.73C1685.42,2349.04 1647.67,2378.28 1607.09,2365.73C1566.5,2353.18 1518.48,2282.74 1530.95,2242.42Z" style="fill:rgb(255,209,110);"/></g><path d="M1834.89,2124.59C1903.22,2206.06 1900.45,2322.1 1818.98,2390.43C1737.65,2458.63 1613.32,2454.39 1545.12,2373.06C1476.85,2291.65 1467.31,2172.19 1548.72,2103.92C1629.85,2035.89 1766.86,2043.46 1834.89,2124.59ZM1818.93,2137.98C1757.88,2065.18 1634.91,2058.84 1562.11,2119.89C1489.58,2180.71 1500.26,2287.15 1561.08,2359.67C1621.96,2432.27 1732.99,2435.35 1805.59,2374.46C1878.05,2313.69 1879.7,2210.44 1818.93,2137.98Z" style="fill:rgb(243,114,114);"/><path d="M1543.78,2269.9C1545.39,2264.88 1550.77,2262.11 1555.79,2263.71C1560.81,2265.32 1563.58,2270.7 1561.98,2275.72C1561.98,2275.72 1554.67,2298.6 1538.66,2317.05C1527.18,2330.29 1511.38,2341.11 1491.14,2341.42C1456.96,2341.95 1434.78,2307.4 1434.78,2307.4C1431.98,2302.93 1433.34,2297.04 1437.8,2294.24C1442.27,2291.44 1448.16,2292.79 1450.96,2297.26C1450.96,2297.26 1466.39,2322.7 1490.85,2322.33C1505.18,2322.11 1516.1,2313.92 1524.24,2304.54C1537.65,2289.07 1543.78,2269.9 1543.78,2269.9Z" style="fill:rgb(243,114,114);"/></g><g id="body2_with_legs"><path d="M1717.49,1944.68C1713.45,1941.29 1712.91,1935.27 1716.3,1931.22C1719.68,1927.18 1725.71,1926.65 1729.75,1930.03C1729.75,1930.03 1746.35,1944.24 1764.67,1936.87C1771.44,1934.14 1775.34,1928.64 1777.76,1923.19C1781.89,1913.86 1781.86,1904.3 1781.86,1904.3C1781.83,1899.03 1786.09,1894.72 1791.36,1894.69C1796.63,1894.66 1800.93,1898.92 1800.96,1904.19C1800.96,1904.19 1801.07,1917.73 1795.22,1930.93C1790.97,1940.51 1783.72,1949.79 1771.8,1954.59C1743.39,1966.02 1717.49,1944.68 1717.49,1944.68Z" style="fill:rgb(243,114,114);"/><path id="body2" d="M1489.96,1786.75C1586.01,1757.37 1686.1,1802.2 1715.49,1898.25C1744.87,1994.3 1695.58,2101.22 1599.53,2130.61C1503.47,2159.99 1395.54,2125.21 1366.15,2029.15C1336.77,1933.1 1393.91,1816.14 1489.96,1786.75Z" style="fill:rgb(255,201,82);"/><clipPath id="_clip4"><path d="M1489.96,1786.75C1586.01,1757.37 1686.1,1802.2 1715.49,1898.25C1744.87,1994.3 1695.58,2101.22 1599.53,2130.61C1503.47,2159.99 1395.54,2125.21 1366.15,2029.15C1336.77,1933.1 1393.91,1816.14 1489.96,1786.75Z"/></clipPath><g clip-path="url(#_clip4)"><path d="M1398.12,1983.64C1410.59,1943.33 1431.67,1891.71 1472.25,1904.26C1512.84,1916.81 1556.91,1986.74 1544.44,2027.05C1531.98,2067.36 1494.24,2096.6 1453.65,2084.05C1413.07,2071.5 1385.66,2023.95 1398.12,1983.64Z" style="fill:rgb(255,215,129);"/></g><path d="M1486.91,1776.79C1588.59,1745.69 1694.34,1793.53 1725.45,1895.2C1756.5,1996.7 1704.07,2109.51 1602.57,2140.57C1500.98,2171.65 1387.27,2133.8 1356.19,2032.2C1325.21,1930.95 1385.66,1807.77 1486.91,1776.79ZM1493.01,1796.71C1402.15,1824.51 1348.32,1935.25 1376.11,2026.11C1403.8,2116.62 1505.97,2148.33 1596.48,2120.64C1687.08,2092.93 1733.25,1991.9 1705.53,1901.3C1677.86,1810.87 1583.44,1769.05 1493.01,1796.71Z" style="fill:rgb(243,114,114);"/><path d="M1380.86,1918.57C1384.03,1914.36 1390.02,1913.51 1394.23,1916.68C1398.44,1919.85 1399.29,1925.84 1396.12,1930.05C1396.12,1930.05 1372.42,1961.09 1338.65,1962.15C1301.73,1963.31 1292.09,1923.26 1292.09,1923.26C1290.91,1918.12 1294.13,1913 1299.27,1911.82C1304.41,1910.65 1309.53,1913.87 1310.71,1919C1310.71,1919 1315.89,1943.75 1338.05,1943.06C1363.35,1942.27 1380.86,1918.57 1380.86,1918.57Z" style="fill:rgb(243,114,114);"/></g><g id="body1_with_legs"><path d="M1865.91,1592.69C1861.96,1589.2 1861.58,1583.16 1865.07,1579.21C1868.55,1575.25 1874.59,1574.87 1878.54,1578.36C1878.54,1578.36 1899.78,1597.36 1923.78,1586.71C1933.16,1582.55 1938.68,1574.48 1942.14,1566.49C1947.88,1553.27 1948.09,1539.86 1948.09,1539.86C1948.17,1534.59 1952.51,1530.37 1957.78,1530.44C1963.05,1530.52 1967.27,1534.86 1967.19,1540.13C1967.19,1540.13 1966.97,1557.24 1959.67,1574.09C1954.44,1586.14 1945.66,1597.9 1931.53,1604.17C1896.77,1619.59 1865.91,1592.69 1865.91,1592.69Z" style="fill:rgb(243,114,114);"/><path id="body1" d="M1773.7,1509.97C1871.42,1533.22 1935.07,1622.53 1911.82,1720.25C1888.56,1817.96 1791.95,1885.24 1694.23,1861.99C1596.51,1838.74 1521.01,1754.13 1544.26,1656.41C1567.51,1558.69 1675.98,1486.71 1773.7,1509.97Z" style="fill:rgb(255,192,29);"/><clipPath id="_clip5"><path d="M1773.7,1509.97C1871.42,1533.22 1935.07,1622.53 1911.82,1720.25C1888.56,1817.96 1791.95,1885.24 1694.23,1861.99C1596.51,1838.74 1521.01,1754.13 1544.26,1656.41C1567.51,1558.69 1675.98,1486.71 1773.7,1509.97Z"/></clipPath><g clip-path="url(#_clip5)"><path d="M1604.23,1706.54C1616.69,1666.23 1656.1,1642.09 1696.68,1654.64C1737.27,1667.19 1763.02,1709.63 1750.55,1749.94C1738.09,1790.26 1700.35,1819.5 1659.76,1806.95C1619.17,1794.4 1591.77,1746.85 1604.23,1706.54Z" style="fill:rgb(255,209,110);"/></g><path d="M1776.11,1499.83C1879.55,1524.44 1946.56,1619.22 1921.95,1722.66C1897.38,1825.92 1795.08,1896.7 1691.82,1872.13C1588.46,1847.53 1509.53,1757.36 1534.12,1654C1558.63,1550.99 1673.1,1475.32 1776.11,1499.83ZM1771.29,1520.1C1678.86,1498.11 1576.39,1566.39 1554.39,1658.82C1532.48,1750.9 1604.56,1829.95 1696.64,1851.86C1788.82,1873.79 1879.75,1810.01 1901.68,1717.83C1923.57,1625.84 1863.29,1541.99 1771.29,1520.1Z" style="fill:rgb(243,114,114);"/><path d="M1556.79,1654.93C1560.74,1651.44 1566.78,1651.81 1570.27,1655.76C1573.76,1659.71 1573.38,1665.75 1569.43,1669.24C1569.43,1669.24 1540,1694.9 1506.7,1689.16C1470.3,1682.9 1468.88,1641.73 1468.88,1641.73C1468.76,1636.47 1472.94,1632.09 1478.21,1631.97C1483.48,1631.84 1487.86,1636.02 1487.98,1641.29C1487.98,1641.29 1488.09,1666.58 1509.94,1670.34C1534.89,1674.64 1556.79,1654.93 1556.79,1654.93Z" style="fill:rgb(243,114,114);"/></g><g id="head_with_face_and_antenna"><path id="head" d="M1640.2,1225.23C1740.65,1225.23 1823.25,1297.38 1823.25,1397.83C1823.25,1498.28 1744.83,1586.09 1644.38,1586.09C1543.93,1586.09 1450.89,1521.25 1450.89,1420.81C1450.89,1320.36 1539.76,1225.23 1640.2,1225.23Z" style="fill:rgb(255,201,82);"/><clipPath id="_clip6"><path d="M1640.2,1225.23C1740.65,1225.23 1823.25,1297.38 1823.25,1397.83C1823.25,1498.28 1744.83,1586.09 1644.38,1586.09C1543.93,1586.09 1450.89,1521.25 1450.89,1420.81C1450.89,1320.36 1539.76,1225.23 1640.2,1225.23Z"/></clipPath><g clip-path="url(#_clip6)"><path d="M1571.5,1280.43C1613.7,1280.43 1623.19,1286.18 1629.28,1328.23C1639.7,1400.26 1594.6,1449.56 1552.4,1449.56C1510.2,1449.56 1491.98,1405.63 1491.98,1363.15C1491.98,1320.67 1529.31,1280.43 1571.5,1280.43Z" style="fill:rgb(255,215,129);"/></g><path d="M1640.2,1214.81C1746.53,1214.81 1833.66,1291.5 1833.66,1397.83C1833.66,1503.97 1750.53,1596.51 1644.38,1596.51C1538.14,1596.51 1440.48,1527.05 1440.48,1420.81C1440.48,1314.92 1534.32,1214.81 1640.2,1214.81ZM1640.2,1235.65C1545.19,1235.65 1461.31,1325.79 1461.31,1420.81C1461.31,1515.46 1549.73,1575.67 1644.38,1575.67C1739.13,1575.67 1812.83,1492.58 1812.83,1397.83C1812.83,1303.26 1734.77,1235.65 1640.2,1235.65Z" style="fill:rgb(255,116,115);"/><g id="caterpillar_face_1"><path d="M1668.38,1423.62C1668.18,1418.36 1672.29,1413.92 1677.56,1413.71C1682.82,1413.51 1687.26,1417.62 1687.47,1422.89C1687.47,1422.89 1688.4,1445.69 1711.53,1446.52C1722.76,1446.93 1730.22,1444.43 1734.98,1440.12C1745.86,1430.28 1742.65,1413 1742.65,1413C1741.8,1407.8 1745.33,1402.88 1750.54,1402.03C1755.74,1401.18 1760.65,1404.72 1761.5,1409.92C1761.5,1409.92 1765.72,1438.07 1747.8,1454.28C1740.22,1461.14 1728.69,1466.25 1710.84,1465.61C1669.88,1464.13 1668.38,1423.62 1668.38,1423.62Z" style="fill:rgb(255,116,115);"/><circle cx="1659.81" cy="1378.47" r="19.61" style="fill:rgb(243,114,114);"/><path d="M1592.02,1397.1C1611.96,1397.1 1629.88,1401.18 1629.88,1415.84C1629.88,1430.5 1611.93,1437.68 1593.76,1445.88C1576.43,1453.7 1555.9,1438.32 1555.9,1423.66C1555.9,1409 1572.09,1397.1 1592.02,1397.1Z" style="fill:rgb(243,114,114);"/><path d="M1795.33,1373.64C1786.4,1373.64 1778.37,1376.81 1778.37,1388.22C1778.37,1399.62 1786.84,1409.16 1797.16,1409.85C1810.13,1410.72 1811.51,1405.71 1811.51,1394.3C1811.51,1382.9 1804.26,1373.64 1795.33,1373.64Z" style="fill:rgb(243,114,114);"/><circle cx="1753.45" cy="1364.14" r="19.61" style="fill:rgb(243,114,114);"/></g><g id="caterpillar_antenna_1"><g><path d="M1616.07,1283.23C1616.54,1288.96 1612.27,1293.99 1606.54,1294.46C1600.81,1294.93 1595.77,1290.66 1595.3,1284.93C1595.3,1284.93 1584.11,1148.31 1561.76,1049.16C1552.63,1008.66 1542.16,974.5 1529.14,960.183C1513.24,942.711 1494.31,935.239 1476.94,935.987C1452.02,937.061 1430.75,955.258 1428.75,983.033C1426.58,1013.3 1450.8,1026.68 1473.32,1031.12C1485.76,1033.58 1495.86,1023.13 1498.29,1012.91C1499.54,1007.67 1498.44,1002.17 1492.85,999.527C1487.66,997.069 1485.43,990.854 1487.89,985.657C1490.35,980.46 1496.56,978.236 1501.76,980.695C1520.98,989.785 1523.7,1010.11 1515.01,1027.39C1507.03,1043.23 1489.38,1055.53 1469.28,1051.56C1437.32,1045.25 1404.88,1024.5 1407.97,981.539C1410.79,942.33 1440.87,916.689 1476.05,915.173C1498.75,914.196 1523.78,923.331 1544.55,946.165C1559.02,962.077 1571.94,999.568 1582.08,1044.58C1604.7,1144.94 1616.07,1283.23 1616.07,1283.23Z" style="fill:rgb(243,114,114);"/><path d="M1717.76,1259.39C1716.98,1265.09 1711.72,1269.08 1706.03,1268.3C1700.33,1267.52 1696.34,1262.27 1697.12,1256.57C1697.12,1256.57 1713.73,1135.88 1706.14,1076.36C1703.86,1058.44 1707.11,1043.95 1713.57,1032.75C1724.14,1014.43 1743.54,1004.53 1764.32,1003.28C1794.71,1001.47 1827.55,1018.33 1837.53,1052.27C1842.43,1068.93 1840.21,1083.02 1834.13,1094.11C1825.08,1110.64 1806.96,1120.66 1788.7,1122.12C1772.13,1123.45 1762.46,1118.51 1757.04,1112.16C1751.48,1105.65 1749.79,1096.85 1751.18,1087.88C1752.99,1076.27 1760.13,1064.73 1766.75,1059.77C1771.35,1056.32 1777.88,1057.26 1781.33,1061.86C1784.78,1066.45 1783.85,1072.99 1779.25,1076.44C1775.86,1078.98 1772.7,1085.14 1771.77,1091.09C1771.34,1093.83 1771.19,1096.64 1772.88,1098.63C1775.24,1101.39 1779.84,1101.93 1787.04,1101.35C1798.53,1100.43 1810.16,1094.51 1815.86,1084.1C1819.62,1077.23 1820.58,1068.47 1817.54,1058.15C1810.5,1034.2 1787,1022.8 1765.56,1024.08C1751.78,1024.9 1738.63,1031.01 1731.62,1043.16C1727.09,1050.99 1725.21,1061.19 1726.81,1073.73C1734.63,1135.04 1717.76,1259.39 1717.76,1259.39Z" style="fill:rgb(243,114,114);"/></g></g></g></g><g id="catterpillar2"><g id="body_1_with_legs"><path d="M2038.4,1582.8C2043.4,1581.14 2048.81,1583.87 2050.46,1588.88C2052.11,1593.88 2049.39,1599.28 2044.38,1600.93C2044.38,1600.93 2007.21,1612.91 1978.87,1594.51C1947.89,1574.4 1962.82,1536.01 1962.82,1536.01C1964.78,1531.12 1970.35,1528.75 1975.24,1530.71C1980.13,1532.68 1982.5,1538.25 1980.54,1543.14C1980.54,1543.14 1970.67,1566.42 1989.27,1578.49C2010.5,1592.28 2038.4,1582.8 2038.4,1582.8Z" style="fill:rgb(35,31,32);"/><path id="body11" serif:id="body1" d="M2194.75,1474.57C2295.2,1474.57 2377.79,1546.72 2377.79,1647.16C2377.79,1747.61 2299.38,1835.43 2198.93,1835.43C2098.48,1835.43 2005.44,1770.59 2005.44,1670.14C2005.44,1569.7 2094.3,1474.57 2194.75,1474.57Z" style="fill:rgb(19,178,236);"/><clipPath id="_clip7"><path d="M2194.75,1474.57C2295.2,1474.57 2377.79,1546.72 2377.79,1647.16C2377.79,1747.61 2299.38,1835.43 2198.93,1835.43C2098.48,1835.43 2005.44,1770.59 2005.44,1670.14C2005.44,1569.7 2094.3,1474.57 2194.75,1474.57Z"/></clipPath><g clip-path="url(#_clip7)"><path d="M2112.93,1575.85C2159.81,1575.85 2198.36,1614.68 2198.36,1668.74C2198.36,1722.8 2161.76,1770.07 2114.88,1770.07C2068,1770.07 2024.57,1735.17 2024.57,1681.11C2024.57,1627.05 2066.05,1575.85 2112.93,1575.85Z" style="fill:rgb(115,196,231);"/></g><path d="M2194.75,1464.15C2301.08,1464.15 2388.21,1540.84 2388.21,1647.16C2388.21,1753.31 2305.07,1845.85 2198.93,1845.85C2092.68,1845.85 1995.03,1776.39 1995.03,1670.14C1995.03,1564.26 2088.87,1464.15 2194.75,1464.15ZM2194.75,1484.99C2099.74,1484.99 2015.86,1575.13 2015.86,1670.14C2015.86,1764.8 2104.28,1825.01 2198.93,1825.01C2293.68,1825.01 2367.38,1741.92 2367.38,1647.16C2367.38,1552.6 2289.32,1484.99 2194.75,1484.99Z" style="fill:rgb(52,49,76);"/><path d="M2405.8,1576.76C2405.63,1571.01 2410.16,1566.21 2415.9,1566.04C2421.65,1565.87 2426.45,1570.4 2426.62,1576.14C2426.62,1576.14 2427.58,1617.54 2395.27,1636.78C2381.71,1644.85 2367.36,1644.95 2355,1641.91C2337.78,1637.67 2324.77,1627.29 2324.77,1627.29C2320.27,1623.71 2319.52,1617.15 2323.1,1612.65C2326.67,1608.15 2333.23,1607.4 2337.73,1610.98C2337.73,1610.98 2347.32,1618.57 2359.97,1621.68C2367.53,1623.54 2376.33,1623.81 2384.62,1618.88C2406.93,1605.59 2405.8,1576.76 2405.8,1576.76Z" style="fill:rgb(52,49,76);"/></g><g id="body2_with_legs1" serif:id="body2_with_legs"><path d="M2158.47,1899.67C2158.3,1893.92 2162.82,1889.12 2168.57,1888.94C2174.32,1888.77 2179.12,1893.3 2179.29,1899.05C2179.29,1899.05 2180.25,1940.45 2147.94,1959.68C2134.38,1967.76 2120.03,1967.85 2107.67,1964.81C2090.45,1960.58 2077.44,1950.2 2077.44,1950.2C2072.94,1946.62 2072.19,1940.06 2075.76,1935.56C2079.34,1931.06 2085.9,1930.31 2090.4,1933.89C2090.4,1933.89 2099.99,1941.47 2112.64,1944.58C2120.2,1946.44 2129,1946.72 2137.28,1941.78C2159.6,1928.5 2158.47,1899.67 2158.47,1899.67Z" style="fill:rgb(52,49,76);"/><path id="body21" serif:id="body2" d="M2266.5,1730.6C2359.23,1691.99 2463.21,1726.86 2501.81,1819.59C2540.41,1912.33 2501.77,2023.54 2409.04,2062.14C2316.3,2100.74 2205.49,2076.64 2166.89,1983.9C2128.28,1891.17 2173.76,1769.2 2266.5,1730.6Z" style="fill:rgb(71,184,224);"/><clipPath id="_clip8"><path d="M2266.5,1730.6C2359.23,1691.99 2463.21,1726.86 2501.81,1819.59C2540.41,1912.33 2501.77,2023.54 2409.04,2062.14C2316.3,2100.74 2205.49,2076.64 2166.89,1983.9C2128.28,1891.17 2173.76,1769.2 2266.5,1730.6Z"/></clipPath><g clip-path="url(#_clip8)"><path d="M2215.53,1840.67C2259.32,1823.94 2329.22,1852.19 2348.51,1902.69C2367.8,1953.19 2371.93,2017.56 2328.14,2034.29C2284.34,2051.01 2209.87,2026.76 2190.58,1976.25C2171.29,1925.75 2171.73,1857.4 2215.53,1840.67Z" style="fill:rgb(125,201,227);"/></g><path d="M2262.49,1720.98C2360.65,1680.12 2470.57,1717.43 2511.43,1815.59C2552.22,1913.58 2511.03,2030.96 2413.04,2071.76C2314.95,2112.59 2198.1,2085.99 2157.27,1987.91C2116.58,1890.16 2164.74,1761.67 2262.49,1720.98ZM2270.5,1740.21C2182.78,1776.73 2139.99,1892.19 2176.51,1979.9C2212.88,2067.28 2317.65,2088.9 2405.03,2052.52C2492.51,2016.11 2528.61,1911.07 2492.2,1823.6C2455.85,1736.29 2357.8,1703.87 2270.5,1740.21Z" style="fill:rgb(52,49,76);"/><path d="M2360,1860.73C2359.83,1854.99 2364.35,1850.18 2370.1,1850.01C2375.85,1849.84 2380.65,1854.37 2380.82,1860.12C2380.82,1860.12 2381.78,1901.52 2349.47,1920.75C2335.91,1928.83 2321.56,1928.92 2309.2,1925.88C2291.98,1921.65 2278.97,1911.26 2278.97,1911.26C2274.47,1907.69 2273.72,1901.13 2277.29,1896.63C2280.87,1892.13 2287.43,1891.38 2291.93,1894.96C2291.93,1894.96 2301.52,1902.54 2314.17,1905.65C2321.72,1907.51 2330.53,1907.78 2338.81,1902.85C2361.13,1889.57 2360,1860.73 2360,1860.73Z" style="fill:rgb(52,49,76);"/></g><g id="body4_with_legs1" serif:id="body4_with_legs"><path id="body41" serif:id="body4" d="M2519.76,2143.35C2620.21,2143.35 2702.81,2215.5 2702.81,2315.95C2702.81,2416.4 2624.39,2504.21 2523.94,2504.21C2423.5,2504.21 2330.46,2439.38 2330.46,2338.93C2330.46,2238.48 2419.32,2143.35 2519.76,2143.35Z" style="fill:rgb(71,184,224);"/><clipPath id="_clip9"><path d="M2519.76,2143.35C2620.21,2143.35 2702.81,2215.5 2702.81,2315.95C2702.81,2416.4 2624.39,2504.21 2523.94,2504.21C2423.5,2504.21 2330.46,2439.38 2330.46,2338.93C2330.46,2238.48 2419.32,2143.35 2519.76,2143.35Z"/></clipPath><g clip-path="url(#_clip9)"><path d="M2417.26,2235.54C2461.05,2218.82 2510.92,2241.34 2530.21,2291.84C2549.5,2342.34 2532.17,2399.55 2488.38,2416.28C2444.58,2433.01 2391.56,2415.9 2372.27,2365.4C2352.98,2314.9 2373.46,2252.27 2417.26,2235.54Z" style="fill:rgb(125,201,227);"/></g><path d="M2519.76,2132.94C2626.09,2132.94 2713.22,2209.62 2713.22,2315.95C2713.22,2422.09 2630.09,2514.63 2523.94,2514.63C2417.7,2514.63 2320.04,2445.17 2320.04,2338.93C2320.04,2233.05 2413.88,2132.94 2519.76,2132.94ZM2519.76,2153.77C2424.75,2153.77 2340.87,2243.92 2340.87,2338.93C2340.87,2433.58 2429.29,2493.8 2523.94,2493.8C2618.69,2493.8 2692.39,2410.7 2692.39,2315.95C2692.39,2221.38 2614.33,2153.77 2519.76,2153.77Z" style="fill:rgb(52,49,76);"/><path d="M2628.31,2421.2C2622.84,2419.42 2619.85,2413.53 2621.63,2408.07C2623.41,2402.6 2629.29,2399.61 2634.76,2401.39C2634.76,2401.39 2652.93,2407.29 2667.71,2420.26C2678.51,2429.72 2687.35,2442.79 2687.84,2459.49C2688.33,2475.96 2680.53,2496.91 2654.81,2521.83C2650.68,2525.83 2644.09,2525.73 2640.08,2521.6C2636.08,2517.47 2636.19,2510.87 2640.32,2506.87C2659.95,2487.85 2667.39,2472.68 2667.02,2460.11C2666.71,2449.7 2660.7,2441.82 2653.97,2435.92C2642.46,2425.82 2628.31,2421.2 2628.31,2421.2Z" style="fill:rgb(52,49,76);"/></g><g id="body3_with_legs1" serif:id="body3_with_legs"><path id="body31" serif:id="body3" d="M2640.96,1838.54C2741.41,1838.54 2824,1910.69 2824,2011.13C2824,2111.58 2745.58,2199.4 2645.14,2199.4C2544.69,2199.4 2451.65,2134.56 2451.65,2034.11C2451.65,1933.66 2540.51,1838.54 2640.96,1838.54Z" style="fill:rgb(19,178,236);"/><clipPath id="_clip10"><path d="M2640.96,1838.54C2741.41,1838.54 2824,1910.69 2824,2011.13C2824,2111.58 2745.58,2199.4 2645.14,2199.4C2544.69,2199.4 2451.65,2134.56 2451.65,2034.11C2451.65,1933.66 2540.51,1838.54 2640.96,1838.54Z"/></clipPath><g clip-path="url(#_clip10)"><path d="M2523.12,1947.97C2566.92,1931.25 2622.51,1972.37 2641.8,2022.87C2661.09,2073.37 2665.22,2130.58 2621.43,2147.31C2577.64,2164.04 2514.6,2136.92 2495.31,2086.42C2476.02,2035.91 2479.33,1964.7 2523.12,1947.97Z" style="fill:rgb(115,196,231);"/></g><path d="M2640.96,1828.12C2747.28,1828.12 2834.42,1904.81 2834.42,2011.13C2834.42,2117.28 2751.28,2209.81 2645.14,2209.81C2538.89,2209.81 2441.23,2140.36 2441.23,2034.11C2441.23,1928.23 2535.08,1828.12 2640.96,1828.12ZM2640.96,1848.95C2545.95,1848.95 2462.07,1939.1 2462.07,2034.11C2462.07,2128.76 2550.48,2188.98 2645.14,2188.98C2739.89,2188.98 2813.58,2105.88 2813.58,2011.13C2813.58,1916.57 2735.53,1848.95 2640.96,1848.95Z" style="fill:rgb(52,49,76);"/><path d="M2687.18,2037.28C2681.83,2035.16 2679.22,2029.1 2681.34,2023.76C2683.47,2018.41 2689.53,2015.8 2694.87,2017.92C2694.87,2017.92 2705.39,2022.06 2714.61,2030.83C2724.61,2040.35 2733.03,2054.93 2727.47,2074.9C2722.89,2091.33 2711.37,2100.81 2698.99,2106.09C2682.14,2113.27 2663.87,2112.18 2663.87,2112.18C2658.13,2111.83 2653.75,2106.9 2654.09,2101.16C2654.43,2095.42 2659.37,2091.04 2665.11,2091.38C2665.11,2091.38 2674.47,2091.9 2684.79,2089.02C2693.82,2086.5 2704.04,2081.36 2707.39,2069.32C2710.36,2058.67 2705.57,2050.99 2700.24,2045.92C2694.12,2040.09 2687.18,2037.28 2687.18,2037.28Z" style="fill:rgb(52,49,76);"/></g><g id="body5_with_legs"><path d="M1983.44,2347.69C1988.44,2346.04 1993.85,2348.77 1995.5,2353.77C1997.15,2358.78 1994.42,2364.18 1989.42,2365.83C1989.42,2365.83 1952.25,2377.8 1923.91,2359.41C1892.93,2339.3 1907.85,2300.91 1907.85,2300.91C1909.82,2296.02 1915.38,2293.64 1920.28,2295.61C1925.17,2297.58 1927.54,2303.14 1925.58,2308.03C1925.58,2308.03 1915.71,2331.32 1934.31,2343.39C1955.54,2357.17 1983.44,2347.69 1983.44,2347.69Z" style="fill:rgb(52,49,76);"/><path id="body51" serif:id="body5" d="M2267.17,2239.47C2353.84,2290.24 2388.63,2394.25 2337.85,2480.92C2287.07,2567.59 2175.02,2603.71 2088.35,2552.93C2001.68,2502.16 1954.19,2399.18 2004.96,2312.51C2055.74,2225.85 2180.5,2188.69 2267.17,2239.47Z" style="fill:rgb(19,178,236);"/><clipPath id="_clip11"><path d="M2267.17,2239.47C2353.84,2290.24 2388.63,2394.25 2337.85,2480.92C2287.07,2567.59 2175.02,2603.71 2088.35,2552.93C2001.68,2502.16 1954.19,2399.18 2004.96,2312.51C2055.74,2225.85 2180.5,2188.69 2267.17,2239.47Z"/></clipPath><g clip-path="url(#_clip11)"><path d="M2103.98,2280.09C2150.74,2283.36 2186.48,2324.8 2182.7,2378.72C2178.92,2432.65 2139.11,2477.24 2092.34,2473.97C2045.58,2470.69 2004.7,2432.84 2008.48,2378.91C2012.26,2324.98 2057.21,2276.81 2103.98,2280.09Z" style="fill:rgb(115,196,231);"/></g><path d="M2272.43,2230.48C2364.18,2284.23 2400.59,2394.44 2346.84,2486.18C2293.18,2577.76 2174.67,2615.58 2083.09,2561.92C1991.41,2508.21 1942.27,2398.92 1995.98,2307.25C2049.5,2215.89 2181.08,2176.95 2272.43,2230.48ZM2261.9,2248.45C2179.93,2200.42 2061.98,2235.8 2013.95,2317.78C1966.1,2399.45 2011.95,2496.1 2093.62,2543.95C2175.37,2591.85 2280.96,2557.4 2328.86,2475.65C2376.67,2394.06 2343.5,2296.26 2261.9,2248.45Z" style="fill:rgb(52,49,76);"/><path d="M2206.59,2551.69C2200.91,2550.81 2197.01,2545.48 2197.89,2539.8C2198.78,2534.12 2204.1,2530.22 2209.78,2531.11C2209.78,2531.11 2237.99,2535.64 2251.76,2557.99C2260.58,2572.3 2264.37,2594.34 2248.6,2627.84C2246.15,2633.04 2239.94,2635.28 2234.74,2632.83C2229.54,2630.38 2227.3,2624.17 2229.75,2618.97C2241.08,2594.9 2240.36,2579.2 2234.03,2568.92C2225.08,2554.4 2206.59,2551.69 2206.59,2551.69Z" style="fill:rgb(52,49,76);"/></g><g id="head_with_face_and_antenna1" serif:id="head_with_face_and_antenna"><path id="head1" serif:id="head" d="M2292.07,1166.47C2392.52,1166.47 2475.11,1238.62 2475.11,1339.07C2475.11,1439.52 2396.7,1527.33 2296.25,1527.33C2195.8,1527.33 2102.76,1462.49 2102.76,1362.05C2102.76,1261.6 2191.62,1166.47 2292.07,1166.47Z" style="fill:rgb(71,184,224);"/><clipPath id="_clip12"><path d="M2292.07,1166.47C2392.52,1166.47 2475.11,1238.62 2475.11,1339.07C2475.11,1439.52 2396.7,1527.33 2296.25,1527.33C2195.8,1527.33 2102.76,1462.49 2102.76,1362.05C2102.76,1261.6 2191.62,1166.47 2292.07,1166.47Z"/></clipPath><g clip-path="url(#_clip12)"><path d="M2234.58,1218.74C2271.57,1218.74 2289.23,1237.8 2289.23,1284.32C2289.23,1330.83 2242.82,1384.26 2205.83,1384.26C2168.84,1384.26 2140.95,1357.42 2140.95,1310.9C2140.95,1264.38 2197.59,1218.74 2234.58,1218.74Z" style="fill:rgb(125,201,227);"/></g><path d="M2292.07,1156.05C2398.4,1156.05 2485.53,1232.74 2485.53,1339.07C2485.53,1445.21 2402.39,1537.75 2296.25,1537.75C2190,1537.75 2092.35,1468.29 2092.35,1362.05C2092.35,1256.16 2186.19,1156.05 2292.07,1156.05ZM2292.07,1176.89C2197.06,1176.89 2113.18,1267.04 2113.18,1362.05C2113.18,1456.7 2201.6,1516.91 2296.25,1516.91C2391,1516.91 2464.7,1433.82 2464.7,1339.07C2464.7,1244.5 2386.64,1176.89 2292.07,1176.89Z" style="fill:rgb(52,49,76);"/><g id="caterpillar_face_2"><path d="M2343.97,1361.91C2320.43,1358.42 2298.61,1373.83 2295.28,1396.29C2291.95,1418.75 2300.39,1429.73 2323.94,1433.22C2347.48,1436.71 2377.27,1431.4 2380.6,1408.93C2383.93,1386.47 2367.52,1365.4 2343.97,1361.91Z" style="fill:rgb(52,49,76);"/><path d="M2128.81,1357.4C2117.01,1357.4 2111.43,1359.8 2111.43,1378.79C2111.43,1397.78 2118.21,1417.16 2130.01,1417.16C2141.81,1417.16 2153.79,1407.97 2153.79,1388.98C2153.79,1369.99 2140.61,1357.4 2128.81,1357.4Z" style="fill:rgb(52,49,76);"/><path d="M2186.38,1418.88C2192.2,1418.88 2201.39,1423.76 2201.39,1434.53C2201.39,1445.3 2195.04,1458.38 2189.21,1458.38C2183.39,1458.38 2178.66,1449.64 2175.82,1438.39C2173.22,1428.08 2180.55,1418.88 2186.38,1418.88Z" style="fill:rgb(52,49,76);"/><path d="M2167.23,1346.4C2167.01,1352.15 2162.17,1356.64 2156.43,1356.42C2150.68,1356.21 2146.19,1351.37 2146.41,1345.62C2146.41,1345.62 2148.49,1307.62 2182.85,1311.15C2193.6,1312.26 2200.23,1316.76 2204.48,1322.04C2213.93,1333.8 2210.51,1351.32 2210.51,1351.32C2209.3,1356.94 2203.76,1360.52 2198.14,1359.31C2192.52,1358.1 2188.94,1352.55 2190.15,1346.93C2190.15,1346.93 2192.03,1339.81 2188.24,1335.09C2186.81,1333.31 2184.35,1332.25 2180.72,1331.88C2167.14,1330.48 2167.23,1346.4 2167.23,1346.4Z" style="fill:rgb(52,49,76);"/><path d="M2256.18,1354.6C2255.47,1360.3 2250.25,1364.35 2244.55,1363.63C2238.84,1362.91 2234.8,1357.7 2235.51,1351.99C2235.51,1351.99 2239.7,1317.74 2275.09,1316.15C2311.63,1314.51 2311.5,1352.98 2311.5,1352.98C2311.43,1358.73 2306.71,1363.34 2300.96,1363.27C2295.21,1363.2 2290.6,1358.48 2290.67,1352.73C2290.67,1352.73 2291.21,1336.28 2276.03,1336.96C2258.43,1337.75 2256.18,1354.6 2256.18,1354.6Z" style="fill:rgb(52,49,76);"/></g><g id="caterpillar_antenna_2"><path d="M2209.11,1235.96C2209.94,1241.65 2205.99,1246.95 2200.31,1247.78C2194.62,1248.61 2189.32,1244.67 2188.49,1238.98C2188.49,1238.98 2174.08,1140.4 2154.05,1073.69C2149.08,1057.15 2143.81,1042.63 2138.28,1032.3C2135.43,1026.98 2132.81,1022.87 2129.85,1020.9C2119.29,1013.88 2100.35,1008.31 2081,1008.34C2064.28,1008.36 2047.06,1012.54 2035.12,1024.81C2027.23,1032.92 2021.82,1044.53 2020.08,1060.4C2017.7,1082.14 2021.61,1096.52 2030.76,1105.5C2040.07,1114.62 2054.04,1117.96 2069.62,1118.94C2084.02,1119.84 2095.35,1116 2102.21,1107.81C2109.22,1099.45 2111.3,1087.08 2108.55,1072.39C2105.79,1057.66 2090.54,1054.66 2079.64,1058.51C2073.43,1060.71 2068.12,1065.33 2069.01,1072.39C2069.74,1078.09 2065.69,1083.31 2059.99,1084.03C2054.28,1084.75 2049.07,1080.71 2048.35,1075.01C2046.12,1057.4 2057.21,1044.34 2072.7,1038.87C2094.35,1031.23 2123.54,1039.3 2129.03,1068.55C2133.14,1090.5 2128.64,1108.7 2118.18,1121.19C2107.57,1133.85 2090.56,1141.12 2068.32,1139.73C2047.25,1138.41 2028.76,1132.72 2016.18,1120.37C2003.44,1107.88 1996.06,1088.38 1999.37,1058.13C2001.72,1036.7 2009.53,1021.24 2020.19,1010.28C2036.09,993.943 2058.7,987.533 2080.97,987.503C2104.95,987.471 2128.3,994.853 2141.39,1003.55C2146.46,1006.93 2151.76,1013.35 2156.64,1022.46C2162.69,1033.77 2168.57,1049.61 2174,1067.69C2194.39,1135.61 2209.11,1235.96 2209.11,1235.96Z" style="fill:rgb(52,49,76);"/><path d="M2378.15,1258.59C2376.12,1263.98 2370.11,1266.7 2364.73,1264.68C2359.35,1262.65 2356.63,1256.64 2358.65,1251.26C2358.65,1251.26 2377.12,1202.13 2410.98,1159.08C2434.41,1129.3 2465.2,1102.71 2501.85,1095.5C2588.95,1078.37 2627.2,1120.49 2629.84,1158.7C2632.63,1199.11 2596.21,1245.93 2547.14,1231.14C2530.6,1226.15 2518.67,1209.96 2515.94,1192.65C2513.11,1174.69 2519.79,1156.11 2539.14,1147.66C2569.65,1134.34 2605.04,1159.84 2584.3,1187.95C2580.89,1192.58 2574.36,1193.56 2569.74,1190.15C2565.11,1186.74 2564.12,1180.21 2567.54,1175.58C2568.96,1173.65 2569.84,1172.02 2569.35,1170.5C2568.34,1167.38 2564.4,1165.94 2560.29,1165.23C2556.25,1164.53 2551.69,1164.92 2547.48,1166.76C2537.86,1170.96 2535.11,1180.48 2536.52,1189.41C2538.03,1198.98 2544,1208.43 2553.15,1211.19C2586.95,1221.38 2610.97,1187.96 2609.05,1160.13C2606.98,1130.09 2574.37,1102.47 2505.87,1115.94C2473.99,1122.21 2447.73,1146.06 2427.36,1171.96C2395.53,1212.42 2378.15,1258.59 2378.15,1258.59Z" style="fill:rgb(52,49,76);"/></g></g></g></g></svg>
